<svg width="475" height="95" viewBox="0 0 475 95" fill="none" xmlns="http://www.w3.org/2000/svg">
<path d="M26.2542 59.5395C24.1111 56.2565 21.0664 50.7675 19.4406 43.4015C17.9478 36.6322 16.298 29.1572 20.3015 21.8115C24.4288 14.2405 33.5149 8.72564 39.8833 9.97641C39.8833 9.97641 40.0052 10.0004 47.1994 11.9126V38.3079L26.2542 59.5395Z" fill="#529342"/>
<path d="M32.0647 30.0959L36.2955 54.6622L25.2493 58.2482L25.6317 27.7163L32.0647 30.0959Z" fill="#437339"/>
<path d="M27.1872 45.4451C27.1872 45.4451 28.2994 28.3741 36.4765 26.8315L38.0542 19.8738L36.6908 9.7605C35.0816 9.95818 32.6872 10.4348 30.0804 11.7207C23.7822 14.8264 21.0461 20.2728 20.3015 21.8099C18.2711 26.0038 18.2526 29.4568 18.2212 35.0547C18.2212 35.0547 18.1362 50.838 25.4653 57.9952C25.7129 58.2354 26.0768 58.5513 26.439 58.4682C27.9373 58.1264 27.6823 51.4015 27.1872 45.4433V45.4451Z" fill="url(#paint0_linear_1866_249)"/>
<path d="M47.9162 23.3175C47.8922 27.8845 47.8681 32.4515 47.8441 37.0167C45.932 35.0085 44.0179 33.0003 42.1058 30.992L38.8782 22.8149C41.8915 22.9831 44.9029 23.1493 47.9162 23.3175Z" fill="white"/>
<path d="M38.13 16.1602C38.13 16.1602 38.1263 16.1602 38.1207 16.1602H38.1023L38.0635 16.1657L37.9785 16.1731C37.9212 16.1786 37.8621 16.186 37.8011 16.1934C37.6829 16.2082 37.5609 16.2248 37.439 16.2433C37.1951 16.2802 36.9513 16.3227 36.7055 16.3708C36.2159 16.4668 35.7264 16.5851 35.2423 16.72C34.2742 16.9915 33.3228 17.337 32.4082 17.7564L32.0664 17.9153L31.7284 18.0834C31.6157 18.1388 31.5048 18.198 31.394 18.2589C31.2831 18.3199 31.1704 18.3753 31.0632 18.44C30.8452 18.5656 30.6272 18.6894 30.4148 18.8243L30.254 18.924L30.1746 18.9739L30.097 19.0256L29.7848 19.2344C29.6795 19.3028 29.5797 19.3785 29.4781 19.4524C29.3765 19.5263 29.273 19.5965 29.1732 19.6741C28.9774 19.8293 28.7742 19.979 28.5839 20.1434L28.2957 20.3854L28.0167 20.6385C27.8283 20.8029 27.6546 20.9858 27.4735 21.1595C26.0583 22.5858 24.9406 24.3077 24.1647 26.1903C23.7767 27.1325 23.4718 28.1135 23.2409 29.1167L23.1578 29.4936C23.1301 29.6193 23.1005 29.7449 23.0802 29.8724L22.9471 30.6354L22.8455 31.4058L22.8197 31.5979L22.803 31.7919L22.7679 32.1799L22.7328 32.5679C22.7254 32.6972 22.7199 32.8284 22.7125 32.9577L22.6922 33.3475C22.6866 33.4769 22.6756 33.608 22.6774 33.7392L22.6682 34.5225C22.6682 34.5872 22.6663 34.6537 22.6682 34.7184L22.6737 34.9142L22.683 35.3059C22.6885 35.8287 22.731 36.3534 22.7605 36.8763C22.7661 37.0074 22.7827 37.1386 22.7938 37.2679L22.8308 37.6596C22.8566 37.922 22.8751 38.1843 22.9139 38.4448C23.1652 40.5343 23.5808 42.6128 24.1111 44.6635C24.6413 46.7161 25.2879 48.741 26.0122 50.74C26.7382 52.739 27.5419 54.7103 28.401 56.6612C27.4495 54.7546 26.5479 52.8221 25.724 50.8527C24.9 48.8832 24.1517 46.8787 23.5143 44.8335C22.8788 42.7883 22.3541 40.7025 21.9938 38.576C21.9421 38.3118 21.9107 38.0439 21.8701 37.776L21.8128 37.3751C21.7943 37.2421 21.7721 37.109 21.7592 36.9742C21.7019 36.4366 21.6317 35.9008 21.6003 35.3595L21.5708 34.9549L21.556 34.7516C21.5523 34.6833 21.5504 34.6168 21.5486 34.5484L21.519 33.7337C21.5116 33.5988 21.5153 33.4621 21.5153 33.3254V32.9171C21.5153 32.7803 21.5153 32.6455 21.5172 32.5088L21.5338 32.1005L21.5504 31.6922L21.5597 31.4871L21.5763 31.282L21.6447 30.4636L21.7463 29.647C21.761 29.5103 21.7869 29.3754 21.8091 29.2405L21.8774 28.8341C22.0714 27.7514 22.3486 26.6762 22.7218 25.6286C23.4663 23.5354 24.6136 21.5549 26.1212 19.8792C26.3133 19.6741 26.4981 19.4617 26.7013 19.2658L27.0006 18.9665L27.311 18.6783C27.5142 18.4825 27.7322 18.3051 27.9465 18.1204C28.0537 18.028 28.1645 17.943 28.2754 17.8543C28.3862 17.7675 28.4934 17.677 28.6079 17.5938L28.9479 17.3426L29.0328 17.2797L29.1197 17.2188L29.2933 17.0987C29.5224 16.9361 29.7608 16.7846 29.9972 16.6331C30.1155 16.5555 30.2374 16.4872 30.3575 16.4133C30.4776 16.3412 30.5977 16.2673 30.7215 16.199L31.0891 15.992L31.4623 15.7962C32.46 15.2789 33.4983 14.8429 34.5643 14.4863C35.0982 14.309 35.6377 14.1501 36.1882 14.0134C36.4635 13.945 36.7406 13.8822 37.0215 13.8268C37.1619 13.799 37.3041 13.7713 37.4482 13.7473C37.5203 13.7344 37.5923 13.7233 37.6662 13.7122L37.7789 13.6956L37.8381 13.6882L37.9083 13.679L38.1355 16.1509L38.13 16.1602Z" fill="url(#paint1_linear_1866_249)"/>
<path d="M26.546 57.8437L26.4204 57.9694C23.5715 53.3654 21.5485 48.3974 20.3994 43.1875C18.8937 36.3609 17.3362 29.3016 21.1642 22.2792C23.0524 18.8151 26.1858 15.5875 29.7607 13.4241C32.604 11.7041 35.5157 10.7822 38.0024 10.7822C38.3775 10.7822 38.7433 10.8043 39.0961 10.845C40.0125 10.3868 40.927 9.92862 41.8434 9.47228C40.1492 9.02519 40.0956 9.0141 40.0735 9.00856C38.3775 8.67601 36.493 8.76469 34.4755 9.27645C32.5781 9.7568 30.6493 10.5863 28.7427 11.741C26.849 12.8865 25.0883 14.2869 23.505 15.8998C21.8571 17.581 20.4899 19.41 19.4387 21.337C15.2596 29.006 16.9704 36.7637 18.4817 43.6087C19.7694 49.4431 22.1083 54.9819 25.432 60.0737L26.0989 61.0953L27.6157 59.5582L26.5479 57.84L26.546 57.8437Z" fill="url(#paint2_linear_1866_249)"/>
<path d="M37.3005 11.4104C37.3005 11.4104 37.282 11.4326 37.2469 11.4751C36.809 12.0182 33.7847 15.8814 33.3191 19.8387L36.1532 20.7717L34.4313 23.9993L44.6887 34.3638C42.4421 28.7086 40.1937 23.0552 37.9471 17.4C37.7328 15.4029 37.5166 13.4076 37.3023 11.4104H37.3005Z" fill="url(#paint3_linear_1866_249)"/>
<path d="M42.6415 32.6917L33.7421 24.0879L35.5804 21.0395L32.5615 20.1712L32.689 19.7222C34.5772 13.0915 36.6981 11.5008 36.7868 11.438L37.3336 12.1973L37.3373 12.1936C37.3189 12.2084 35.4603 13.6624 33.7199 19.5301L37.0122 20.4778L34.9282 23.9327L43.2918 32.0174L42.6415 32.6899V32.6917Z" fill="#3B6F36"/>
<path d="M30.6549 50.2004C30.5994 50.1339 30.5551 50.0766 30.5071 50.0157L30.3703 49.8364C30.2798 49.7164 30.193 49.5963 30.1061 49.4762C29.9343 49.2342 29.7681 48.9903 29.6073 48.7427C29.2859 48.2476 28.9847 47.7414 28.7039 47.2259C28.1422 46.1932 27.6582 45.1179 27.2721 44.0076C27.0762 43.4533 26.91 42.8898 26.7659 42.3189C26.6236 41.7481 26.509 41.1716 26.4241 40.5897C26.3391 40.0077 26.2873 39.422 26.267 38.8345C26.2467 38.247 26.2596 37.6595 26.3095 37.0757C26.4093 35.9062 26.6495 34.7515 27.0282 33.6486C27.4051 32.5438 27.9187 31.4907 28.545 30.5152C28.8591 30.0275 29.1972 29.5564 29.5648 29.1093C29.9306 28.6622 30.3205 28.2335 30.7325 27.8308C31.5546 27.0216 32.4599 26.3029 33.4243 25.6821C32.4894 26.3472 31.623 27.1047 30.8451 27.9416C30.4553 28.3592 30.0914 28.7989 29.7514 29.2552C29.4115 29.7115 29.0993 30.1882 28.8147 30.6796C28.2457 31.6625 27.7949 32.7082 27.479 33.7927C27.1612 34.8753 26.982 35.9949 26.9395 37.1145C26.9173 37.6743 26.9303 38.2359 26.9746 38.7957C27.0208 39.3537 27.0947 39.9098 27.2 40.4603C27.3072 41.0109 27.4402 41.5541 27.6009 42.0917C27.7635 42.6275 27.9464 43.1577 28.157 43.6769C28.5746 44.717 29.0808 45.7202 29.6609 46.6772C29.951 47.1557 30.2595 47.6231 30.5828 48.0776C30.7454 48.3049 30.9117 48.5266 31.0835 48.7446C31.1685 48.8536 31.2553 48.9607 31.344 49.066L31.4752 49.2231C31.5176 49.273 31.5657 49.3265 31.6045 49.369L30.653 50.2023L30.6549 50.2004Z" fill="#E4F1DD"/>
<path d="M31.6823 66.7283C33.4873 70.209 36.7722 75.5576 42.3886 80.5939C47.5505 85.2219 53.2501 90.3321 61.6137 90.4559C70.2361 90.5833 79.5032 85.3808 81.5447 79.2193C81.5447 79.2193 81.5835 79.1011 83.4531 71.8958L60.4646 58.9226L31.6804 66.7283H31.6823Z" fill="url(#paint4_linear_1866_249)"/>
<path d="M60.1818 76.1396L40.8661 60.3804L32.314 68.2378L59.0917 82.9107L60.1818 76.1396Z" fill="#005D96"/>
<path d="M44.4153 72.8435C44.4153 72.8435 59.8291 80.265 65.1905 73.9022L72.0245 75.9474L80.1627 82.1051C79.2002 83.4094 77.6076 85.2588 75.2059 86.8994C69.4065 90.8586 63.3172 90.5648 61.6138 90.4577C56.9636 90.1658 53.9484 88.4845 49.0562 85.7595C49.0562 85.7595 35.2683 78.0775 32.6374 68.1749C32.5488 67.8423 32.4545 67.3694 32.704 67.0941C33.7386 65.956 39.4695 69.4848 44.4153 72.8435Z" fill="url(#paint5_linear_1866_249)"/>
<path d="M73.8755 65.666C69.8867 63.4416 65.8979 61.219 61.9092 58.9946C62.7184 61.6476 63.5276 64.3007 64.3368 66.9537L69.8719 73.7839C71.2058 71.0773 72.5416 68.3726 73.8773 65.666H73.8755Z" fill="white"/>
<path d="M75.2981 77.7043C75.2981 77.7043 75.2981 77.7062 75.2926 77.7117L75.2815 77.7265L75.2593 77.7597L75.2113 77.8299C75.178 77.878 75.1429 77.926 75.1078 77.974C75.0376 78.0701 74.9637 78.168 74.8861 78.2641C74.7346 78.4581 74.5776 78.6502 74.415 78.8405C74.0898 79.2193 73.7481 79.5888 73.3915 79.9435C72.6783 80.6529 71.9116 81.3106 71.095 81.9018L70.7883 82.1217L70.4761 82.3323C70.3727 82.4044 70.2655 82.4709 70.1602 82.5374C70.053 82.6039 69.9496 82.6741 69.8406 82.7369C69.6244 82.8644 69.4083 82.9937 69.1866 83.112L69.0221 83.2025L68.939 83.2487L68.8559 83.2912L68.5196 83.4611C68.4088 83.5203 68.2924 83.5683 68.1797 83.6219C68.0651 83.6736 67.9524 83.729 67.836 83.7771C67.6032 83.8713 67.3741 83.9748 67.1377 84.0597L66.7848 84.1909L66.4282 84.3091C66.1917 84.3923 65.9479 84.4551 65.7077 84.5253C63.7697 85.0555 61.7226 85.1849 59.6996 84.9336C58.689 84.8098 57.684 84.5918 56.6974 84.2999L56.3279 84.1854C56.2041 84.1466 56.0803 84.1115 55.9602 84.0653L55.2305 83.8048L54.51 83.5147L54.3289 83.4427L54.1515 83.3632L53.7968 83.2025L53.4421 83.0418C53.3257 82.9845 53.2093 82.9254 53.0929 82.8681L52.7437 82.6926C52.6273 82.6335 52.5091 82.578 52.3964 82.5134L51.7091 82.1365C51.6519 82.1051 51.5946 82.0737 51.5373 82.0423L51.3692 81.9406L51.0329 81.7393C50.5785 81.4769 50.1443 81.1832 49.7027 80.9005C49.5919 80.8303 49.4866 80.7527 49.3776 80.6788L49.0543 80.4534C48.84 80.3019 48.6201 80.156 48.4113 79.9952C46.7153 78.7482 45.108 77.3662 43.5838 75.8956C42.0577 74.425 40.6112 72.8675 39.2274 71.2528C37.8436 69.6381 36.5208 67.9679 35.2441 66.2627C36.4358 68.0289 37.6773 69.7637 38.9872 71.4487C40.2971 73.1336 41.6753 74.7705 43.1441 76.3316C44.6129 77.8909 46.1722 79.3726 47.846 80.7324C48.0511 80.9079 48.2691 81.0668 48.4815 81.233L48.8012 81.4806C48.9083 81.5619 49.0136 81.6469 49.1245 81.7245C49.5642 82.0386 49.9965 82.3619 50.4528 82.6556L50.7909 82.881L50.9609 82.9937C51.0182 83.0307 51.0754 83.0658 51.1346 83.1009L51.8292 83.5277C51.9438 83.6016 52.0639 83.6644 52.1821 83.7309L52.5387 83.9304C52.6569 83.9969 52.7751 84.0653 52.8952 84.1299L53.2592 84.3165L53.6231 84.5031L53.8061 84.5955L53.9927 84.6823L54.739 85.026L55.5002 85.3382C55.6258 85.3936 55.757 85.4361 55.8863 85.4842L56.2743 85.6246C57.3126 85.9885 58.3842 86.2749 59.4797 86.4652C61.669 86.8458 63.9581 86.8199 66.1585 86.3303C66.4319 86.2638 66.709 86.2065 66.9788 86.1271L67.3852 86.0144L67.788 85.8869C68.0577 85.8056 68.3201 85.7022 68.5861 85.6079C68.7191 85.5599 68.8485 85.5045 68.9796 85.4528C69.109 85.3992 69.242 85.3493 69.3695 85.2902L69.7556 85.1184L69.8517 85.0759L69.9459 85.0297L70.1362 84.9373C70.3911 84.8172 70.6387 84.6842 70.8881 84.553C71.0137 84.4884 71.1338 84.4163 71.2558 84.3479C71.3777 84.2796 71.5015 84.2094 71.6197 84.1355L71.98 83.9175L72.3347 83.6884C73.2751 83.0732 74.1656 82.384 75.0007 81.6303C75.4182 81.2534 75.821 80.8599 76.2108 80.4479C76.4048 80.2428 76.5969 80.0322 76.7835 79.8142C76.8777 79.7052 76.9701 79.5962 77.0625 79.4816C77.1087 79.4262 77.1549 79.3671 77.201 79.308L77.2713 79.2174L77.3082 79.1694L77.3507 79.1121L75.3092 77.7006L75.2981 77.7043Z" fill="url(#paint6_linear_1866_249)"/>
<path d="M33.3042 67.3085L33.1324 67.3547C35.7429 72.0973 39.074 76.3022 43.0461 79.8623C48.2505 84.5291 53.6323 89.3548 61.6302 89.4731C65.5746 89.5303 69.9255 88.3886 73.5669 86.3397C76.4638 84.7084 78.6956 82.6281 79.9187 80.4609C80.1034 80.1339 80.2642 79.8051 80.4009 79.4762C81.2489 78.9035 82.0987 78.3308 82.9467 77.7599C82.5033 79.4559 82.4867 79.5076 82.4793 79.5298C81.9362 81.1722 80.9311 82.7666 79.4938 84.2723C78.1432 85.6875 76.4731 86.9605 74.5295 88.0542C72.6007 89.1405 70.5167 89.9867 68.333 90.5723C66.0605 91.182 63.7936 91.4739 61.5988 91.4407C52.8656 91.3113 46.9499 86.0072 41.7307 81.3293C37.2819 77.3405 33.6072 72.5813 30.8082 67.1829L30.2466 66.1002L32.3306 65.5349L33.3024 67.3085H33.3042Z" fill="url(#paint7_linear_1866_249)"/>
<path d="M79.0265 80.7637C79.0265 80.7637 78.9988 80.7693 78.9434 80.7785C78.2561 80.893 73.4046 81.6283 69.7299 80.0894L70.31 77.1629L66.6538 77.0761L62.6687 63.0498C66.4893 67.7868 70.3081 72.522 74.1288 77.259C75.762 78.4285 77.3952 79.5961 79.0284 80.7656L79.0265 80.7637Z" fill="url(#paint8_linear_1866_249)"/>
<path d="M63.1194 65.6531L66.238 77.6323L69.7963 77.5307L69.0702 80.5865L69.5247 80.6955C76.2275 82.3102 78.6532 81.2442 78.7548 81.198L78.3632 80.3482H78.3669C78.3447 80.3556 76.1646 81.259 70.199 79.8918L70.9916 76.5589L66.9585 76.6753L64.0265 65.4185L63.1194 65.6549V65.6531Z" fill="#005E98"/>
<path d="M41.9783 67.4858C42.0078 67.567 42.0355 67.6336 42.0651 67.7056L42.1538 67.9125C42.2129 68.0492 42.2757 68.186 42.3385 68.319C42.4642 68.5869 42.5953 68.8529 42.7321 69.1134C43.0055 69.6363 43.2974 70.148 43.6096 70.645C44.2322 71.6427 44.9324 72.5904 45.7084 73.4735C46.0945 73.9151 46.5047 74.3382 46.9296 74.7446C47.3564 75.1492 47.8035 75.5317 48.2672 75.8919C48.7328 76.2522 49.2168 76.5847 49.7175 76.8914C50.2182 77.1981 50.7373 77.4752 51.2712 77.7191C52.3372 78.2068 53.4624 78.5653 54.6097 78.7777C55.757 78.992 56.9265 79.0622 58.0848 78.9957C58.6631 78.9625 59.2395 78.8978 59.8104 78.798C60.3794 78.7001 60.9429 78.5708 61.4972 78.4101C62.6057 78.0923 63.6773 77.6563 64.6915 77.1224C63.6532 77.6101 62.5669 77.9925 61.4565 78.2586C60.9004 78.3916 60.3388 78.4932 59.7753 78.5653C59.21 78.6373 58.6428 78.6743 58.0756 78.6817C56.9412 78.6946 55.8069 78.5727 54.7076 78.3159C53.6083 78.059 52.546 77.6674 51.5484 77.1538C51.0495 76.8988 50.5673 76.6106 50.1018 76.2965C49.638 75.9824 49.1909 75.6444 48.7642 75.2822C48.3374 74.9183 47.9291 74.5358 47.5411 74.1312C47.1531 73.7266 46.7836 73.3073 46.4345 72.8694C45.7343 71.9955 45.1098 71.0607 44.5611 70.0852C44.2858 69.5975 44.0309 69.1005 43.7962 68.5943C43.678 68.3412 43.5671 68.0862 43.46 67.8294C43.4082 67.7019 43.3565 67.5726 43.3066 67.4451L43.2346 67.253C43.2124 67.1902 43.1884 67.1236 43.1718 67.0701L41.9783 67.4895V67.4858Z" fill="#E4F1DD"/>
<path d="M49.2112 32.2704C53.1205 31.9896 59.3983 31.9933 66.6276 34.1475C73.2713 36.128 80.6059 38.3155 85.0842 45.3803C89.6993 52.6632 90.1113 63.2845 85.9249 68.2451C85.9249 68.2451 85.8454 68.3412 80.6798 73.7008C75.952 72.3226 73.0145 70.1277 71.1189 68.0714C67.9892 64.6776 67.919 61.91 64.8078 59.1313C61.8426 56.4857 58.1051 55.6026 54.8756 55.3698C52.9875 47.6694 51.0993 39.969 49.2112 32.2686V32.2704Z" fill="url(#paint9_linear_1866_249)"/>
<path d="M72.1332 51.6433L48.5996 43.4163L50.8277 32.019L77.3339 47.176L72.1332 51.6433Z" fill="#005D96"/>
<path d="M61.0814 39.9283C61.0814 39.9283 75.4661 49.188 72.8445 57.0843L78.1616 61.8416L87.6652 65.5606C88.2749 64.0586 89.0194 61.7326 89.1598 58.8283C89.5016 51.8152 86.069 46.7789 85.0861 45.3803C82.4053 41.5689 79.3958 39.8766 74.5165 37.1312C74.5165 37.1312 60.76 29.3938 50.9441 32.3277C50.6134 32.4256 50.1626 32.5919 50.0573 32.9503C49.6287 34.4264 55.6313 37.4674 61.0814 39.9265V39.9283Z" fill="url(#paint10_linear_1866_249)"/>
<path d="M70.9008 67.822C66.9194 65.5865 62.9362 63.3511 58.9548 61.1156C61.5247 60.6241 64.0965 60.1308 66.6663 59.6394L75.1889 61.134C73.7589 63.364 72.3308 65.5921 70.9008 67.822Z" fill="white"/>
<path d="M81.3708 63.7114C81.3708 63.7114 81.3708 63.7096 81.3745 63.7022L81.3819 63.6855L81.3985 63.6504L81.4318 63.5728C81.4539 63.5193 81.4779 63.4657 81.5001 63.4084C81.5445 63.2976 81.5906 63.183 81.6331 63.0685C81.72 62.8375 81.8013 62.6029 81.877 62.3646C82.0304 61.8898 82.1652 61.4057 82.2816 60.9161C82.5144 59.9369 82.6733 58.9393 82.7509 57.9361L82.7786 57.5592L82.7952 57.1823C82.8026 57.0567 82.8026 56.931 82.8045 56.8054C82.8045 56.6798 82.81 56.5542 82.8082 56.4285C82.8026 56.1773 82.8026 55.926 82.786 55.6747L82.7767 55.4863L82.7731 55.3921L82.7657 55.2978L82.7343 54.9228C82.7269 54.7972 82.7065 54.6734 82.6936 54.5478C82.677 54.424 82.6659 54.2983 82.6474 54.1746C82.6068 53.927 82.5754 53.6776 82.5236 53.4319L82.4516 53.0624L82.3648 52.6966C82.313 52.4508 82.2373 52.2107 82.1726 51.9686C81.6128 50.0398 80.6503 48.2256 79.3792 46.633C78.7436 45.8368 78.0342 45.0941 77.2693 44.4049L76.9793 44.15C76.8813 44.065 76.7871 43.9782 76.6855 43.8987L76.0814 43.4128L75.4569 42.951L75.2999 42.8346L75.1392 42.7256L74.8158 42.5076L74.4925 42.2877C74.3835 42.2175 74.2727 42.1491 74.1618 42.0808L73.8293 41.8739C73.7184 41.8055 73.6094 41.7334 73.4949 41.6706L72.815 41.2827C72.7577 41.2512 72.7023 41.218 72.645 41.1866L72.4713 41.0961L72.124 40.915C71.664 40.6656 71.1855 40.4494 70.7125 40.2203C70.5943 40.1612 70.4723 40.1132 70.3523 40.0596L69.9901 39.9026C69.7481 39.7991 69.5098 39.6883 69.2641 39.594C67.315 38.7996 65.2956 38.153 63.2449 37.6209C61.1942 37.0888 59.1083 36.6694 57.0096 36.3332C54.9089 35.9969 52.7954 35.7438 50.6726 35.5461C52.8009 35.6404 54.9293 35.79 57.0502 36.0246C59.1711 36.2593 61.2884 36.5789 63.3853 37.0149C65.4822 37.4528 67.5607 38.007 69.5948 38.722C69.8516 38.8051 70.101 38.9068 70.3541 39.001L70.7328 39.1451C70.8585 39.195 70.986 39.2393 71.1097 39.2929C71.6067 39.5035 72.1111 39.703 72.5988 39.9377L72.9683 40.1076L73.1531 40.1926C73.214 40.2222 73.275 40.2536 73.3341 40.285L74.0602 40.6545C74.1821 40.7136 74.2985 40.7838 74.4186 40.8485L74.7752 41.048C74.8934 41.1145 75.0135 41.1792 75.1318 41.2476L75.4809 41.46L75.8301 41.6725L76.0056 41.7796L76.1756 41.8942L76.8573 42.3505L77.5224 42.8346C77.6351 42.914 77.7404 43.0008 77.8476 43.0858L78.1709 43.3426C79.0245 44.0373 79.83 44.8022 80.5634 45.6372C82.0322 47.3037 83.2072 49.2694 83.9407 51.3996C84.0275 51.6675 84.1236 51.9335 84.1956 52.2051L84.312 52.6116L84.4136 53.0217C84.4857 53.2952 84.5356 53.5723 84.5929 53.8476C84.6224 53.9861 84.6409 54.1247 84.6649 54.2632C84.6871 54.4018 84.7148 54.5404 84.7314 54.6808L84.7868 55.1002L84.7998 55.2055L84.8109 55.3108L84.8312 55.5214C84.8626 55.8022 84.8774 56.0812 84.8977 56.3639C84.9069 56.5043 84.9088 56.6447 84.9143 56.7851C84.9199 56.9255 84.9254 57.0659 84.9236 57.2063V57.6276L84.9162 58.0488C84.8848 59.1721 84.761 60.2917 84.5541 61.3965C84.4506 61.9489 84.3268 62.4994 84.179 63.0445C84.1051 63.3179 84.0257 63.5895 83.9388 63.8629C83.8963 63.9996 83.8502 64.1363 83.8021 64.2749C83.7781 64.3433 83.7522 64.4135 83.7264 64.4837L83.6857 64.5908L83.6636 64.6462L83.6358 64.7128L81.3653 63.7114H81.3708Z" fill="url(#paint11_linear_1866_249)"/>
<path d="M50.5525 33.3492L50.5026 33.1793C55.9102 32.9243 61.2347 33.5672 66.3486 35.0914C73.0477 37.0886 79.9759 39.1541 84.2565 45.9086C86.3682 49.2415 87.6689 53.5462 87.8259 57.7216C87.9497 61.0434 87.3437 64.0345 86.1354 66.2109C85.9525 66.5379 85.7567 66.8483 85.5479 67.1365C85.5036 68.16 85.4593 69.1817 85.4149 70.2052C86.6287 68.9415 86.6638 68.9008 86.6786 68.8824C87.7945 67.5614 88.6296 65.8709 89.1617 63.859C89.6623 61.9671 89.873 59.8776 89.7898 57.6514C89.7067 55.4399 89.339 53.221 88.6961 51.0521C88.0273 48.7963 87.0925 46.7123 85.9174 44.8574C81.2414 37.4803 73.6278 35.2097 66.9103 33.2088C61.1849 31.5017 55.2063 30.857 49.141 31.293L47.9253 31.3798L48.5331 33.4509L50.5525 33.3511V33.3492Z" fill="url(#paint12_linear_1866_249)"/>
<path d="M85.9266 65.2929C85.9266 65.2929 85.9155 65.2652 85.8952 65.2153C85.6347 64.5687 83.7244 60.0497 80.4912 57.7219L78.3001 59.7467L76.314 56.6743L62.2729 60.6095C68.3069 61.3892 74.3427 62.1707 80.3767 62.9503C82.226 63.7318 84.0772 64.5133 85.9266 65.2929Z" fill="url(#paint13_linear_1866_249)"/>
<path d="M64.7284 59.6301L76.5709 56.0256L78.3427 59.1128L80.5671 56.8958L80.8978 57.2247C85.7789 62.0947 86.1392 64.72 86.1521 64.829L85.2228 64.9399V64.9454C85.221 64.9214 84.8496 62.5898 80.5652 58.2205L78.1395 60.6389L76.1294 57.1397L65 60.5262L64.7266 59.6301H64.7284Z" fill="#005E98"/>
<path d="M55.2378 40.6527C55.3228 40.6361 55.3949 40.625 55.4706 40.6121L55.6942 40.5788C55.842 40.5585 55.9898 40.54 56.1376 40.5234C56.4332 40.4901 56.7269 40.4643 57.0207 40.4439C57.61 40.4033 58.1975 40.3848 58.785 40.3904C59.9601 40.3996 61.1351 40.4994 62.2935 40.7007C62.8736 40.7987 63.4463 40.9261 64.0153 41.0776C64.5825 41.2291 65.1423 41.4102 65.6929 41.619C66.2416 41.8277 66.7792 42.0661 67.3039 42.3339C67.8267 42.6 68.3348 42.8974 68.8207 43.2263C69.7943 43.8803 70.6867 44.6526 71.4682 45.519C72.2497 46.3855 72.9222 47.3462 73.4709 48.3679C73.7462 48.8778 73.9919 49.4044 74.2043 49.942C74.4186 50.4796 74.6034 51.0265 74.7549 51.5826C75.0634 52.6948 75.2519 53.8347 75.3276 54.9801C75.2001 53.8402 74.96 52.7151 74.6034 51.6288C74.426 51.0856 74.2191 50.5535 73.9845 50.0344C73.7517 49.5152 73.4857 49.0108 73.1938 48.5231C72.6118 47.5495 71.9153 46.646 71.1208 45.8442C70.3283 45.0405 69.4378 44.3403 68.4789 43.7584C68.0004 43.4665 67.5034 43.206 66.9917 42.9732C66.4818 42.7422 65.9589 42.5372 65.4268 42.3635C64.8947 42.1898 64.3534 42.042 63.8066 41.9219C63.2597 41.8037 62.7073 41.7058 62.1512 41.6393C61.0408 41.4989 59.9157 41.4564 58.798 41.4989C58.2382 41.5192 57.6802 41.5617 57.126 41.6263C56.8489 41.6578 56.5736 41.6966 56.3001 41.739C56.1634 41.7612 56.0267 41.7852 55.8918 41.8093L55.6905 41.848C55.6258 41.861 55.5556 41.8758 55.5002 41.8905L55.2341 40.6546L55.2378 40.6527Z" fill="#E4F1DD"/>
<path d="M35.1793 33.2146C31.342 34.0201 25.308 35.7475 18.9489 39.8084C13.1053 43.5385 6.65376 47.6584 4.2908 55.684C1.85578 63.9553 4.38132 74.2792 9.76866 77.8984C9.76866 77.8984 9.87212 77.9686 16.3107 81.7024L34.9761 63.0371L35.1793 33.2146Z" fill="url(#paint14_radial_1866_249)"/>
<path d="M18.4669 58.1429L38.8301 43.7638L33.5555 33.4177L12.2371 55.2774L18.4669 58.1429Z" fill="#8E8333"/>
<path d="M25.8715 43.8396C25.8715 43.8396 14.587 56.6964 19.2778 63.5692L15.4738 69.605L7.35951 75.7923C6.36185 74.5157 5.00578 72.4853 4.07094 69.7306C1.81329 63.0814 3.731 57.295 4.2908 55.6822C5.82053 51.2814 8.24816 48.8261 12.1852 44.8447C12.1852 44.8447 23.285 33.6248 33.5295 33.7449C33.8749 33.7485 34.3534 33.7837 34.553 34.0996C35.3714 35.4021 30.4349 39.9765 25.8715 43.8378V43.8396Z" fill="url(#paint15_linear_1866_249)"/>
<path d="M24.8832 74.1442C28.096 70.8981 31.307 67.6521 34.5198 64.406C31.7467 64.4744 28.9754 64.5409 26.2023 64.6092L18.1379 68.1084C20.3864 70.1203 22.6348 72.1323 24.8832 74.1442Z" fill="white"/>
<path d="M12.9038 72.2857C12.9038 72.2857 12.902 72.2839 12.8965 72.2783L12.8835 72.2635L12.8577 72.234L12.8041 72.1675C12.7671 72.1213 12.7302 72.0769 12.6932 72.0289C12.6193 71.9347 12.5454 71.8368 12.4715 71.7388C12.3256 71.5412 12.1815 71.3379 12.0429 71.1292C11.7658 70.7153 11.5016 70.2867 11.2559 69.847C10.7644 68.9694 10.3358 68.0531 9.98478 67.1108L9.85545 66.7561L9.73721 66.3977C9.69657 66.2795 9.66147 66.1575 9.62452 66.0374C9.58941 65.9173 9.55062 65.7973 9.51736 65.6753C9.4527 65.4333 9.38434 65.1894 9.33076 64.9456L9.28827 64.7627L9.2661 64.6703L9.24762 64.5779L9.17372 64.2084C9.14786 64.0846 9.13123 63.9608 9.11091 63.8371C9.09243 63.7133 9.06842 63.5895 9.05364 63.4657C9.02408 63.2163 8.98528 62.9687 8.96865 62.7175L8.9354 62.3424L8.91692 61.9674C8.90029 61.7161 8.90584 61.4667 8.90214 61.2154C8.90953 59.2072 9.3363 57.199 10.1196 55.3182C10.5113 54.3778 10.9898 53.4688 11.5367 52.595L11.7455 52.2698C11.8157 52.1608 11.8822 52.0518 11.9598 51.9465L12.4069 51.3128L12.8798 50.6957L12.9981 50.5424L13.1237 50.3927L13.3731 50.0934L13.6225 49.7941C13.7094 49.6962 13.7962 49.6002 13.8849 49.5041L14.1472 49.214C14.2359 49.118 14.319 49.0182 14.4133 48.9277L14.9601 48.3679C15.0063 48.3217 15.0506 48.2736 15.0968 48.2275L15.2391 48.0926L15.5236 47.8229C15.8968 47.4552 16.2977 47.1171 16.6894 46.7661C16.7855 46.6774 16.8908 46.5961 16.9905 46.513L17.2935 46.2617C17.4967 46.0954 17.6963 45.9236 17.9069 45.7647C19.5641 44.4641 21.3248 43.2891 23.1501 42.2138C24.9755 41.1386 26.8655 40.1631 28.7906 39.2615C30.7175 38.3618 32.6814 37.5359 34.6656 36.7637C32.6445 37.438 30.6399 38.1696 28.6649 38.977C26.6899 39.7862 24.7427 40.6748 22.8471 41.6707C20.9516 42.6665 19.1059 43.7731 17.3471 45.0202C17.1235 45.1717 16.9111 45.338 16.6949 45.4987L16.3698 45.7407C16.2626 45.822 16.1518 45.8996 16.0483 45.9864C15.6289 46.3264 15.1984 46.6552 14.7938 47.0173L14.4853 47.2834L14.332 47.4164C14.2821 47.4607 14.2322 47.5088 14.1823 47.555L13.5856 48.1092C13.484 48.1997 13.3916 48.2995 13.2937 48.3937L13.0055 48.6819C12.9094 48.778 12.8133 48.8741 12.7172 48.972L12.4401 49.2731L12.163 49.5743L12.0244 49.7258L11.8914 49.8828L11.3612 50.5091L10.855 51.1576C10.7681 51.2648 10.6905 51.3775 10.6111 51.4902L10.3709 51.8264C9.74276 52.7298 9.17742 53.685 8.70076 54.69C7.7456 56.6964 7.15809 58.9079 7.03985 61.16C7.03061 61.4408 7.01029 61.7235 7.01583 62.0043V62.4274L7.03062 62.8486C7.03616 63.1313 7.06572 63.4103 7.08419 63.6911C7.09528 63.8315 7.11375 63.9719 7.12853 64.1105C7.14516 64.2509 7.15625 64.3913 7.18026 64.5299L7.24123 64.9474L7.25601 65.0527L7.27449 65.1562L7.31144 65.3631C7.35762 65.6402 7.42044 65.9155 7.47956 66.1908C7.50912 66.3293 7.54607 66.4642 7.57932 66.6009C7.61258 66.7376 7.64583 66.8744 7.68648 67.0092L7.80103 67.4157L7.92666 67.8184C8.2666 68.89 8.69337 69.932 9.19405 70.9389C9.44531 71.4414 9.71504 71.9365 10.0069 72.4206C10.1529 72.6626 10.3044 72.9028 10.4633 73.1411C10.5427 73.2612 10.624 73.3794 10.709 73.4995C10.7515 73.5586 10.794 73.6196 10.8383 73.6787L10.9067 73.7711L10.9436 73.8191L10.988 73.8746L12.8965 72.2876L12.9038 72.2857Z" fill="url(#paint16_linear_1866_249)"/>
<path d="M34.1854 34.6205V34.4431C28.9163 35.6847 23.9742 37.7668 19.4774 40.6378C13.5857 44.3994 7.4926 48.2902 5.2331 55.9611C4.11905 59.7466 4.05254 64.2434 5.05019 68.3006C5.84462 71.5282 7.25058 74.2385 9.0094 75.9973C9.2736 76.2615 9.54703 76.5053 9.82785 76.7252C10.1512 77.697 10.4745 78.6669 10.7996 79.6387C9.28468 78.7575 9.24034 78.7279 9.22002 78.7131C7.78451 77.7487 6.51712 76.3539 5.4511 74.5655C4.44975 72.8842 3.67195 70.9333 3.13987 68.7698C2.61333 66.6212 2.35653 64.3857 2.37685 62.1243C2.40087 59.7706 2.72603 57.5093 3.34679 55.405C5.81322 47.0265 12.5104 42.7514 18.4188 38.9788C23.4532 35.7641 29.0253 33.5009 34.9761 32.252L36.1696 32.0007L36.1548 34.1605L34.1854 34.6205Z" fill="url(#paint17_linear_1866_249)"/>
<path d="M8.95776 75.0588C8.95776 75.0588 8.95961 75.0293 8.967 74.9757C9.0409 74.2829 9.63395 69.411 12.1041 66.285L14.7663 67.6282L15.8323 64.129L30.4147 64.0532C24.8279 66.4624 19.2391 68.8715 13.6523 71.2807C12.0893 72.5407 10.5245 73.7988 8.96146 75.0588H8.95776Z" fill="url(#paint18_linear_1866_249)"/>
<path d="M27.782 63.7869L15.4056 63.5781L14.5502 67.033L11.8011 65.5125L11.5738 65.9208C8.21876 71.9455 8.59565 74.5671 8.61228 74.6761L9.53604 74.5265V74.532C9.53419 74.508 9.24782 72.1653 12.1669 66.7854L15.1635 68.4426L16.1335 64.5259L27.7635 64.7217L27.7802 63.785L27.782 63.7869Z" fill="#8E8432"/>
<path d="M31.6877 42.9305C31.6027 42.9378 31.5288 42.9471 31.453 42.9563L31.2295 42.9859C31.0817 43.0062 30.9339 43.0302 30.7879 43.0542C30.496 43.1041 30.206 43.1577 29.9159 43.2205C29.3395 43.3443 28.7686 43.4884 28.2051 43.6547C27.0781 43.9872 25.9752 44.4066 24.9166 44.9165C24.3863 45.1696 23.869 45.4505 23.3646 45.7516C22.8603 46.0546 22.3725 46.3816 21.9014 46.7326C21.4303 47.0837 20.9795 47.4624 20.549 47.8633C20.1186 48.2642 19.714 48.6891 19.3352 49.1381C18.5796 50.0341 17.933 51.0225 17.4212 52.0701C16.9076 53.1176 16.5252 54.2261 16.2795 55.3586C16.1557 55.9258 16.0633 56.4986 16.0079 57.0731C15.9506 57.6477 15.9229 58.226 15.9284 58.8024C15.9377 59.9552 16.0688 61.1044 16.3127 62.2258C16.1206 61.0951 16.043 59.946 16.0873 58.8042C16.1076 58.2334 16.1612 57.6643 16.2444 57.1008C16.3256 56.5373 16.442 55.9794 16.588 55.4307C16.8799 54.3333 17.3011 53.2746 17.8443 52.2844C18.3856 51.2941 19.0489 50.3759 19.8119 49.5538C20.1925 49.1418 20.5989 48.7538 21.0257 48.3917C21.4525 48.0296 21.8977 47.6896 22.3615 47.3756C22.8252 47.0615 23.3055 46.7714 23.797 46.5054C24.2903 46.2412 24.7946 45.9955 25.3101 45.7775C26.341 45.3378 27.4088 44.9867 28.4952 44.7188C29.0383 44.584 29.5871 44.4731 30.1376 44.3807C30.4129 44.3346 30.6882 44.2958 30.9634 44.2625C31.1002 44.2459 31.2387 44.2311 31.3754 44.2182L31.5787 44.2015C31.6452 44.196 31.7154 44.1923 31.7727 44.1886L31.6895 42.9268L31.6877 42.9305Z" fill="#E4F1DD"/>
<path d="M65.0165 59.5395C67.1596 56.2565 70.2043 50.7675 71.8301 43.4015C73.3229 36.6322 74.9727 29.1572 70.9692 21.8115C66.8418 14.2405 57.7558 8.72564 51.3874 9.97641C51.3874 9.97641 51.2655 10.0004 44.0713 11.9126V38.3079L65.0165 59.5395Z" fill="#529342"/>
<path d="M59.206 30.0959L54.9734 54.6622L66.0196 58.2482L65.6372 27.7163L59.206 30.0959Z" fill="#437339"/>
<path d="M64.0836 45.4451C64.0836 45.4451 62.9714 28.3741 54.7943 26.8315L53.2166 19.8738L54.58 9.7605C56.1892 9.95818 58.5836 10.4348 61.1904 11.7207C67.4886 14.8264 70.2247 20.2728 70.9693 21.8099C72.9997 26.0038 73.0181 29.4568 73.0496 35.0547C73.0496 35.0547 73.1345 50.838 65.8055 57.9952C65.5579 58.2354 65.1939 58.5513 64.8318 58.4682C63.3335 58.1264 63.5885 51.4015 64.0836 45.4433V45.4451Z" fill="url(#paint19_linear_1866_249)"/>
<path d="M43.3545 23.3175C43.3785 27.8845 43.4025 32.4515 43.4265 37.0167C45.3387 35.0085 47.2527 33.0003 49.1649 30.992L52.3925 22.8149C49.3792 22.9831 46.3678 23.1493 43.3545 23.3175Z" fill="white"/>
<path d="M53.1388 16.1602C53.1388 16.1602 53.1425 16.1602 53.1481 16.1602H53.1666L53.2054 16.1657L53.2903 16.1731C53.3476 16.1786 53.4067 16.186 53.4677 16.1934C53.5859 16.2082 53.7079 16.2248 53.8298 16.2433C54.0737 16.2802 54.3176 16.3227 54.5633 16.3708C55.0529 16.4668 55.5425 16.5851 56.0265 16.72C56.9946 16.9915 57.9461 17.337 58.8606 17.7564L59.2024 17.9153L59.5405 18.0834C59.6532 18.1388 59.764 18.198 59.8749 18.2589C59.9857 18.3199 60.0984 18.3753 60.2056 18.44C60.4236 18.5656 60.6416 18.6894 60.854 18.8243L61.0148 18.924L61.0942 18.9739L61.1718 19.0256L61.484 19.2344C61.5893 19.3028 61.6891 19.3785 61.7907 19.4524C61.8923 19.5263 61.9958 19.5965 62.0956 19.6741C62.2914 19.8293 62.4946 19.979 62.6849 20.1434L62.9731 20.3854L63.2521 20.6385C63.4405 20.8029 63.6142 20.9858 63.7953 21.1595C65.2105 22.5858 66.3282 24.3077 67.1042 26.1903C67.4921 27.1325 67.797 28.1135 68.0279 29.1167L68.111 29.4936C68.1388 29.6193 68.1683 29.7449 68.1886 29.8724L68.3217 30.6354L68.4233 31.4058L68.4491 31.5979L68.4658 31.7919L68.5009 32.1799L68.536 32.5679C68.5434 32.6972 68.5489 32.8284 68.5563 32.9577L68.5766 33.3475C68.5822 33.4769 68.5932 33.608 68.5914 33.7392L68.6006 34.5225C68.6006 34.5872 68.6025 34.6537 68.6006 34.7184L68.5951 34.9142L68.5859 35.3059C68.5803 35.8287 68.5378 36.3534 68.5083 36.8763C68.5027 37.0074 68.4861 37.1386 68.475 37.2679L68.4381 37.6596C68.4122 37.922 68.3937 38.1843 68.3549 38.4448C68.1037 40.5343 67.688 42.6128 67.1577 44.6635C66.6275 46.7161 65.9809 48.741 65.2566 50.74C64.5306 52.739 63.7269 54.7103 62.8678 56.6612C63.8193 54.7546 64.7209 52.8221 65.5449 50.8527C66.3688 48.8832 67.1171 46.8787 67.7545 44.8335C68.39 42.7883 68.9147 40.7025 69.275 38.576C69.3267 38.3118 69.3581 38.0439 69.3988 37.776L69.456 37.3751C69.4745 37.2421 69.4967 37.109 69.5096 36.9742C69.5669 36.4366 69.6371 35.9008 69.6685 35.3595L69.6981 34.9549L69.7128 34.7516C69.7165 34.6833 69.7184 34.6168 69.7202 34.5484L69.7498 33.7337C69.7572 33.5988 69.7535 33.4621 69.7535 33.3254V32.9171C69.7535 32.7803 69.7535 32.6455 69.7516 32.5088L69.735 32.1005L69.7184 31.6922L69.7091 31.4871L69.6925 31.282L69.6242 30.4636L69.5225 29.647C69.5078 29.5103 69.4819 29.3754 69.4597 29.2405L69.3914 28.8341C69.1974 27.7514 68.9203 26.6762 68.5471 25.6286C67.8025 23.5354 66.6552 21.5549 65.1476 19.8792C64.9555 19.6741 64.7707 19.4617 64.5675 19.2658L64.2682 18.9665L63.9578 18.6783C63.7546 18.4825 63.5366 18.3051 63.3223 18.1204C63.2151 18.028 63.1043 17.943 62.9934 17.8543C62.8826 17.7675 62.7754 17.677 62.6609 17.5938L62.321 17.3426L62.236 17.2797L62.1491 17.2188L61.9755 17.0987C61.7464 16.9361 61.5081 16.7846 61.2716 16.6331C61.1533 16.5555 61.0314 16.4872 60.9113 16.4133C60.7912 16.3412 60.6711 16.2673 60.5473 16.199L60.1797 15.992L59.8065 15.7962C58.8088 15.2789 57.7705 14.8429 56.7045 14.4863C56.1706 14.309 55.6311 14.1501 55.0806 14.0134C54.8053 13.945 54.5282 13.8822 54.2473 13.8268C54.1069 13.799 53.9647 13.7713 53.8206 13.7473C53.7485 13.7344 53.6765 13.7233 53.6026 13.7122L53.4899 13.6956L53.4307 13.6882L53.3605 13.679L53.1333 16.1509L53.1388 16.1602Z" fill="url(#paint20_linear_1866_249)"/>
<path d="M64.7246 57.8437L64.8502 57.9694C67.6991 53.3654 69.7221 48.3974 70.8713 43.1875C72.377 36.3609 73.9344 29.3016 70.1064 22.2792C68.2183 18.8151 65.0849 15.5875 61.5099 13.4241C58.6666 11.7041 55.755 10.7822 53.2682 10.7822C52.8932 10.7822 52.5274 10.8043 52.1745 10.845C51.2581 10.3868 50.3436 9.92862 49.4272 9.47228C51.1214 9.02519 51.175 9.0141 51.1972 9.00856C52.8932 8.67601 54.7776 8.76469 56.7951 9.27645C58.6925 9.7568 60.6213 10.5863 62.5279 11.741C64.4216 12.8865 66.1823 14.2869 67.7656 15.8998C69.4136 17.581 70.7807 19.41 71.832 21.337C76.011 29.006 74.3002 36.7637 72.789 43.6087C71.5013 49.4431 69.1623 54.9819 65.8387 60.0737L65.1717 61.0953L63.6549 59.5582L64.7228 57.84L64.7246 57.8437Z" fill="url(#paint21_linear_1866_249)"/>
<path d="M53.9702 11.4104C53.9702 11.4104 53.9887 11.4326 54.0238 11.4751C54.4616 12.0182 57.486 15.8814 57.9516 19.8387L55.1175 20.7717L56.8394 23.9993L46.582 34.3638C48.8286 28.7086 51.077 23.0552 53.3236 17.4L53.9684 11.4104H53.9702Z" fill="url(#paint22_linear_1866_249)"/>
<path d="M48.6291 32.6917L57.5285 24.0879L55.6903 21.0395L58.7091 20.1712L58.5816 19.7222C56.6935 13.0915 54.5725 11.5008 54.4838 11.438L53.937 12.1973L53.9333 12.1936C53.9518 12.2084 55.8103 13.6624 57.5507 19.5301L54.2584 20.4778L56.3424 23.9327L47.9788 32.0174L48.6291 32.6899V32.6917Z" fill="#3B6F36"/>
<path d="M60.6139 50.2004C60.6693 50.1339 60.7137 50.0766 60.7617 50.0157L60.8984 49.8364C60.9889 49.7164 61.0758 49.5963 61.1626 49.4762C61.3344 49.2342 61.5007 48.9903 61.6614 48.7427C61.9829 48.2476 62.284 47.7414 62.5649 47.2259C63.1265 46.1932 63.6106 45.1179 63.9967 44.0076C64.1925 43.4533 64.3588 42.8898 64.5029 42.3189C64.6452 41.7481 64.7597 41.1716 64.8447 40.5897C64.9297 40.0077 64.9814 39.422 65.0017 38.8345C65.022 38.247 65.0091 37.6595 64.9592 37.0757C64.8595 35.9062 64.6193 34.7515 64.2406 33.6486C63.8637 32.5438 63.3501 31.4907 62.7238 30.5152C62.4097 30.0275 62.0716 29.5564 61.7039 29.1093C61.3381 28.6622 60.9483 28.2335 60.5363 27.8308C59.7142 27.0216 58.8089 26.3029 57.8445 25.6821C58.7793 26.3472 59.6458 27.1047 60.4236 27.9416C60.8134 28.3592 61.1774 28.7989 61.5173 29.2552C61.8573 29.7115 62.1695 30.1882 62.454 30.6796C63.023 31.6625 63.4738 32.7082 63.7898 33.7927C64.1075 34.8753 64.2867 35.9949 64.3292 37.1145C64.3514 37.6743 64.3385 38.2359 64.2941 38.7957C64.2479 39.3537 64.174 39.9098 64.0687 40.4603C63.9616 41.0109 63.8286 41.5541 63.6678 42.0917C63.5052 42.6275 63.3223 43.1577 63.1117 43.6769C62.6942 44.717 62.188 45.7202 61.6079 46.6772C61.3178 47.1557 61.0093 47.6231 60.6859 48.0776C60.5234 48.3049 60.3571 48.5266 60.1853 48.7446C60.1003 48.8536 60.0135 48.9607 59.9248 49.066L59.7936 49.2231C59.7511 49.273 59.7031 49.3265 59.6643 49.369L60.6157 50.2023L60.6139 50.2004Z" fill="#E4F1DD"/>
<path d="M61.9773 59.8131C61.1718 63.6504 59.4444 69.6843 55.3836 76.0435C51.6535 81.8871 47.5335 88.3386 39.5079 90.7016C31.2367 93.1366 20.9128 90.6111 17.2935 85.2237C17.2935 85.2237 17.2233 85.1203 13.4895 78.6817C15.6197 77.9686 18.0325 76.9247 20.5137 75.3673C28.4525 70.3901 32.2657 63.1996 33.9026 59.4436C43.2602 59.5674 52.6179 59.6893 61.9755 59.8131H61.9773Z" fill="url(#paint23_radial_1866_249)"/>
<path d="M37.0488 76.5256L51.428 56.1624L61.7759 61.437L39.9143 82.7554L37.0488 76.5256Z" fill="#8E8333"/>
<path d="M51.3523 69.1207C51.3523 69.1207 38.4955 80.4053 31.6228 75.7144L25.587 79.5185L19.3997 87.6327C20.6763 88.6304 22.7067 89.9864 25.4613 90.9213C32.1105 93.1789 37.8969 91.2612 39.5098 90.7014C43.9105 89.1717 46.3659 86.7441 50.3473 82.807C50.3473 82.807 61.5672 71.7072 61.4471 61.4628C61.4434 61.1173 61.4083 60.6388 61.0924 60.4392C59.7899 59.6208 55.2155 64.5573 51.3542 69.1207H51.3523Z" fill="url(#paint24_linear_1866_249)"/>
<path d="M22.1191 71.1807C25.3615 67.9661 28.6057 64.7514 31.8481 61.5349C31.5544 64.0808 31.2588 66.6266 30.965 69.1725L27.0834 76.8544C25.428 74.9626 23.7745 73.0726 22.1191 71.1807Z" fill="white"/>
<path d="M22.9062 82.0885C22.9062 82.0885 22.9081 82.0903 22.9136 82.0958L22.9284 82.1088L22.958 82.1346L23.0245 82.1882C23.0707 82.2252 23.115 82.2621 23.163 82.2991C23.2573 82.373 23.3552 82.4469 23.4531 82.5208C23.6508 82.6667 23.854 82.8108 24.0628 82.9494C24.4766 83.2265 24.9052 83.4907 25.345 83.7364C26.2225 84.2279 27.1389 84.6565 28.0811 85.0075L28.4358 85.1368L28.7942 85.2551C28.9125 85.2957 29.0344 85.3308 29.1545 85.3678C29.2746 85.4029 29.3947 85.4417 29.5166 85.4749C29.7586 85.5396 30.0025 85.608 30.2464 85.6615L30.4293 85.704L30.5217 85.7262L30.614 85.7447L30.9835 85.8186C31.1073 85.8444 31.2311 85.8611 31.3549 85.8814C31.4787 85.8999 31.6025 85.9239 31.7262 85.9387C31.9757 85.9682 32.2232 86.007 32.4745 86.0236L32.8495 86.0569L33.2246 86.0754C33.4758 86.092 33.7252 86.0865 33.9765 86.0902C35.9847 86.0828 37.993 85.656 39.8738 84.8727C40.8141 84.481 41.7231 84.0025 42.597 83.4556L42.9221 83.2468C43.0311 83.1766 43.1401 83.1101 43.2455 83.0325L43.8792 82.5854L44.4962 82.1125L44.6496 81.9942L44.7992 81.8686L45.0985 81.6192L45.3978 81.3698C45.4957 81.2829 45.5918 81.1961 45.6879 81.1074L45.9779 80.8451C46.074 80.7564 46.1738 80.6733 46.2643 80.579L46.8241 80.0322C46.8703 79.986 46.9183 79.9417 46.9645 79.8955L47.0994 79.7532L47.3691 79.4687C47.7367 79.0955 48.0748 78.6946 48.4259 78.3029C48.5145 78.2068 48.5958 78.1015 48.679 78.0018L48.9302 77.6988C49.0965 77.4956 49.2683 77.296 49.4272 77.0854C50.7279 75.4282 51.9029 73.6675 52.9781 71.8422C54.0534 70.0168 55.0289 68.1268 55.9304 66.2017C56.8302 64.2748 57.656 62.3109 58.4283 60.3267C57.7539 62.3478 57.0223 64.3524 56.215 66.3274C55.4058 68.3024 54.5171 70.2496 53.5213 72.1452C52.5255 74.0407 51.4188 75.8864 50.1718 77.6452C50.0203 77.8688 49.854 78.0812 49.6933 78.2974L49.4512 78.6225C49.3699 78.7297 49.2924 78.8405 49.2055 78.944C48.8656 79.3634 48.5367 79.7938 48.1746 80.1985L47.9086 80.507L47.7755 80.6603C47.7312 80.7102 47.6832 80.7601 47.637 80.81L47.0827 81.4067C46.9922 81.5083 46.8924 81.6007 46.7982 81.6986L46.51 81.9868C46.4139 82.0829 46.3179 82.179 46.2199 82.2751L45.9188 82.5522L45.6177 82.8293L45.4662 82.9679L45.3091 83.1009L44.6828 83.6311L44.0343 84.1373C43.9272 84.2242 43.8145 84.3018 43.7018 84.3812L43.3655 84.6214C42.4621 85.2495 41.507 85.8149 40.5019 86.2915C38.4955 87.2467 36.284 87.8342 34.0319 87.9524C33.7511 87.9617 33.4684 87.982 33.1876 87.9765H32.7645L32.3433 87.9617C32.0606 87.9561 31.7817 87.9266 31.5008 87.9081C31.3604 87.897 31.22 87.8785 31.0815 87.8638C30.9411 87.8471 30.8006 87.8361 30.6621 87.812L30.2445 87.7511L30.1392 87.7363L30.0358 87.7178L29.8289 87.6809C29.5517 87.6347 29.2764 87.5719 29.0012 87.5127C28.8626 87.4832 28.7277 87.4462 28.591 87.413C28.4543 87.3797 28.3176 87.3465 28.1827 87.3058L27.7763 87.1913L27.3735 87.0656C26.302 86.7257 25.26 86.2989 24.2531 85.7983C23.7506 85.547 23.2554 85.2773 22.7714 84.9853C22.5293 84.8394 22.2892 84.6879 22.0508 84.529C21.9308 84.4496 21.8125 84.3683 21.6924 84.2833C21.6333 84.2408 21.5723 84.1983 21.5132 84.154L21.4208 84.0856L21.3728 84.0487L21.3174 84.0043L22.9044 82.0958L22.9062 82.0885Z" fill="url(#paint25_linear_1866_249)"/>
<path d="M60.5714 60.807H60.7488C59.5073 66.0761 57.4251 71.0182 54.5541 75.515C50.7926 81.4067 46.9017 87.4998 39.2309 89.7593C35.4453 90.8733 30.9485 90.9398 26.8914 89.9422C23.6638 89.1477 20.9535 87.7418 19.1947 85.983C18.9305 85.7188 18.6866 85.4453 18.4667 85.1645C17.495 84.8412 16.525 84.5179 15.5532 84.1927C16.4345 85.7077 16.464 85.752 16.4788 85.7723C17.4432 87.2079 18.8381 88.4753 20.6265 89.5413C22.3077 90.5426 24.2587 91.3204 26.4221 91.8525C28.5708 92.3809 30.8062 92.6377 33.0676 92.6155C35.4213 92.5915 37.6827 92.2663 39.787 91.6456C48.1654 89.1792 52.4406 82.4819 56.2132 76.5736C59.4278 71.5391 61.691 65.9671 62.9399 60.0162L63.1912 58.8228L61.0315 58.8375L60.5714 60.807Z" fill="url(#paint26_linear_1866_249)"/>
<path d="M20.135 86.0348C20.135 86.0348 20.1646 86.033 20.2181 86.0256C20.911 85.9517 25.7828 85.3587 28.9088 82.8885L27.5657 80.2263L31.0649 79.1603L31.1406 64.5779C28.7315 70.1647 26.3223 75.7535 23.9132 81.3403C22.6532 82.9033 21.395 84.4681 20.135 86.0311V86.0348Z" fill="url(#paint27_linear_1866_249)"/>
<path d="M31.4068 67.2104L31.6156 79.5869L28.1607 80.4423L29.6812 83.1914L29.2729 83.4186C23.2482 86.7737 20.6266 86.3968 20.5176 86.3802L20.6672 85.4564H20.6617C20.6857 85.4583 23.0283 85.7446 28.4083 82.8256L26.7511 79.8289L30.6678 78.859L30.472 67.2289L31.4086 67.2123L31.4068 67.2104Z" fill="#8E8432"/>
<path d="M52.2612 63.305C52.2538 63.3899 52.2446 63.4638 52.2353 63.5396L52.2058 63.7631C52.1854 63.9109 52.1614 64.0587 52.1374 64.2047C52.0875 64.4966 52.0339 64.7867 51.9711 65.0767C51.8473 65.6531 51.7032 66.224 51.537 66.7875C51.2044 67.9145 50.785 69.0175 50.2751 70.0761C50.022 70.6063 49.7412 71.1236 49.44 71.628C49.1371 72.1323 48.81 72.6201 48.459 73.0912C48.108 73.5623 47.7293 74.0131 47.3283 74.4436C46.9274 74.8741 46.5025 75.2787 46.0536 75.6574C45.1575 76.413 44.1691 77.0597 43.1216 77.5714C42.074 78.085 40.9655 78.4675 39.833 78.7132C39.2658 78.837 38.6931 78.9293 38.1185 78.9848C37.5439 79.042 36.9657 79.0697 36.3893 79.0642C35.2364 79.055 34.0873 78.9238 32.9658 78.6799C34.0965 78.8721 35.2456 78.9497 36.3874 78.9053C36.9583 78.885 37.5273 78.8314 38.0908 78.7483C38.6543 78.667 39.2122 78.5506 39.761 78.4046C40.8584 78.1127 41.917 77.6915 42.9073 77.1483C43.8975 76.607 44.8157 75.9438 45.6379 75.1807C46.0499 74.8002 46.4378 74.3937 46.8 73.9669C47.1621 73.5402 47.502 73.0949 47.8161 72.6312C48.1302 72.1675 48.4202 71.6871 48.6863 71.1957C48.9505 70.7024 49.1962 70.198 49.4142 69.6826C49.8539 68.6516 50.2049 67.5838 50.4728 66.4975C50.6077 65.9543 50.7185 65.4056 50.8109 64.855C50.8571 64.5797 50.8959 64.3045 50.9291 64.0292C50.9458 63.8925 50.9605 63.7539 50.9735 63.6172L50.9901 63.414C50.9956 63.3475 50.9993 63.2772 51.003 63.22L52.2649 63.3031L52.2612 63.305Z" fill="#E4F1DD"/>
<path d="M31.6823 66.7283C33.4873 70.209 36.7722 75.5576 42.3886 80.5939C47.5505 85.2219 53.2501 90.3321 61.6137 90.4559C70.2361 90.5833 79.5032 85.3808 81.5447 79.2193C81.5447 79.2193 81.5835 79.1011 83.4531 71.8958L60.4646 58.9226L31.6804 66.7283H31.6823Z" fill="url(#paint28_linear_1866_249)"/>
<path d="M60.1818 76.1396L40.8661 60.3804L32.314 68.2378L59.0917 82.9107L60.1818 76.1396Z" fill="#005D96"/>
<path d="M44.4153 72.8435C44.4153 72.8435 59.8291 80.265 65.1905 73.9022L72.0245 75.9474L80.1627 82.1051C79.2002 83.4094 77.6076 85.2588 75.2059 86.8994C69.4065 90.8586 63.3172 90.5648 61.6138 90.4577C56.9636 90.1658 53.9484 88.4845 49.0562 85.7595C49.0562 85.7595 35.2683 78.0775 32.6374 68.1749C32.5488 67.8423 32.4545 67.3694 32.704 67.0941C33.7386 65.956 39.4695 69.4848 44.4153 72.8435Z" fill="url(#paint29_linear_1866_249)"/>
<path d="M73.8755 65.666C69.8867 63.4416 65.8979 61.219 61.9092 58.9946C62.7184 61.6476 63.5276 64.3007 64.3368 66.9537L69.8719 73.7839C71.2058 71.0773 72.5416 68.3726 73.8773 65.666H73.8755Z" fill="white"/>
<path d="M75.2981 77.7043C75.2981 77.7043 75.2981 77.7062 75.2926 77.7117L75.2815 77.7265L75.2593 77.7597L75.2113 77.8299C75.178 77.878 75.1429 77.926 75.1078 77.974C75.0376 78.0701 74.9637 78.168 74.8861 78.2641C74.7346 78.4581 74.5776 78.6502 74.415 78.8405C74.0898 79.2193 73.7481 79.5888 73.3915 79.9435C72.6783 80.6529 71.9116 81.3106 71.095 81.9018L70.7883 82.1217L70.4761 82.3323C70.3727 82.4044 70.2655 82.4709 70.1602 82.5374C70.053 82.6039 69.9496 82.6741 69.8406 82.7369C69.6244 82.8644 69.4083 82.9937 69.1866 83.112L69.0221 83.2025L68.939 83.2487L68.8559 83.2912L68.5196 83.4611C68.4088 83.5203 68.2924 83.5683 68.1797 83.6219C68.0651 83.6736 67.9524 83.729 67.836 83.7771C67.6032 83.8713 67.3741 83.9748 67.1377 84.0597L66.7848 84.1909L66.4282 84.3091C66.1917 84.3923 65.9479 84.4551 65.7077 84.5253C63.7697 85.0555 61.7226 85.1849 59.6996 84.9336C58.689 84.8098 57.684 84.5918 56.6974 84.2999L56.3279 84.1854C56.2041 84.1466 56.0803 84.1115 55.9602 84.0653L55.2305 83.8048L54.51 83.5147L54.3289 83.4427L54.1515 83.3632L53.7968 83.2025L53.4421 83.0418C53.3257 82.9845 53.2093 82.9254 53.0929 82.8681L52.7437 82.6926C52.6273 82.6335 52.5091 82.578 52.3964 82.5134L51.7091 82.1365C51.6519 82.1051 51.5946 82.0737 51.5373 82.0423L51.3692 81.9406L51.0329 81.7393C50.5785 81.4769 50.1443 81.1832 49.7027 80.9005C49.5919 80.8303 49.4866 80.7527 49.3776 80.6788L49.0543 80.4534C48.84 80.3019 48.6201 80.156 48.4113 79.9952C46.7153 78.7482 45.108 77.3662 43.5838 75.8956C42.0577 74.425 40.6112 72.8675 39.2274 71.2528C37.8436 69.6381 36.5208 67.9679 35.2441 66.2627C36.4358 68.0289 37.6773 69.7637 38.9872 71.4487C40.2971 73.1336 41.6753 74.7705 43.1441 76.3316C44.6129 77.8909 46.1722 79.3726 47.846 80.7324C48.0511 80.9079 48.2691 81.0668 48.4815 81.233L48.8012 81.4806C48.9083 81.5619 49.0136 81.6469 49.1245 81.7245C49.5642 82.0386 49.9965 82.3619 50.4528 82.6556L50.7909 82.881L50.9609 82.9937C51.0182 83.0307 51.0754 83.0658 51.1346 83.1009L51.8292 83.5277C51.9438 83.6016 52.0639 83.6644 52.1821 83.7309L52.5387 83.9304C52.6569 83.9969 52.7751 84.0653 52.8952 84.1299L53.2592 84.3165L53.6231 84.5031L53.8061 84.5955L53.9927 84.6823L54.739 85.026L55.5002 85.3382C55.6258 85.3936 55.757 85.4361 55.8863 85.4842L56.2743 85.6246C57.3126 85.9885 58.3842 86.2749 59.4797 86.4652C61.669 86.8458 63.9581 86.8199 66.1585 86.3303C66.4319 86.2638 66.709 86.2065 66.9788 86.1271L67.3852 86.0144L67.788 85.8869C68.0577 85.8056 68.3201 85.7022 68.5861 85.6079C68.7191 85.5599 68.8485 85.5045 68.9796 85.4528C69.109 85.3992 69.242 85.3493 69.3695 85.2902L69.7556 85.1184L69.8517 85.0759L69.9459 85.0297L70.1362 84.9373C70.3911 84.8172 70.6387 84.6842 70.8881 84.553C71.0137 84.4884 71.1338 84.4163 71.2558 84.3479C71.3777 84.2796 71.5015 84.2094 71.6197 84.1355L71.98 83.9175L72.3347 83.6884C73.2751 83.0732 74.1656 82.384 75.0007 81.6303C75.4182 81.2534 75.821 80.8599 76.2108 80.4479C76.4048 80.2428 76.5969 80.0322 76.7835 79.8142C76.8777 79.7052 76.9701 79.5962 77.0625 79.4816C77.1087 79.4262 77.1549 79.3671 77.201 79.308L77.2713 79.2174L77.3082 79.1694L77.3507 79.1121L75.3092 77.7006L75.2981 77.7043Z" fill="url(#paint30_linear_1866_249)"/>
<path d="M33.3042 67.3085L33.1324 67.3547C35.7429 72.0973 39.074 76.3022 43.0461 79.8623C48.2505 84.5291 53.6323 89.3548 61.6302 89.4731C65.5746 89.5303 69.9255 88.3886 73.5669 86.3397C76.4638 84.7084 78.6956 82.6281 79.9187 80.4609C80.1034 80.1339 80.2642 79.8051 80.4009 79.4762C81.2489 78.9035 82.0987 78.3308 82.9467 77.7599C82.5033 79.4559 82.4867 79.5076 82.4793 79.5298C81.9362 81.1722 80.9311 82.7666 79.4938 84.2723C78.1432 85.6875 76.4731 86.9605 74.5295 88.0542C72.6007 89.1405 70.5167 89.9867 68.333 90.5723C66.0605 91.182 63.7936 91.4739 61.5988 91.4407C52.8656 91.3113 46.9499 86.0072 41.7307 81.3293C37.2819 77.3405 33.6072 72.5813 30.8082 67.1829L30.2466 66.1002L32.3306 65.5349L33.3024 67.3085H33.3042Z" fill="url(#paint31_linear_1866_249)"/>
<path d="M79.0265 80.7637C79.0265 80.7637 78.9988 80.7693 78.9434 80.7785C78.2561 80.893 73.4046 81.6283 69.7299 80.0894L70.31 77.1629L66.6538 77.0761L62.6687 63.0498C66.4893 67.7868 70.3081 72.522 74.1288 77.259C75.762 78.4285 77.3952 79.5961 79.0284 80.7656L79.0265 80.7637Z" fill="url(#paint32_linear_1866_249)"/>
<path d="M63.1194 65.6531L66.238 77.6323L69.7963 77.5307L69.0702 80.5865L69.5247 80.6955C76.2275 82.3102 78.6532 81.2442 78.7548 81.198L78.3632 80.3482H78.3669C78.3447 80.3556 76.1646 81.259 70.199 79.8918L70.9916 76.5589L66.9585 76.6753L64.0265 65.4185L63.1194 65.6549V65.6531Z" fill="#005E98"/>
<path d="M41.9783 67.4858C42.0078 67.567 42.0355 67.6336 42.0651 67.7056L42.1538 67.9125C42.2129 68.0492 42.2757 68.186 42.3385 68.319C42.4642 68.5869 42.5953 68.8529 42.7321 69.1134C43.0055 69.6363 43.2974 70.148 43.6096 70.645C44.2322 71.6427 44.9324 72.5904 45.7084 73.4735C46.0945 73.9151 46.5047 74.3382 46.9296 74.7446C47.3564 75.1492 47.8035 75.5317 48.2672 75.8919C48.7328 76.2522 49.2168 76.5847 49.7175 76.8914C50.2182 77.1981 50.7373 77.4752 51.2712 77.7191C52.3372 78.2068 53.4624 78.5653 54.6097 78.7777C55.757 78.992 56.9265 79.0622 58.0848 78.9957C58.6631 78.9625 59.2395 78.8978 59.8104 78.798C60.3794 78.7001 60.9429 78.5708 61.4972 78.4101C62.6057 78.0923 63.6773 77.6563 64.6915 77.1224C63.6532 77.6101 62.5669 77.9925 61.4565 78.2586C60.9004 78.3916 60.3388 78.4932 59.7753 78.5653C59.21 78.6373 58.6428 78.6743 58.0756 78.6817C56.9412 78.6946 55.8069 78.5727 54.7076 78.3159C53.6083 78.059 52.546 77.6674 51.5484 77.1538C51.0495 76.8988 50.5673 76.6106 50.1018 76.2965C49.638 75.9824 49.1909 75.6444 48.7642 75.2822C48.3374 74.9183 47.9291 74.5358 47.5411 74.1312C47.1531 73.7266 46.7836 73.3073 46.4345 72.8694C45.7343 71.9955 45.1098 71.0607 44.5611 70.0852C44.2858 69.5975 44.0309 69.1005 43.7962 68.5943C43.678 68.3412 43.5671 68.0862 43.46 67.8294C43.4082 67.7019 43.3565 67.5726 43.3066 67.4451L43.2346 67.253C43.2124 67.1902 43.1884 67.1236 43.1718 67.0701L41.9783 67.4895V67.4858Z" fill="#E4F1DD"/>
<path d="M22.7977 86.0073C27.6859 81.1192 28.5264 74.0344 24.675 70.1831C20.8237 66.3317 13.7389 67.1722 8.85076 72.0604C3.96262 76.9485 3.12214 84.0333 6.97349 87.8846C10.8248 91.736 17.9096 90.8955 22.7977 86.0073Z" fill="url(#paint33_radial_1866_249)"/>
<path d="M25.3377 69.5217C26.3889 70.573 27.1482 71.8533 27.5916 73.3239C28.0128 74.7243 28.1329 76.2356 27.9445 77.817C27.5658 81.0132 25.9732 84.1577 23.4606 86.6703C20.948 89.1829 17.8054 90.7755 14.6073 91.1542C13.0259 91.3427 11.5128 91.2226 10.1142 90.8013C8.64358 90.3579 7.36325 89.6005 6.31202 88.5474C5.26079 87.4961 4.50146 86.2158 4.05806 84.7452C3.63683 83.3448 3.51674 81.8335 3.70519 80.2521C4.08393 77.0559 5.67648 73.9114 8.18909 71.3988C10.7017 68.8862 13.8443 67.2936 17.0423 66.9149C18.6238 66.7265 20.1369 66.8465 21.5355 67.2678C23.0061 67.7112 24.2864 68.4687 25.3377 69.5217ZM7.63668 87.2227C11.1174 90.7034 17.6225 89.861 22.1359 85.3456C26.6512 80.8303 27.4937 74.3253 24.013 70.8464C20.5323 67.3657 14.0272 68.2082 9.51375 72.7235C4.99844 77.2388 4.15598 83.7439 7.63668 87.2227Z" fill="url(#paint34_linear_1866_249)"/>
<path d="M11.6439 85.1626C11.6439 85.1626 12.1464 74.763 21.7572 72.3944C21.7572 72.3944 17.6686 66.8002 11.9303 72.1081C6.19191 77.416 10.7109 86.1658 10.7109 86.1658L11.6439 85.1607V85.1626Z" fill="url(#paint35_linear_1866_249)"/>
<path d="M91.9175 79.2361C94.5946 74.4928 91.8844 67.8932 85.8642 64.4954C79.844 61.0976 72.7934 62.1884 70.1163 66.9317C67.4392 71.675 70.1494 78.2747 76.1696 81.6725C82.1898 85.0702 89.2404 83.9794 91.9175 79.2361Z" fill="url(#paint36_radial_1866_249)"/>
<path d="M69.2993 66.4677C70.0309 65.1726 71.06 64.0992 72.3569 63.2771C73.5929 62.4956 75.0173 61.9746 76.5914 61.7307C79.7728 61.2374 83.2277 61.9284 86.3222 63.6743C89.4168 65.4202 91.7927 68.0215 93.0158 70.9997C93.6217 72.474 93.9118 73.9612 93.8804 75.4245C93.8471 76.9597 93.461 78.3953 92.7294 79.6922C91.9978 80.9873 90.9687 82.0607 89.6718 82.8828C88.4358 83.6643 87.0114 84.1853 85.4373 84.4292C82.2559 84.9225 78.801 84.2315 75.7065 82.4856C72.6119 80.7397 70.236 78.1384 69.0129 75.1603C68.4069 73.686 68.1169 72.1987 68.1483 70.7355C68.1816 69.2002 68.5677 67.7647 69.2993 66.4677ZM91.0999 78.7721C93.5183 74.4859 90.9632 68.4446 85.4022 65.3075C79.8412 62.1686 73.349 63.1034 70.9306 67.3896C68.5123 71.6759 71.0674 77.7172 76.6284 80.8543C82.1894 83.9932 88.6815 83.0584 91.0999 78.7721Z" fill="url(#paint37_linear_1866_249)"/>
<path d="M88.1419 70.7283C87.5543 70.3699 83.1296 67.7741 78.1579 69.6364C75.0874 70.7874 73.4172 73.0358 72.8094 73.9559C72.6006 73.5033 71.3443 70.6747 72.6911 68.1806C74.5331 64.7682 79.5066 65.1987 80.3749 65.2966C85.2265 65.8417 87.7964 70.1316 88.1419 70.7283Z" fill="url(#paint38_linear_1866_249)"/>
<path d="M46.3015 25.9722C51.7481 25.9722 56.1634 20.3682 56.1634 13.4553C56.1634 6.54247 51.7481 0.938477 46.3015 0.938477C40.8548 0.938477 36.4395 6.54247 36.4395 13.4553C36.4395 20.3682 40.8548 25.9722 46.3015 25.9722Z" fill="url(#paint39_radial_1866_249)"/>
<path d="M46.3014 26.9071C44.8141 26.9071 43.3731 26.5394 42.0188 25.8115C40.7311 25.1206 39.5764 24.134 38.5917 22.8832C36.6001 20.354 35.5027 17.0063 35.5027 13.4536C35.5027 9.90079 36.6001 6.55126 38.5917 4.02387C39.5783 2.77311 40.7311 1.78839 42.0188 1.09557C43.3731 0.369502 44.8123 0 46.3014 0C47.7905 0 49.2297 0.367654 50.5839 1.09557C51.8716 1.78654 53.0263 2.77311 54.011 4.02387C56.0026 6.55311 57.1001 9.90079 57.1001 13.4536C57.1001 17.0063 56.0026 20.3558 54.011 22.8832C53.0245 24.134 51.8716 25.1187 50.5839 25.8115C49.2297 26.5376 47.7905 26.9071 46.3014 26.9071ZM46.3014 1.87522C41.3796 1.87522 37.3761 7.07041 37.3761 13.4554C37.3761 19.8404 41.3796 25.0356 46.3014 25.0356C51.2231 25.0356 55.2267 19.8404 55.2267 13.4554C55.2267 7.07041 51.2231 1.87522 46.3014 1.87522Z" fill="url(#paint40_linear_1866_249)"/>
<path d="M41.4369 19.1567C41.4369 19.1567 41.9394 8.7571 51.5501 6.38859C51.5501 6.38859 47.4616 0.794338 41.7232 6.10223C35.9849 11.4101 40.5039 20.1599 40.5039 20.1599L41.4369 19.1549V19.1567Z" fill="url(#paint41_linear_1866_249)"/>
<path d="M46.122 73.5253C57.953 73.5253 67.5439 63.9345 67.5439 52.1035C67.5439 40.2725 57.953 30.6816 46.122 30.6816C34.2911 30.6816 24.7002 40.2725 24.7002 52.1035C24.7002 63.9345 34.2911 73.5253 46.122 73.5253Z" fill="#F9F9FA"/>
<path d="M46.1222 29.7966C33.8031 29.7966 23.8154 39.7843 23.8154 52.1034C23.8154 64.4226 33.8031 74.4102 46.1222 74.4102C58.4414 74.4102 68.429 64.4226 68.429 52.1034C68.429 39.7843 58.4414 29.7966 46.1222 29.7966ZM46.1222 73.5271C34.2908 73.5271 24.7004 63.9367 24.7004 52.1053C24.7004 40.2738 34.2908 30.6834 46.1222 30.6834C57.9537 30.6834 67.5441 40.2738 67.5441 52.1053C67.5441 63.9367 57.9537 73.5271 46.1222 73.5271Z" fill="#231F20"/>
<path d="M46.122 30.6816V52.1035H24.7002C24.7002 63.9349 34.2906 73.5253 46.122 73.5253C57.9535 73.5253 67.5439 63.9349 67.5439 52.1035C67.5439 40.2721 57.9535 30.6816 46.122 30.6816Z" fill="url(#paint42_linear_1866_249)"/>
<path d="M41.2207 40.3164H52.6974L52.339 44.501H45.3573L44.9028 48.8519C44.9028 48.8519 51.7164 47.9189 53.3182 53.8254C54.92 59.73 48.9673 62.9835 48.9673 62.9835C48.9673 62.9835 43.301 65.5903 39.2605 63.3419V60.3046C42.8742 61.7493 46.4492 60.881 47.9161 58.6307C48.7013 57.4262 49.0966 55.4937 48.2265 54.1117C47.0256 52.2033 43.5282 51.5289 40.1455 53.491L41.2207 40.3164Z" fill="url(#paint43_radial_1866_249)"/>
<path d="M157.65 29.61V68H149.95V43.03L139.665 68H133.835L123.495 43.03V68H115.795V29.61H124.54L136.75 58.155L148.96 29.61H157.65ZM193.588 52.105C193.588 53.205 193.514 54.195 193.368 55.075H171.093C171.276 57.275 172.046 58.9983 173.403 60.245C174.759 61.4917 176.428 62.115 178.408 62.115C181.268 62.115 183.303 60.8867 184.513 58.43H192.818C191.938 61.3633 190.251 63.7833 187.758 65.69C185.264 67.56 182.203 68.495 178.573 68.495C175.639 68.495 172.999 67.8533 170.653 66.57C168.343 65.25 166.528 63.3983 165.208 61.015C163.924 58.6317 163.283 55.8817 163.283 52.765C163.283 49.6117 163.924 46.8433 165.208 44.46C166.491 42.0767 168.288 40.2433 170.598 38.96C172.908 37.6767 175.566 37.035 178.573 37.035C181.469 37.035 184.054 37.6583 186.328 38.905C188.638 40.1517 190.416 41.93 191.663 44.24C192.946 46.5133 193.588 49.135 193.588 52.105ZM185.613 49.905C185.576 47.925 184.861 46.3483 183.468 45.175C182.074 43.965 180.369 43.36 178.353 43.36C176.446 43.36 174.833 43.9467 173.513 45.12C172.229 46.2567 171.441 47.8517 171.148 49.905H185.613ZM208.173 43.855V58.595C208.173 59.6217 208.411 60.3733 208.888 60.85C209.401 61.29 210.245 61.51 211.418 61.51H214.993V68H210.153C203.663 68 200.418 64.8467 200.418 58.54V43.855H196.788V37.53H200.418V29.995H208.173V37.53H214.993V43.855H208.173ZM218.551 52.655C218.551 49.575 219.156 46.8433 220.366 44.46C221.613 42.0767 223.281 40.2433 225.371 38.96C227.498 37.6767 229.863 37.035 232.466 37.035C234.74 37.035 236.72 37.4933 238.406 38.41C240.13 39.3267 241.505 40.4817 242.531 41.875V37.53H250.286V68H242.531V63.545C241.541 64.975 240.166 66.1667 238.406 67.12C236.683 68.0367 234.685 68.495 232.411 68.495C229.845 68.495 227.498 67.835 225.371 66.515C223.281 65.195 221.613 63.3433 220.366 60.96C219.156 58.54 218.551 55.7717 218.551 52.655ZM242.531 52.765C242.531 50.895 242.165 49.3 241.431 47.98C240.698 46.6233 239.708 45.5967 238.461 44.9C237.215 44.1667 235.876 43.8 234.446 43.8C233.016 43.8 231.696 44.1483 230.486 44.845C229.276 45.5417 228.286 46.5683 227.516 47.925C226.783 49.245 226.416 50.8217 226.416 52.655C226.416 54.4883 226.783 56.1017 227.516 57.495C228.286 58.8517 229.276 59.8967 230.486 60.63C231.733 61.3633 233.053 61.73 234.446 61.73C235.876 61.73 237.215 61.3817 238.461 60.685C239.708 59.9517 240.698 58.925 241.431 57.605C242.165 56.2483 242.531 54.635 242.531 52.765ZM283.932 29.61V35.825H273.702V68H266.002V35.825H255.772V29.61H283.932ZM297.25 42.26C298.24 40.6467 299.523 39.3817 301.1 38.465C302.713 37.5483 304.547 37.09 306.6 37.09V45.175H304.565C302.145 45.175 300.312 45.7433 299.065 46.88C297.855 48.0167 297.25 49.9967 297.25 52.82V68H289.55V37.53H297.25V42.26ZM309.806 52.655C309.806 49.575 310.411 46.8433 311.621 44.46C312.868 42.0767 314.536 40.2433 316.626 38.96C318.753 37.6767 321.118 37.035 323.721 37.035C325.995 37.035 327.975 37.4933 329.661 38.41C331.385 39.3267 332.76 40.4817 333.786 41.875V37.53H341.541V68H333.786V63.545C332.796 64.975 331.421 66.1667 329.661 67.12C327.938 68.0367 325.94 68.495 323.666 68.495C321.1 68.495 318.753 67.835 316.626 66.515C314.536 65.195 312.868 63.3433 311.621 60.96C310.411 58.54 309.806 55.7717 309.806 52.655ZM333.786 52.765C333.786 50.895 333.42 49.3 332.686 47.98C331.953 46.6233 330.963 45.5967 329.716 44.9C328.47 44.1667 327.131 43.8 325.701 43.8C324.271 43.8 322.951 44.1483 321.741 44.845C320.531 45.5417 319.541 46.5683 318.771 47.925C318.038 49.245 317.671 50.8217 317.671 52.655C317.671 54.4883 318.038 56.1017 318.771 57.495C319.541 58.8517 320.531 59.8967 321.741 60.63C322.988 61.3633 324.308 61.73 325.701 61.73C327.131 61.73 328.47 61.3817 329.716 60.685C330.963 59.9517 331.953 58.925 332.686 57.605C333.42 56.2483 333.786 54.635 333.786 52.765ZM347.082 52.655C347.082 49.575 347.687 46.8433 348.897 44.46C350.143 42.0767 351.83 40.2433 353.957 38.96C356.083 37.6767 358.448 37.035 361.052 37.035C363.032 37.035 364.92 37.475 366.717 38.355C368.513 39.1983 369.943 40.335 371.007 41.765V27.3H378.817V68H371.007V63.49C370.053 64.9933 368.715 66.2033 366.992 67.12C365.268 68.0367 363.27 68.495 360.997 68.495C358.43 68.495 356.083 67.835 353.957 66.515C351.83 65.195 350.143 63.3433 348.897 60.96C347.687 58.54 347.082 55.7717 347.082 52.655ZM371.062 52.765C371.062 50.895 370.695 49.3 369.962 47.98C369.228 46.6233 368.238 45.5967 366.992 44.9C365.745 44.1667 364.407 43.8 362.977 43.8C361.547 43.8 360.227 44.1483 359.017 44.845C357.807 45.5417 356.817 46.5683 356.047 47.925C355.313 49.245 354.947 50.8217 354.947 52.655C354.947 54.4883 355.313 56.1017 356.047 57.495C356.817 58.8517 357.807 59.8967 359.017 60.63C360.263 61.3633 361.583 61.73 362.977 61.73C364.407 61.73 365.745 61.3817 366.992 60.685C368.238 59.9517 369.228 58.925 369.962 57.605C370.695 56.2483 371.062 54.635 371.062 52.765ZM414.662 52.105C414.662 53.205 414.589 54.195 414.442 55.075H392.167C392.35 57.275 393.12 58.9983 394.477 60.245C395.834 61.4917 397.502 62.115 399.482 62.115C402.342 62.115 404.377 60.8867 405.587 58.43H413.892C413.012 61.3633 411.325 63.7833 408.832 65.69C406.339 67.56 403.277 68.495 399.647 68.495C396.714 68.495 394.074 67.8533 391.727 66.57C389.417 65.25 387.602 63.3983 386.282 61.015C384.999 58.6317 384.357 55.8817 384.357 52.765C384.357 49.6117 384.999 46.8433 386.282 44.46C387.565 42.0767 389.362 40.2433 391.672 38.96C393.982 37.6767 396.64 37.035 399.647 37.035C402.544 37.035 405.129 37.6583 407.402 38.905C409.712 40.1517 411.49 41.93 412.737 44.24C414.02 46.5133 414.662 49.135 414.662 52.105ZM406.687 49.905C406.65 47.925 405.935 46.3483 404.542 45.175C403.149 43.965 401.444 43.36 399.427 43.36C397.52 43.36 395.907 43.9467 394.587 45.12C393.304 46.2567 392.515 47.8517 392.222 49.905H406.687ZM427.982 42.26C428.972 40.6467 430.256 39.3817 431.832 38.465C433.446 37.5483 435.279 37.09 437.332 37.09V45.175H435.297C432.877 45.175 431.044 45.7433 429.797 46.88C428.587 48.0167 427.982 49.9967 427.982 52.82V68H420.282V37.53H427.982V42.26ZM468.589 34.56H450.769V43.965C451.539 43.0117 452.639 42.2417 454.069 41.655C455.499 41.0317 457.02 40.72 458.634 40.72C461.567 40.72 463.969 41.3617 465.839 42.645C467.709 43.9283 469.065 45.5783 469.909 47.595C470.752 49.575 471.174 51.7017 471.174 53.975C471.174 58.1917 469.964 61.5833 467.544 64.15C465.16 66.7167 461.75 68 457.314 68C453.134 68 449.797 66.955 447.304 64.865C444.81 62.775 443.399 60.0433 443.069 56.67H450.549C450.879 58.1367 451.612 59.31 452.749 60.19C453.922 61.07 455.407 61.51 457.204 61.51C459.367 61.51 460.999 60.8317 462.099 59.475C463.199 58.1183 463.749 56.3217 463.749 54.085C463.749 51.8117 463.18 50.0883 462.044 48.915C460.944 47.705 459.312 47.1 457.149 47.1C455.609 47.1 454.325 47.485 453.299 48.255C452.272 49.025 451.539 50.0517 451.099 51.335H443.729V27.795H468.589V34.56Z" fill="white"/>
<defs>
<linearGradient id="paint0_linear_1866_249" x1="23.6843" y1="39.4093" x2="43.4545" y2="14.2056" gradientUnits="userSpaceOnUse">
<stop stop-color="#559943"/>
<stop offset="1" stop-color="#A8D38D"/>
</linearGradient>
<linearGradient id="paint1_linear_1866_249" x1="24.1739" y1="45.19" x2="34.3315" y2="15.6521" gradientUnits="userSpaceOnUse">
<stop stop-color="#ABCE9C"/>
<stop offset="0.78" stop-color="#E5F1DE"/>
</linearGradient>
<linearGradient id="paint2_linear_1866_249" x1="30.3685" y1="13.3982" x2="23.2002" y2="56.9957" gradientUnits="userSpaceOnUse">
<stop stop-color="#49803D"/>
<stop offset="1" stop-color="#2F5629"/>
</linearGradient>
<linearGradient id="paint3_linear_1866_249" x1="35.1869" y1="15.9719" x2="40.7147" y2="30.0832" gradientUnits="userSpaceOnUse">
<stop stop-color="#4D8F41"/>
<stop offset="1" stop-color="#ACD488"/>
</linearGradient>
<linearGradient id="paint4_linear_1866_249" x1="46.6547" y1="61.6408" x2="62.629" y2="76.0043" gradientUnits="userSpaceOnUse">
<stop offset="0.29" stop-color="#00699F"/>
<stop offset="1" stop-color="#154270"/>
</linearGradient>
<linearGradient id="paint5_linear_1866_249" x1="47.9498" y1="78.8582" x2="79.6162" y2="74.0289" gradientUnits="userSpaceOnUse">
<stop stop-color="#1E6AA0"/>
<stop offset="1" stop-color="#3997C6"/>
</linearGradient>
<linearGradient id="paint6_linear_1866_249" x1="43.1568" y1="75.5889" x2="73.8747" y2="81.2621" gradientUnits="userSpaceOnUse">
<stop stop-color="#ABCE9C"/>
<stop offset="0.78" stop-color="#E5F1DE"/>
</linearGradient>
<linearGradient id="paint7_linear_1866_249" x1="73.8882" y1="85.8203" x2="32.3961" y2="70.6359" gradientUnits="userSpaceOnUse">
<stop stop-color="#154270"/>
<stop offset="1" stop-color="#00699F"/>
</linearGradient>
<linearGradient id="paint8_linear_1866_249" x1="74.0145" y1="80.3607" x2="64.4432" y2="68.6092" gradientUnits="userSpaceOnUse">
<stop stop-color="#07638F"/>
<stop offset="1" stop-color="#4CA6D0"/>
</linearGradient>
<linearGradient id="paint9_linear_1866_249" x1="52.6315" y1="47.6559" x2="73.2271" y2="53.7641" gradientUnits="userSpaceOnUse">
<stop offset="0.29" stop-color="#00699F"/>
<stop offset="1" stop-color="#154270"/>
</linearGradient>
<linearGradient id="paint10_linear_1866_249" x1="67.9853" y1="39.7569" x2="80.4236" y2="69.276" gradientUnits="userSpaceOnUse">
<stop stop-color="#1E6AA0"/>
<stop offset="1" stop-color="#3997C6"/>
</linearGradient>
<linearGradient id="paint11_linear_1866_249" x1="62.6936" y1="37.3789" x2="83.5881" y2="60.6004" gradientUnits="userSpaceOnUse">
<stop stop-color="#ABCE9C"/>
<stop offset="0.78" stop-color="#E5F1DE"/>
</linearGradient>
<linearGradient id="paint12_linear_1866_249" x1="87.4816" y1="58.2271" x2="52.8448" y2="30.7968" gradientUnits="userSpaceOnUse">
<stop stop-color="#154270"/>
<stop offset="1" stop-color="#00699F"/>
</linearGradient>
<linearGradient id="paint13_linear_1866_249" x1="82.8942" y1="61.1915" x2="67.8712" y2="59.1752" gradientUnits="userSpaceOnUse">
<stop stop-color="#07638F"/>
<stop offset="1" stop-color="#4CA6D0"/>
</linearGradient>
<radialGradient id="paint14_radial_1866_249" cx="0" cy="0" r="1" gradientUnits="userSpaceOnUse" gradientTransform="translate(19.2685 57.4576) scale(20.5036 20.5036)">
<stop stop-color="#A89D36"/>
<stop offset="1" stop-color="#E3D940"/>
</radialGradient>
<linearGradient id="paint15_linear_1866_249" x1="19.129" y1="45.6317" x2="15.2856" y2="77.4317" gradientUnits="userSpaceOnUse">
<stop stop-color="#C4B03F"/>
<stop offset="1" stop-color="#EFE446"/>
</linearGradient>
<linearGradient id="paint16_linear_1866_249" x1="23.5629" y1="41.8902" x2="9.85756" y2="69.9605" gradientUnits="userSpaceOnUse">
<stop stop-color="#F3EDA5"/>
<stop offset="0.78" stop-color="#E5F1DE"/>
</linearGradient>
<linearGradient id="paint17_linear_1866_249" x1="5.46299" y1="68.7507" x2="31.221" y2="32.8526" gradientUnits="userSpaceOnUse">
<stop stop-color="#8B8031"/>
<stop offset="1" stop-color="#8E8235"/>
</linearGradient>
<linearGradient id="paint18_linear_1866_249" x1="10.6873" y1="70.3381" x2="24.5768" y2="64.2686" gradientUnits="userSpaceOnUse">
<stop stop-color="#A99E35"/>
<stop offset="1" stop-color="#EDE242"/>
</linearGradient>
<linearGradient id="paint19_linear_1866_249" x1="67.5865" y1="39.4093" x2="47.8163" y2="14.2056" gradientUnits="userSpaceOnUse">
<stop stop-color="#559943"/>
<stop offset="1" stop-color="#A8D38D"/>
</linearGradient>
<linearGradient id="paint20_linear_1866_249" x1="67.0949" y1="45.19" x2="56.9373" y2="15.6521" gradientUnits="userSpaceOnUse">
<stop stop-color="#ABCE9C"/>
<stop offset="0.78" stop-color="#E5F1DE"/>
</linearGradient>
<linearGradient id="paint21_linear_1866_249" x1="60.9003" y1="13.3982" x2="68.0704" y2="56.9957" gradientUnits="userSpaceOnUse">
<stop stop-color="#49803D"/>
<stop offset="1" stop-color="#2F5629"/>
</linearGradient>
<linearGradient id="paint22_linear_1866_249" x1="56.0838" y1="15.9719" x2="50.5542" y2="30.0832" gradientUnits="userSpaceOnUse">
<stop stop-color="#4D8F41"/>
<stop offset="1" stop-color="#ACD488"/>
</linearGradient>
<radialGradient id="paint23_radial_1866_249" cx="0" cy="0" r="1" gradientUnits="userSpaceOnUse" gradientTransform="translate(37.7343 75.5391) rotate(-90) scale(20.5757 20.5757)">
<stop stop-color="#A89D36"/>
<stop offset="1" stop-color="#E3D940"/>
</radialGradient>
<linearGradient id="paint24_linear_1866_249" x1="49.562" y1="75.8645" x2="17.7607" y2="79.7065" gradientUnits="userSpaceOnUse">
<stop stop-color="#C4B03F"/>
<stop offset="1" stop-color="#EFE446"/>
</linearGradient>
<linearGradient id="paint25_linear_1866_249" x1="53.3035" y1="71.4307" x2="25.2319" y2="85.1347" gradientUnits="userSpaceOnUse">
<stop stop-color="#F3EDA5"/>
<stop offset="0.78" stop-color="#E5F1DE"/>
</linearGradient>
<linearGradient id="paint26_linear_1866_249" x1="26.443" y1="89.5306" x2="62.3398" y2="63.7713" gradientUnits="userSpaceOnUse">
<stop stop-color="#8B8031"/>
<stop offset="1" stop-color="#8E8235"/>
</linearGradient>
<linearGradient id="paint27_linear_1866_249" x1="24.8557" y1="84.3039" x2="30.9238" y2="70.4158" gradientUnits="userSpaceOnUse">
<stop stop-color="#A99E35"/>
<stop offset="1" stop-color="#EDE242"/>
</linearGradient>
<linearGradient id="paint28_linear_1866_249" x1="46.6547" y1="61.6408" x2="62.629" y2="76.0043" gradientUnits="userSpaceOnUse">
<stop offset="0.29" stop-color="#00699F"/>
<stop offset="1" stop-color="#154270"/>
</linearGradient>
<linearGradient id="paint29_linear_1866_249" x1="47.9498" y1="78.8582" x2="79.6162" y2="74.0289" gradientUnits="userSpaceOnUse">
<stop stop-color="#1E6AA0"/>
<stop offset="1" stop-color="#3997C6"/>
</linearGradient>
<linearGradient id="paint30_linear_1866_249" x1="43.1568" y1="75.5889" x2="73.8747" y2="81.2621" gradientUnits="userSpaceOnUse">
<stop stop-color="#ABCE9C"/>
<stop offset="0.78" stop-color="#E5F1DE"/>
</linearGradient>
<linearGradient id="paint31_linear_1866_249" x1="73.8882" y1="85.8203" x2="32.3961" y2="70.6359" gradientUnits="userSpaceOnUse">
<stop stop-color="#154270"/>
<stop offset="1" stop-color="#00699F"/>
</linearGradient>
<linearGradient id="paint32_linear_1866_249" x1="74.0145" y1="80.3607" x2="64.4432" y2="68.6092" gradientUnits="userSpaceOnUse">
<stop stop-color="#07638F"/>
<stop offset="1" stop-color="#4CA6D0"/>
</linearGradient>
<radialGradient id="paint33_radial_1866_249" cx="0" cy="0" r="1" gradientUnits="userSpaceOnUse" gradientTransform="translate(18.008 76.8501) rotate(-135) scale(10.5862 11.7507)">
<stop stop-color="#E9DE4D"/>
<stop offset="0.16" stop-color="#E4D94B"/>
<stop offset="0.35" stop-color="#D6CC47"/>
<stop offset="0.54" stop-color="#C0B641"/>
<stop offset="0.74" stop-color="#A09838"/>
<stop offset="0.9" stop-color="#837C30"/>
</radialGradient>
<linearGradient id="paint34_linear_1866_249" x1="8.83032" y1="85.937" x2="19.1063" y2="75.7942" gradientUnits="userSpaceOnUse">
<stop stop-color="#8D8232"/>
<stop offset="1" stop-color="#82782F"/>
</linearGradient>
<linearGradient id="paint35_linear_1866_249" x1="11.0287" y1="79.5702" x2="18.8898" y2="69.5493" gradientUnits="userSpaceOnUse">
<stop stop-color="#A2D187" stop-opacity="0"/>
<stop offset="1" stop-color="#FDF7C0"/>
</linearGradient>
<radialGradient id="paint36_radial_1866_249" cx="0" cy="0" r="1" gradientUnits="userSpaceOnUse" gradientTransform="translate(81.0173 73.0842) rotate(119.44) scale(10.5862 11.7507)">
<stop stop-color="#65B7DC"/>
<stop offset="0.14" stop-color="#5FB1D6"/>
<stop offset="0.31" stop-color="#4EA0C7"/>
<stop offset="0.51" stop-color="#3485AE"/>
<stop offset="0.73" stop-color="#0E608B"/>
<stop offset="0.8" stop-color="#00517E"/>
</radialGradient>
<linearGradient id="paint37_linear_1866_249" x1="89.607" y1="78.0049" x2="77.0804" y2="70.8246" gradientUnits="userSpaceOnUse">
<stop stop-color="#183F6E"/>
<stop offset="1" stop-color="#0C6BA1"/>
</linearGradient>
<linearGradient id="paint38_linear_1866_249" x1="79.9342" y1="71.0863" x2="77.3819" y2="64.9108" gradientUnits="userSpaceOnUse">
<stop stop-color="#A2D187" stop-opacity="0"/>
<stop offset="1" stop-color="#99CADD"/>
</linearGradient>
<radialGradient id="paint39_radial_1866_249" cx="0" cy="0" r="1" gradientUnits="userSpaceOnUse" gradientTransform="translate(46.3015 13.4868) scale(10.5862 11.7507)">
<stop stop-color="#A2D187"/>
<stop offset="0.76" stop-color="#2A7239"/>
</radialGradient>
<linearGradient id="paint40_linear_1866_249" x1="46.366" y1="3.62666" x2="46.2718" y2="18.0649" gradientUnits="userSpaceOnUse">
<stop stop-color="#4B833E"/>
<stop offset="1" stop-color="#254D25"/>
</linearGradient>
<linearGradient id="paint41_linear_1866_249" x1="40.8217" y1="13.5643" x2="48.6828" y2="3.54158" gradientUnits="userSpaceOnUse">
<stop stop-color="#A2D187" stop-opacity="0"/>
<stop offset="1" stop-color="#CBDEC5"/>
</linearGradient>
<linearGradient id="paint42_linear_1866_249" x1="24.7002" y1="52.1035" x2="67.5439" y2="52.1035" gradientUnits="userSpaceOnUse">
<stop stop-color="#DADBDF"/>
<stop offset="0.1" stop-color="#DADBDF" stop-opacity="0.99"/>
<stop offset="0.18" stop-color="#DBDCE0" stop-opacity="0.94"/>
<stop offset="0.25" stop-color="#DDDEE2" stop-opacity="0.87"/>
<stop offset="0.31" stop-color="#E1E1E5" stop-opacity="0.77"/>
<stop offset="0.37" stop-color="#E5E5E8" stop-opacity="0.64"/>
<stop offset="0.43" stop-color="#EAEAED" stop-opacity="0.48"/>
<stop offset="0.49" stop-color="#F0F0F2" stop-opacity="0.28"/>
<stop offset="0.54" stop-color="#F6F6F8" stop-opacity="0.07"/>
<stop offset="0.55" stop-color="#F9F9FA" stop-opacity="0"/>
</linearGradient>
<radialGradient id="paint43_radial_1866_249" cx="0" cy="0" r="1" gradientUnits="userSpaceOnUse" gradientTransform="translate(46.427 52.2864) scale(9.86385 9.86384)">
<stop stop-color="#F27B2B"/>
<stop offset="0.33" stop-color="#F17D2D"/>
<stop offset="0.57" stop-color="#F18537"/>
<stop offset="0.79" stop-color="#F19447"/>
<stop offset="0.83" stop-color="#F1984C"/>
</radialGradient>
</defs>
</svg>
