<svg width="460" height="83" viewBox="0 0 460 83" fill="none" xmlns="http://www.w3.org/2000/svg">
<path d="M166.63 61H158.93L141.495 34.655V61H133.795V22.555H141.495L158.93 48.955V22.555H166.63V61ZM178.144 26.9C176.788 26.9 175.651 26.4783 174.734 25.635C173.854 24.755 173.414 23.6733 173.414 22.39C173.414 21.1067 173.854 20.0433 174.734 19.2C175.651 18.32 176.788 17.88 178.144 17.88C179.501 17.88 180.619 18.32 181.499 19.2C182.416 20.0433 182.874 21.1067 182.874 22.39C182.874 23.6733 182.416 24.755 181.499 25.635C180.619 26.4783 179.501 26.9 178.144 26.9ZM181.939 30.53V61H174.239V30.53H181.939ZM206.432 30.09C210.062 30.09 212.995 31.245 215.232 33.555C217.469 35.8283 218.587 39.0183 218.587 43.125V61H210.887V44.17C210.887 41.75 210.282 39.8983 209.072 38.615C207.862 37.295 206.212 36.635 204.122 36.635C201.995 36.635 200.309 37.295 199.062 38.615C197.852 39.8983 197.247 41.75 197.247 44.17V61H189.547V30.53H197.247V34.325C198.274 33.005 199.575 31.9783 201.152 31.245C202.765 30.475 204.525 30.09 206.432 30.09ZM229.814 26.9C228.421 26.9 227.266 26.4783 226.349 25.635C225.469 24.755 225.029 23.6733 225.029 22.39C225.029 21.1067 225.469 20.0433 226.349 19.2C227.266 18.32 228.421 17.88 229.814 17.88C231.171 17.88 232.289 18.32 233.169 19.2C234.049 20.0433 234.489 21.1067 234.489 22.39C234.489 23.6733 234.049 24.755 233.169 25.635C232.289 26.4783 231.171 26.9 229.814 26.9ZM233.609 66.005C233.609 69.3783 232.766 71.7983 231.079 73.265C229.429 74.7683 227.046 75.52 223.929 75.52H220.519V68.975H222.719C223.893 68.975 224.718 68.7367 225.194 68.26C225.671 67.82 225.909 67.0867 225.909 66.06V30.53H233.609V66.005ZM239.237 45.655C239.237 42.575 239.842 39.8433 241.052 37.46C242.299 35.0767 243.967 33.2433 246.057 31.96C248.184 30.6767 250.549 30.035 253.152 30.035C255.425 30.035 257.405 30.4933 259.092 31.41C260.815 32.3267 262.19 33.4817 263.217 34.875V30.53H270.972V61H263.217V56.545C262.227 57.975 260.852 59.1667 259.092 60.12C257.369 61.0367 255.37 61.495 253.097 61.495C250.53 61.495 248.184 60.835 246.057 59.515C243.967 58.195 242.299 56.3433 241.052 53.96C239.842 51.54 239.237 48.7717 239.237 45.655ZM263.217 45.765C263.217 43.895 262.85 42.3 262.117 40.98C261.384 39.6233 260.394 38.5967 259.147 37.9C257.9 37.1667 256.562 36.8 255.132 36.8C253.702 36.8 252.382 37.1483 251.172 37.845C249.962 38.5417 248.972 39.5683 248.202 40.925C247.469 42.245 247.102 43.8217 247.102 45.655C247.102 47.4883 247.469 49.1017 248.202 50.495C248.972 51.8517 249.962 52.8967 251.172 53.63C252.419 54.3633 253.739 54.73 255.132 54.73C256.562 54.73 257.9 54.3817 259.147 53.685C260.394 52.9517 261.384 51.925 262.117 50.605C262.85 49.2483 263.217 47.635 263.217 45.765ZM304.617 22.61V28.825H294.387V61H286.687V28.825H276.457V22.61H304.617ZM317.935 35.26C318.925 33.6467 320.209 32.3817 321.785 31.465C323.399 30.5483 325.232 30.09 327.285 30.09V38.175H325.25C322.83 38.175 320.997 38.7433 319.75 39.88C318.54 41.0167 317.935 42.9967 317.935 45.82V61H310.235V30.53H317.935V35.26ZM330.492 45.655C330.492 42.575 331.097 39.8433 332.307 37.46C333.553 35.0767 335.222 33.2433 337.312 31.96C339.438 30.6767 341.803 30.035 344.407 30.035C346.68 30.035 348.66 30.4933 350.347 31.41C352.07 32.3267 353.445 33.4817 354.472 34.875V30.53H362.227V61H354.472V56.545C353.482 57.975 352.107 59.1667 350.347 60.12C348.623 61.0367 346.625 61.495 344.352 61.495C341.785 61.495 339.438 60.835 337.312 59.515C335.222 58.195 333.553 56.3433 332.307 53.96C331.097 51.54 330.492 48.7717 330.492 45.655ZM354.472 45.765C354.472 43.895 354.105 42.3 353.372 40.98C352.638 39.6233 351.648 38.5967 350.402 37.9C349.155 37.1667 347.817 36.8 346.387 36.8C344.957 36.8 343.637 37.1483 342.427 37.845C341.217 38.5417 340.227 39.5683 339.457 40.925C338.723 42.245 338.357 43.8217 338.357 45.655C338.357 47.4883 338.723 49.1017 339.457 50.495C340.227 51.8517 341.217 52.8967 342.427 53.63C343.673 54.3633 344.993 54.73 346.387 54.73C347.817 54.73 349.155 54.3817 350.402 53.685C351.648 52.9517 352.638 51.925 353.372 50.605C354.105 49.2483 354.472 47.635 354.472 45.765ZM367.767 45.655C367.767 42.575 368.372 39.8433 369.582 37.46C370.829 35.0767 372.515 33.2433 374.642 31.96C376.769 30.6767 379.134 30.035 381.737 30.035C383.717 30.035 385.605 30.475 387.402 31.355C389.199 32.1983 390.629 33.335 391.692 34.765V20.3H399.502V61H391.692V56.49C390.739 57.9933 389.4 59.2033 387.677 60.12C385.954 61.0367 383.955 61.495 381.682 61.495C379.115 61.495 376.769 60.835 374.642 59.515C372.515 58.195 370.829 56.3433 369.582 53.96C368.372 51.54 367.767 48.7717 367.767 45.655ZM391.747 45.765C391.747 43.895 391.38 42.3 390.647 40.98C389.914 39.6233 388.924 38.5967 387.677 37.9C386.43 37.1667 385.092 36.8 383.662 36.8C382.232 36.8 380.912 37.1483 379.702 37.845C378.492 38.5417 377.502 39.5683 376.732 40.925C375.999 42.245 375.632 43.8217 375.632 45.655C375.632 47.4883 375.999 49.1017 376.732 50.495C377.502 51.8517 378.492 52.8967 379.702 53.63C380.949 54.3633 382.269 54.73 383.662 54.73C385.092 54.73 386.43 54.3817 387.677 53.685C388.924 52.9517 389.914 51.925 390.647 50.605C391.38 49.2483 391.747 47.635 391.747 45.765ZM435.348 45.105C435.348 46.205 435.274 47.195 435.128 48.075H412.853C413.036 50.275 413.806 51.9983 415.163 53.245C416.519 54.4917 418.188 55.115 420.168 55.115C423.028 55.115 425.063 53.8867 426.273 51.43H434.578C433.698 54.3633 432.011 56.7833 429.518 58.69C427.024 60.56 423.963 61.495 420.333 61.495C417.399 61.495 414.759 60.8533 412.413 59.57C410.103 58.25 408.288 56.3983 406.968 54.015C405.684 51.6317 405.043 48.8817 405.043 45.765C405.043 42.6117 405.684 39.8433 406.968 37.46C408.251 35.0767 410.048 33.2433 412.358 31.96C414.668 30.6767 417.326 30.035 420.333 30.035C423.229 30.035 425.814 30.6583 428.088 31.905C430.398 33.1517 432.176 34.93 433.423 37.24C434.706 39.5133 435.348 42.135 435.348 45.105ZM427.373 42.905C427.336 40.925 426.621 39.3483 425.228 38.175C423.834 36.965 422.129 36.36 420.113 36.36C418.206 36.36 416.593 36.9467 415.273 38.12C413.989 39.2567 413.201 40.8517 412.908 42.905H427.373ZM448.668 35.26C449.658 33.6467 450.941 32.3817 452.518 31.465C454.131 30.5483 455.965 30.09 458.018 30.09V38.175H455.983C453.563 38.175 451.73 38.7433 450.483 39.88C449.273 41.0167 448.668 42.9967 448.668 45.82V61H440.968V30.53H448.668V35.26Z" fill="#FF4200"/>
<path fill-rule="evenodd" clip-rule="evenodd" d="M0 19.8235V30.647L10.74 41.4397C16.647 47.3757 21.48 52.2731 21.48 52.323C21.48 52.373 16.647 52.4137 10.74 52.4137H0V63.2069V74H10.8H21.6V63.177V52.3539L32.3702 63.177L43.1405 74H64.7702H86.4V52.3534V30.7069H97.2H108V19.8534V9H75.6H43.2V19.8058V30.6116L32.3873 19.8058L21.5746 9H10.7873H0V19.8235ZM64.8 41.5C64.8 47.4362 64.7864 52.2931 64.7698 52.2931C64.7531 52.2931 59.9068 47.4362 54 41.5L43.2605 30.7069H54.0302H64.8V41.5Z" fill="#FF4200"/>
</svg>
