<svg width="475" height="95" viewBox="0 0 475 95" fill="none" xmlns="http://www.w3.org/2000/svg">
<path d="M26.2935 59.6284C24.1471 56.3404 21.0979 50.8433 19.4696 43.4662C17.9746 36.6868 16.3223 29.2006 20.3319 21.8439C24.4654 14.2615 33.565 8.73844 39.9429 9.99108C39.9429 9.99108 40.0651 10.0151 47.27 11.9302V38.365L26.2935 59.6284Z" fill="#529342"/>
<path d="M32.1125 30.1407L36.3497 54.7438L25.2869 58.3352L25.6699 27.7576L32.1125 30.1407Z" fill="#437339"/>
<path d="M27.2277 45.5127C27.2277 45.5127 28.3416 28.4162 36.5309 26.8712L38.111 19.9031L36.7455 9.77466C35.1339 9.97264 32.736 10.45 30.1252 11.7378C23.8177 14.8481 21.0774 20.3027 20.3317 21.8421C18.2983 26.0423 18.2798 29.5004 18.2483 35.1068C18.2483 35.1068 18.1632 50.9137 25.5033 58.0816C25.7512 58.3221 26.1157 58.6385 26.4784 58.5553C27.9789 58.213 27.7236 51.478 27.2277 45.5109V45.5127Z" fill="url(#paint0_linear_1866_250)"/>
<path d="M47.9878 23.3519C47.9638 27.9258 47.9397 32.4997 47.9157 37.0717C46.0006 35.0604 44.0837 33.0492 42.1687 31.0379L38.9363 22.8486C41.9541 23.017 44.97 23.1835 47.9878 23.3519Z" fill="white"/>
<path d="M38.1868 16.1844C38.1868 16.1844 38.1831 16.1844 38.1776 16.1844H38.1591L38.1202 16.1899L38.0351 16.1973C37.9777 16.2029 37.9185 16.2103 37.8575 16.2177C37.7391 16.2325 37.6169 16.2491 37.4948 16.2676C37.2506 16.3046 37.0064 16.3472 36.7603 16.3953C36.2699 16.4915 35.7796 16.6099 35.2948 16.745C34.3253 17.017 33.3724 17.363 32.4565 17.783L32.1142 17.9421L31.7756 18.1105C31.6628 18.166 31.5517 18.2252 31.4407 18.2863C31.3297 18.3474 31.2168 18.4029 31.1095 18.4676C30.8912 18.5934 30.6729 18.7174 30.4601 18.8525L30.2991 18.9524L30.2195 19.0023L30.1418 19.0542L29.8291 19.2632C29.7237 19.3317 29.6238 19.4076 29.522 19.4816C29.4202 19.5556 29.3166 19.6259 29.2167 19.7036C29.0206 19.859 28.817 20.0089 28.6265 20.1736L28.3378 20.416L28.0584 20.6694C27.8697 20.8341 27.6958 21.0173 27.5144 21.1912C26.0971 22.6196 24.9777 24.3441 24.2006 26.2295C23.812 27.1732 23.5068 28.1557 23.2755 29.1604L23.1922 29.5378C23.1645 29.6636 23.1348 29.7894 23.1145 29.9171L22.9813 30.6813L22.8795 31.4528L22.8536 31.6453L22.837 31.8396L22.8018 32.2281L22.7666 32.6167C22.7592 32.7462 22.7537 32.8776 22.7463 33.0071L22.7259 33.3975C22.7204 33.527 22.7093 33.6584 22.7111 33.7897L22.7019 34.5743C22.7019 34.639 22.7 34.7056 22.7019 34.7704L22.7074 34.9665L22.7167 35.3588C22.7222 35.8824 22.7648 36.4079 22.7944 36.9315C22.7999 37.0629 22.8166 37.1942 22.8277 37.3238L22.8647 37.716C22.8906 37.9788 22.9091 38.2415 22.948 38.5024C23.1996 40.595 23.6159 42.6766 24.1469 44.7304C24.678 46.7861 25.3256 48.814 26.0509 50.816C26.778 52.818 27.5829 54.7922 28.4433 56.7461C27.4904 54.8366 26.5875 52.9012 25.7622 50.9288C24.937 48.9564 24.1877 46.9489 23.5493 44.9006C22.9128 42.8524 22.3873 40.7634 22.0265 38.6338C21.9747 38.3692 21.9433 38.1009 21.9026 37.8326L21.8452 37.4311C21.8267 37.2979 21.8045 37.1646 21.7915 37.0296C21.7342 36.4911 21.6639 35.9546 21.6324 35.4124L21.6028 35.0072L21.588 34.8037C21.5843 34.7352 21.5825 34.6686 21.5806 34.6002L21.551 33.7842C21.5436 33.6491 21.5473 33.5122 21.5473 33.3753V32.9664C21.5473 32.8294 21.5473 32.6944 21.5492 32.5575L21.5658 32.1485L21.5825 31.7396L21.5917 31.5343L21.6084 31.3289L21.6768 30.5092L21.7786 29.6914C21.7934 29.5545 21.8193 29.4194 21.8415 29.2843L21.91 28.8773C22.1042 27.793 22.3818 26.7161 22.7555 25.667C23.5012 23.5707 24.6502 21.5872 26.16 19.909C26.3525 19.7036 26.5375 19.4908 26.741 19.2947L27.0408 18.9949L27.3516 18.7063C27.5552 18.5102 27.7735 18.3325 27.9881 18.1475C28.0954 18.055 28.2064 17.9699 28.3175 17.8811C28.4285 17.7941 28.5358 17.7035 28.6505 17.6202L28.991 17.3686L29.0761 17.3056L29.163 17.2446L29.337 17.1243C29.5664 16.9615 29.8051 16.8098 30.0419 16.6581C30.1603 16.5803 30.2825 16.5119 30.4027 16.4379C30.523 16.3657 30.6433 16.2917 30.7672 16.2232L31.1354 16.016L31.5092 15.8199C32.5083 15.3018 33.5482 14.8651 34.6158 14.508C35.1505 14.3304 35.6908 14.1713 36.2422 14.0344C36.5179 13.9659 36.7954 13.903 37.0767 13.8475C37.2173 13.8197 37.3598 13.792 37.5041 13.7679C37.5762 13.755 37.6484 13.7439 37.7224 13.7328L37.8353 13.7161L37.8945 13.7087L37.9648 13.6995L38.1924 16.1751L38.1868 16.1844Z" fill="url(#paint1_linear_1866_250)"/>
<path d="M26.5857 57.9301L26.4599 58.0559C23.6068 53.445 21.5808 48.4696 20.4299 43.2519C18.9219 36.4151 17.3621 29.3452 21.1959 22.3123C23.0869 18.8431 26.2249 15.6106 29.8052 13.4439C32.6528 11.7213 35.5688 10.7981 38.0593 10.7981C38.4349 10.7981 38.8013 10.8203 39.1547 10.861C40.0724 10.4021 40.9883 9.94323 41.906 9.48621C40.2093 9.03845 40.1557 9.02734 40.1334 9.02179C38.4349 8.68874 36.5476 8.77756 34.5271 9.29008C32.6269 9.77115 30.6952 10.6019 28.7857 11.7583C26.8892 12.9055 25.1259 14.308 23.5402 15.9233C21.8897 17.6071 20.5205 19.4388 19.4677 21.3687C15.2824 29.0492 16.9958 36.8185 18.5093 43.6737C19.7989 49.5169 22.1414 55.064 25.47 60.1634L26.138 61.1866L27.6571 59.6471L26.5876 57.9264L26.5857 57.9301Z" fill="url(#paint2_linear_1866_250)"/>
<path d="M37.3562 11.427C37.3562 11.427 37.3377 11.4492 37.3026 11.4918C36.8641 12.0357 33.8352 15.9047 33.3689 19.868L36.2072 20.8023L34.4828 24.0348L44.7555 34.4148C42.5056 28.7511 40.2538 23.0893 38.0038 17.4256C37.7892 15.4254 37.5727 13.4271 37.3581 11.427H37.3562Z" fill="url(#paint3_linear_1866_250)"/>
<path d="M42.7054 32.7406L33.7927 24.1239L35.6337 21.071L32.6104 20.2013L32.738 19.7517C34.629 13.1111 36.7531 11.518 36.8419 11.4551L37.3896 12.2155L37.3933 12.2118C37.3748 12.2266 35.5134 13.6828 33.7705 19.5593L37.0677 20.5085L34.9806 23.9685L43.3567 32.0653L42.7054 32.7388V32.7406Z" fill="#3B6F36"/>
<path d="M30.7007 50.2754C30.6452 50.2088 30.6008 50.1515 30.5527 50.0904L30.4158 49.9109C30.3251 49.7907 30.2382 49.6704 30.1512 49.5501C29.9791 49.3078 29.8126 49.0635 29.6516 48.8156C29.3297 48.3197 29.0281 47.8127 28.7469 47.2965C28.1844 46.2622 27.6996 45.1853 27.3129 44.0733C27.1168 43.5182 26.9502 42.9539 26.8059 42.3822C26.6634 41.8104 26.5487 41.2332 26.4636 40.6503C26.3785 40.0675 26.3267 39.4809 26.3063 38.8926C26.286 38.3042 26.2989 37.7158 26.3489 37.1311C26.4488 35.9599 26.6894 34.8035 27.0687 33.6988C27.4461 32.5924 27.9605 31.5377 28.5877 30.5608C28.9023 30.0723 29.2409 29.6005 29.6091 29.1527C29.9754 28.705 30.3658 28.2757 30.7785 27.8723C31.6018 27.0619 32.5085 26.3422 33.4743 25.7205C32.5381 26.3866 31.6703 27.1452 30.8913 27.9833C30.5009 28.4015 30.1364 28.8419 29.796 29.2989C29.4555 29.7559 29.1428 30.2333 28.8579 30.7255C28.288 31.7098 27.8365 32.7571 27.5201 33.8432C27.2019 34.9274 27.0224 36.0487 26.9798 37.17C26.9576 37.7306 26.9706 38.2931 27.015 38.8537C27.0613 39.4125 27.1353 39.9694 27.2407 40.5208C27.348 41.0722 27.4813 41.6162 27.6422 42.1546C27.8051 42.6912 27.9882 43.2222 28.1992 43.7421C28.6173 44.7838 29.1243 45.7885 29.7053 46.747C29.9958 47.2262 30.3048 47.6943 30.6286 48.1495C30.7914 48.3771 30.9579 48.5991 31.13 48.8174C31.2151 48.9266 31.3021 49.0339 31.3909 49.1394L31.5223 49.2967C31.5648 49.3466 31.6129 49.4003 31.6518 49.4428L30.6989 50.2773L30.7007 50.2754Z" fill="#E4F1DD"/>
<path d="M31.7296 66.8282C33.5374 70.3141 36.8271 75.6706 42.452 80.7145C47.6216 85.3494 53.3297 90.4673 61.7059 90.5912C70.3412 90.7189 79.6221 85.5085 81.6667 79.3379C81.6667 79.3379 81.7055 79.2194 83.578 72.0034L60.5551 59.0107L31.7278 66.8282H31.7296Z" fill="url(#paint4_linear_1866_250)"/>
<path d="M60.2718 76.2535L40.9272 60.4707L32.3623 68.3399L59.1802 83.0348L60.2718 76.2535Z" fill="#005D96"/>
<path d="M44.4817 72.9523C44.4817 72.9523 59.9185 80.3849 65.288 74.0125L72.1322 76.0608L80.2826 82.2277C79.3186 83.534 77.7237 85.3862 75.3183 87.0292C69.5103 90.9944 63.4118 90.7002 61.7059 90.5928C57.0487 90.3005 54.0291 88.6167 49.1296 85.8876C49.1296 85.8876 35.321 78.1942 32.6862 68.2767C32.5974 67.9436 32.503 67.47 32.7528 67.1943C33.7889 66.0545 39.5285 69.5885 44.4817 72.9523Z" fill="url(#paint5_linear_1866_250)"/>
<path d="M73.9862 65.7641C69.9914 63.5364 65.9967 61.3105 62.002 59.0828C62.8124 61.7398 63.6228 64.3968 64.4332 67.0537L69.9766 73.8942C71.3125 71.1836 72.6503 68.4748 73.988 65.7641H73.9862Z" fill="white"/>
<path d="M75.4111 77.8208C75.4111 77.8208 75.4111 77.8227 75.4055 77.8282L75.3944 77.843L75.3722 77.8763L75.3241 77.9466C75.2908 77.9947 75.2556 78.0428 75.2205 78.091C75.1502 78.1872 75.0762 78.2852 74.9985 78.3814C74.8467 78.5757 74.6895 78.7682 74.5266 78.9587C74.201 79.338 73.8587 79.7081 73.5016 80.0633C72.7874 80.7738 72.0195 81.4325 71.2017 82.0246L70.8945 82.2448L70.5818 82.4557C70.4782 82.5279 70.3709 82.5945 70.2655 82.6611C70.1581 82.7277 70.0545 82.798 69.9454 82.861C69.7289 82.9886 69.5124 83.1181 69.2904 83.2366L69.1257 83.3272L69.0424 83.3735L68.9592 83.416L68.6224 83.5863C68.5114 83.6455 68.3948 83.6936 68.282 83.7472C68.1672 83.799 68.0544 83.8546 67.9378 83.9027C67.7047 83.997 67.4752 84.1006 67.2384 84.1858L66.885 84.3171L66.5279 84.4355C66.2911 84.5188 66.0468 84.5817 65.8063 84.652C63.8654 85.1831 61.8152 85.3126 59.7892 85.0609C58.7771 84.937 57.7705 84.7186 56.7825 84.4263L56.4124 84.3116C56.2885 84.2727 56.1645 84.2376 56.0442 84.1913L55.3134 83.9304L54.5918 83.6399L54.4105 83.5678L54.2328 83.4882L53.8776 83.3272L53.5223 83.1663C53.4058 83.1089 53.2892 83.0497 53.1726 82.9923L52.8229 82.8165C52.7063 82.7573 52.5879 82.7018 52.4751 82.6371L51.7868 82.2596C51.7294 82.2282 51.672 82.1967 51.6147 82.1653L51.4463 82.0635L51.1096 81.8618C50.6544 81.5991 50.2196 81.3049 49.7774 81.0218C49.6663 80.9515 49.5609 80.8738 49.4517 80.7998L49.1279 80.574C48.9133 80.4223 48.6931 80.2761 48.484 80.1152C46.7855 78.8662 45.1757 77.4822 43.6493 76.0094C42.1209 74.5366 40.6722 72.9768 39.2863 71.3597C37.9005 69.7425 36.5757 68.0699 35.2971 66.3621C36.4905 68.1309 37.7339 69.8683 39.0458 71.5558C40.3576 73.2432 41.7379 74.8826 43.2089 76.4461C44.6799 78.0077 46.2415 79.4916 47.9178 80.8534C48.1232 81.0292 48.3416 81.1883 48.5543 81.3548L48.8744 81.6028C48.9817 81.6842 49.0872 81.7693 49.1982 81.847C49.6386 82.1616 50.0716 82.4854 50.5286 82.7795L50.8672 83.0053L51.0374 83.1181C51.0948 83.1551 51.1521 83.1903 51.2113 83.2255L51.907 83.6529C52.0217 83.7269 52.142 83.7898 52.2604 83.8564L52.6175 84.0562C52.736 84.1228 52.8544 84.1913 52.9746 84.2561L53.3391 84.4429L53.7036 84.6298L53.8868 84.7223L54.0737 84.8093L54.8212 85.1534L55.5835 85.4661C55.7093 85.5217 55.8407 85.5642 55.9702 85.6123L56.3588 85.7529C57.3986 86.1174 58.4718 86.4042 59.569 86.5948C61.7616 86.976 64.0541 86.9501 66.2578 86.4597C66.5316 86.3931 66.8091 86.3358 67.0793 86.2562L67.4863 86.1433L67.8897 86.0157C68.1598 85.9343 68.4226 85.8306 68.689 85.7363C68.8222 85.6882 68.9518 85.6327 69.0831 85.5809C69.2126 85.5272 69.3459 85.4772 69.4735 85.418L69.8602 85.246L69.9565 85.2034L70.0508 85.1571L70.2414 85.0646C70.4967 84.9444 70.7447 84.8111 70.9945 84.6798C71.1203 84.615 71.2405 84.5429 71.3627 84.4744C71.4848 84.4059 71.6087 84.3356 71.7272 84.2616L72.088 84.0433L72.4432 83.8138C73.385 83.1977 74.2768 82.5076 75.1132 81.7526C75.5313 81.3752 75.9347 80.9811 76.3251 80.5685C76.5194 80.3631 76.7118 80.1522 76.8987 79.9338C76.993 79.8247 77.0856 79.7155 77.1781 79.6008C77.2243 79.5453 77.2706 79.4861 77.3168 79.4268L77.3872 79.3362L77.4242 79.2881L77.4667 79.2307L75.4222 77.8171L75.4111 77.8208Z" fill="url(#paint6_linear_1866_250)"/>
<path d="M33.3542 67.4088L33.1821 67.4551C35.7966 72.2047 39.1326 76.416 43.1107 79.9814C48.3229 84.6552 53.7128 89.4882 61.7226 89.6066C65.6729 89.6639 70.0303 88.5205 73.6772 86.4685C76.5784 84.8347 78.8136 82.7513 80.0385 80.5809C80.2235 80.2534 80.3845 79.9241 80.5214 79.5947C81.3707 79.0212 82.2218 78.4476 83.0711 77.8758C82.627 79.5744 82.6103 79.6262 82.6029 79.6484C82.059 81.2933 81.0524 82.8901 79.6129 84.3981C78.2603 85.8154 76.5877 87.0902 74.6412 88.1856C72.7095 89.2735 70.6224 90.1209 68.4354 90.7075C66.1596 91.3181 63.8893 91.6104 61.6911 91.5771C52.9449 91.4476 47.0203 86.1355 41.7933 81.4506C37.3378 77.4558 33.6576 72.6895 30.8545 67.283L30.292 66.1988L32.3791 65.6326L33.3523 67.4088H33.3542Z" fill="url(#paint7_linear_1866_250)"/>
<path d="M79.1448 80.8847C79.1448 80.8847 79.117 80.8903 79.0615 80.8995C78.3732 81.0142 73.5144 81.7506 69.8342 80.2094L70.4152 77.2785L66.7535 77.1916L62.7625 63.1443C66.5888 67.8884 70.4133 72.6306 74.2397 77.3747C75.8753 78.546 77.511 79.7153 79.1466 80.8866L79.1448 80.8847Z" fill="url(#paint8_linear_1866_250)"/>
<path d="M63.2139 65.7511L66.3371 77.7483L69.9008 77.6465L69.1736 80.7069L69.6288 80.816C76.3416 82.4332 78.771 81.3656 78.8727 81.3193L78.4805 80.4682H78.4842C78.462 80.4756 76.2787 81.3804 70.3041 80.0112L71.0979 76.6733L67.0587 76.7898L64.1224 65.5161L63.2139 65.7529V65.7511Z" fill="#005E98"/>
<path d="M42.0413 67.5867C42.0709 67.6681 42.0986 67.7347 42.1282 67.8069L42.217 68.0141C42.2762 68.1511 42.3392 68.288 42.4021 68.4212C42.5279 68.6895 42.6592 68.9559 42.7962 69.2168C43.07 69.7404 43.3624 70.253 43.675 70.7507C44.2986 71.7498 44.9998 72.699 45.777 73.5835C46.1637 74.0257 46.5744 74.4494 47 74.8564C47.4274 75.2617 47.8752 75.6447 48.3396 76.0055C48.8059 76.3663 49.2906 76.6993 49.7921 77.0065C50.2935 77.3136 50.8134 77.5912 51.3481 77.8354C52.4157 78.3239 53.5426 78.6828 54.6916 78.8956C55.8406 79.1102 57.0118 79.1805 58.1719 79.1139C58.7511 79.0806 59.3284 79.0159 59.9001 78.916C60.47 78.8179 61.0343 78.6884 61.5894 78.5274C62.6996 78.2091 63.7727 77.7725 64.7885 77.2378C63.7487 77.7262 62.6607 78.1092 61.5487 78.3757C60.9918 78.5089 60.4293 78.6107 59.8649 78.6828C59.2988 78.755 58.7307 78.792 58.1627 78.7994C57.0266 78.8123 55.8906 78.6902 54.7896 78.433C53.6887 78.1758 52.6248 77.7836 51.6257 77.2692C51.1261 77.0139 50.6432 76.7252 50.1769 76.4107C49.7125 76.0961 49.2647 75.7575 48.8373 75.3949C48.4099 75.0304 48.001 74.6474 47.6124 74.2422C47.2239 73.8369 46.8538 73.4169 46.5041 72.9784C45.8029 72.1032 45.1775 71.167 44.6279 70.1901C44.3523 69.7016 44.0969 69.2039 43.8619 68.6969C43.7435 68.4434 43.6325 68.1881 43.5252 67.9309C43.4734 67.8032 43.4216 67.6737 43.3716 67.546L43.2994 67.3536C43.2772 67.2907 43.2532 67.2241 43.2365 67.1704L42.0413 67.5904V67.5867Z" fill="#E4F1DD"/>
<path d="M49.2849 32.3187C53.2001 32.0375 59.4873 32.0412 66.7274 34.1986C73.381 36.1821 80.7266 38.3728 85.2117 45.4483C89.8337 52.742 90.2463 63.3793 86.0536 68.3473C86.0536 68.3473 85.974 68.4435 80.8006 73.8111C76.0658 72.4308 73.1238 70.2327 71.2255 68.1733C68.0911 64.7744 68.0208 62.0027 64.9049 59.2199C61.9352 56.5703 58.1921 55.6858 54.9579 55.4527C53.0669 47.7408 51.1759 40.0288 49.2849 32.3169V32.3187Z" fill="url(#paint9_linear_1866_250)"/>
<path d="M72.2412 51.7205L48.6724 43.4812L50.9038 32.0669L77.4497 47.2465L72.2412 51.7205Z" fill="#005D96"/>
<path d="M61.1729 39.9881C61.1729 39.9881 75.5791 49.2616 72.9536 57.1697L78.2787 61.9342L87.7965 65.6588C88.4071 64.1545 89.1528 61.825 89.2934 58.9164C89.6357 51.8927 86.1979 46.8489 85.2135 45.4482C82.5288 41.6311 79.5147 39.9363 74.6281 37.1868C74.6281 37.1868 60.851 29.4378 51.0205 32.376C50.6893 32.4741 50.2378 32.6406 50.1323 32.9996C49.7031 34.4779 55.7146 37.5235 61.1729 39.9862V39.9881Z" fill="url(#paint10_linear_1866_250)"/>
<path d="M71.0071 67.9234C67.0197 65.6845 63.0306 63.4457 59.0432 61.2069C61.6169 60.7147 64.1925 60.2207 66.7663 59.7285L75.3016 61.2254C73.8695 63.4587 72.4392 65.6901 71.0071 67.9234Z" fill="white"/>
<path d="M81.4924 63.8065C81.4924 63.8065 81.4924 63.8047 81.4961 63.7973L81.5035 63.7806L81.5202 63.7455L81.5535 63.6678C81.5757 63.6141 81.5998 63.5605 81.622 63.5031C81.6664 63.3921 81.7126 63.2774 81.7552 63.1627C81.8421 62.9314 81.9236 62.6964 81.9994 62.4577C82.153 61.9822 82.2881 61.4974 82.4046 61.0071C82.6378 60.0264 82.7969 59.0273 82.8746 58.0226L82.9024 57.6451L82.919 57.2677C82.9264 57.1419 82.9264 57.016 82.9283 56.8902C82.9283 56.7644 82.9338 56.6386 82.932 56.5128C82.9264 56.2611 82.9264 56.0095 82.9098 55.7579L82.9005 55.5691L82.8968 55.4748L82.8894 55.3804L82.8579 55.0048C82.8505 54.879 82.8302 54.755 82.8172 54.6292C82.8006 54.5052 82.7895 54.3794 82.771 54.2554C82.7303 54.0075 82.6988 53.7577 82.647 53.5116L82.5749 53.1416L82.4879 52.7752C82.4361 52.5291 82.3602 52.2886 82.2955 52.0462C81.7348 50.1145 80.7708 48.2976 79.4979 46.7026C78.8614 45.9051 78.1508 45.1613 77.3848 44.4712L77.0943 44.2158C76.9963 44.1307 76.9019 44.0438 76.8001 43.9642L76.1951 43.4776L75.5697 43.015L75.4124 42.8985L75.2515 42.7893L74.9277 42.571L74.6039 42.3508C74.4947 42.2805 74.3837 42.212 74.2727 42.1435L73.9396 41.9363C73.8286 41.8678 73.7194 41.7957 73.6047 41.7328L72.9238 41.3442C72.8665 41.3128 72.811 41.2795 72.7536 41.248L72.5797 41.1573L72.2318 40.976C71.7711 40.7262 71.2919 40.5097 70.8182 40.2803C70.6998 40.2211 70.5777 40.173 70.4574 40.1193L70.0948 39.9621C69.8524 39.8585 69.6137 39.7474 69.3676 39.6531C67.4156 38.8575 65.3932 38.2099 63.3394 37.677C61.2856 37.1441 59.1966 36.7241 57.0947 36.3873C54.991 36.0506 52.8743 35.7971 50.7483 35.5991C52.8798 35.6935 55.0113 35.8434 57.1354 36.0783C59.2595 36.3133 61.38 36.6334 63.48 37.0701C65.5801 37.5086 67.6616 38.0637 69.6988 38.7797C69.956 38.863 70.2058 38.9648 70.4593 39.0591L70.8386 39.2035C70.9644 39.2534 71.0921 39.2978 71.216 39.3515C71.7137 39.5624 72.2189 39.7622 72.7073 39.9972L73.0774 40.1674L73.2624 40.2526C73.3235 40.2822 73.3845 40.3136 73.4438 40.3451L74.1709 40.7151C74.293 40.7743 74.4096 40.8446 74.5299 40.9094L74.887 41.1092C75.0054 41.1758 75.1256 41.2406 75.2441 41.3091L75.5938 41.5218L75.9435 41.7346L76.1192 41.8419L76.2895 41.9567L76.9722 42.4137L77.6383 42.8985C77.7512 42.978 77.8567 43.065 77.964 43.1501L78.2878 43.4073C79.1426 44.103 79.9493 44.869 80.6839 45.7053C82.1548 47.3743 83.3316 49.343 84.0662 51.4763C84.1531 51.7446 84.2494 52.0111 84.3215 52.283L84.4381 52.6901L84.5398 53.1009C84.612 53.3747 84.662 53.6522 84.7193 53.9279C84.7489 54.0667 84.7674 54.2055 84.7915 54.3442C84.8137 54.483 84.8414 54.6218 84.8581 54.7624L84.9136 55.1824L84.9266 55.2879L84.9377 55.3934L84.958 55.6043C84.9895 55.8855 85.0043 56.1649 85.0246 56.448C85.0339 56.5886 85.0357 56.7293 85.0413 56.8699C85.0468 57.0105 85.0524 57.1511 85.0505 57.2917V57.7136L85.0431 58.1355C85.0117 59.2604 84.8877 60.3817 84.6805 61.4882C84.5768 62.0414 84.4529 62.5928 84.3049 63.1386C84.2308 63.4124 84.1513 63.6844 84.0643 63.9583C84.0218 64.0952 83.9755 64.2321 83.9274 64.3709C83.9034 64.4393 83.8774 64.5097 83.8515 64.58L83.8108 64.6873L83.7886 64.7428L83.7609 64.8094L81.4869 63.8065H81.4924Z" fill="url(#paint11_linear_1866_250)"/>
<path d="M50.6282 33.3991L50.5782 33.2289C55.994 32.9736 61.3264 33.6175 66.448 35.144C73.1571 37.1441 80.0956 39.2127 84.3827 45.9773C86.4976 49.3152 87.8002 53.6263 87.9574 57.808C88.0814 61.1348 87.4745 64.1304 86.2644 66.31C86.0813 66.6375 85.8851 66.9483 85.6761 67.237C85.6316 68.262 85.5872 69.2852 85.5428 70.3103C86.7585 69.0447 86.7936 69.004 86.8084 68.9855C87.926 67.6625 88.7623 65.9695 89.2952 63.9546C89.7966 62.0599 90.0075 59.9672 89.9243 57.7377C89.841 55.5229 89.4728 53.3007 88.8289 51.1285C88.1591 48.8693 87.2229 46.7822 86.0461 44.9245C81.3631 37.5364 73.7381 35.2624 67.0105 33.2585C61.2765 31.5489 55.289 30.9031 49.2146 31.3398L47.9971 31.4268L48.6058 33.5009L50.6282 33.401V33.3991Z" fill="url(#paint12_linear_1866_250)"/>
<path d="M86.0553 65.3906C86.0553 65.3906 86.0442 65.3628 86.0238 65.3129C85.7629 64.6653 83.8497 60.1395 80.6118 57.8081L78.4173 59.836L76.4283 56.759L62.3662 60.7001C68.4092 61.4809 74.454 62.2636 80.497 63.0444C82.3492 63.8271 84.2031 64.6097 86.0553 65.3906Z" fill="url(#paint13_linear_1866_250)"/>
<path d="M64.8251 59.7195L76.6853 56.1096L78.4598 59.2014L80.6875 56.9811L81.0187 57.3105C85.9071 62.1878 86.2679 64.817 86.2809 64.9262L85.3502 65.0372V65.0427C85.3483 65.0187 84.9764 62.6836 80.6856 58.3077L78.2562 60.7298L76.2431 57.2253L65.0971 60.6169L64.8232 59.7195H64.8251Z" fill="#005E98"/>
<path d="M55.3203 40.7132C55.4055 40.6965 55.4776 40.6854 55.5535 40.6725L55.7774 40.6392C55.9254 40.6188 56.0734 40.6003 56.2214 40.5836C56.5175 40.5503 56.8117 40.5244 57.1059 40.5041C57.6961 40.4634 58.2845 40.4449 58.8729 40.4504C60.0497 40.4597 61.2264 40.5596 62.3865 40.7613C62.9675 40.8593 63.5411 40.987 64.111 41.1387C64.679 41.2905 65.2397 41.4718 65.791 41.6809C66.3406 41.8899 66.879 42.1286 67.4045 42.3969C67.9281 42.6634 68.4369 42.9612 68.9236 43.2906C69.8987 43.9456 70.7923 44.719 71.575 45.5868C72.3577 46.4546 73.0312 47.4167 73.5807 48.4399C73.8564 48.9506 74.1025 49.4779 74.3153 50.0163C74.5299 50.5548 74.7149 51.1025 74.8666 51.6594C75.1756 52.7733 75.3644 53.9149 75.4402 55.062C75.3126 53.9204 75.072 52.7936 74.7149 51.7056C74.5373 51.1617 74.3301 50.6288 74.0951 50.1089C73.8619 49.5889 73.5955 49.0838 73.3032 48.5953C72.7203 47.6202 72.0228 46.7155 71.2272 45.9124C70.4334 45.1076 69.5416 44.4063 68.5813 43.8235C68.102 43.5311 67.6043 43.2702 67.0918 43.0371C66.5811 42.8058 66.0575 42.6004 65.5246 42.4265C64.9917 42.2526 64.4496 42.1046 63.9019 41.9843C63.3542 41.8659 62.801 41.7678 62.2441 41.7012C61.1321 41.5606 60.0052 41.518 58.8858 41.5606C58.3252 41.5809 57.7664 41.6235 57.2113 41.6883C56.9338 41.7197 56.6581 41.7586 56.3843 41.8011C56.2473 41.8233 56.1104 41.8474 55.9753 41.8714L55.7737 41.9103C55.7089 41.9232 55.6386 41.938 55.5831 41.9528L55.3167 40.715L55.3203 40.7132Z" fill="#E4F1DD"/>
<path d="M35.232 33.2642C31.389 34.0709 25.346 35.8009 18.9774 39.8678C13.125 43.6035 6.66382 47.7296 4.29732 55.7672C1.85865 64.0509 4.38798 74.3902 9.78338 78.0149C9.78338 78.0149 9.88699 78.0852 16.3352 81.8246L35.0285 63.1313L35.232 33.2642Z" fill="url(#paint14_radial_1866_250)"/>
<path d="M18.4945 58.2298L38.8882 43.8291L33.6057 33.4675L12.2554 55.36L18.4945 58.2298Z" fill="#8E8333"/>
<path d="M25.9104 43.905C25.9104 43.905 14.6089 56.7811 19.3068 63.6641L15.4971 69.709L7.37068 75.9055C6.37153 74.627 5.01343 72.5936 4.07719 69.8348C1.81615 63.1757 3.73674 57.3806 4.29737 55.7653C5.8294 51.358 8.26066 48.8989 12.2036 44.9116C12.2036 44.9116 23.32 33.6749 33.5798 33.7951C33.9258 33.7988 34.405 33.834 34.6049 34.1504C35.4245 35.4548 30.4806 40.0361 25.9104 43.9032V43.905Z" fill="url(#paint15_linear_1866_250)"/>
<path d="M24.9204 74.255C28.138 71.0041 31.3538 67.7531 34.5714 64.5022C31.7942 64.5707 29.0187 64.6373 26.2415 64.7057L18.165 68.2101C20.4168 70.2251 22.6686 72.24 24.9204 74.255Z" fill="white"/>
<path d="M12.9233 72.3936C12.9233 72.3936 12.9214 72.3917 12.9159 72.3862L12.9029 72.3714L12.877 72.3418L12.8234 72.2752C12.7864 72.2289 12.7494 72.1845 12.7123 72.1364C12.6383 72.042 12.5643 71.944 12.4903 71.8459C12.3441 71.6479 12.1998 71.4444 12.0611 71.2353C11.7835 70.8209 11.5189 70.3916 11.2728 69.9512C10.7807 69.0723 10.3514 68.1546 9.99985 67.211L9.87033 66.8557L9.75191 66.4968C9.7112 66.3783 9.67605 66.2562 9.63904 66.136C9.60389 66.0157 9.56503 65.8954 9.53173 65.7733C9.46697 65.5309 9.39851 65.2867 9.34485 65.0424L9.30229 64.8593L9.28009 64.7668L9.26159 64.6742L9.18758 64.3042C9.16167 64.1802 9.14502 64.0562 9.12467 63.9323C9.10616 63.8083 9.08211 63.6843 9.06731 63.5604C9.0377 63.3106 8.99885 63.0627 8.9822 62.811L8.94889 62.4354L8.93039 62.0598C8.91374 61.8082 8.91929 61.5584 8.91559 61.3067C8.92299 59.2955 9.3504 57.2842 10.1349 55.4007C10.5272 54.4589 11.0064 53.5485 11.5541 52.6734L11.7632 52.3477C11.8335 52.2385 11.9001 52.1294 11.9778 52.0239L12.4256 51.3893L12.8992 50.7713L13.0176 50.6177L13.1435 50.4678L13.3932 50.1681L13.643 49.8683C13.73 49.7703 13.817 49.6741 13.9058 49.5779L14.1685 49.2874C14.2573 49.1911 14.3406 49.0912 14.435 49.0006L14.9826 48.4399C15.0289 48.3937 15.0733 48.3456 15.1196 48.2993L15.262 48.1642L15.547 47.8941C15.9207 47.5259 16.3222 47.1873 16.7145 46.8357C16.8107 46.7469 16.9162 46.6655 17.0161 46.5823L17.3195 46.3306C17.5231 46.1641 17.7229 45.992 17.9338 45.8329C19.5935 44.5303 21.3568 43.3535 23.1849 42.2767C25.013 41.1998 26.9058 40.2229 28.8338 39.3199C30.7636 38.4188 32.7305 37.5918 34.7177 36.8184C32.6935 37.4937 30.6859 38.2264 28.708 39.035C26.73 39.8454 24.7798 40.7354 22.8815 41.7327C20.9831 42.73 19.1347 43.8383 17.3732 45.0872C17.1493 45.239 16.9365 45.4055 16.72 45.5665L16.3944 45.8088C16.2871 45.8903 16.1761 45.968 16.0724 46.0549C15.6524 46.3954 15.2213 46.7247 14.8161 47.0874L14.5071 47.3538L14.3535 47.487C14.3036 47.5315 14.2536 47.5796 14.2037 47.6258L13.606 48.1809C13.5043 48.2716 13.4118 48.3715 13.3137 48.4658L13.025 48.7545C12.9288 48.8507 12.8326 48.9469 12.7364 49.045L12.4589 49.3466L12.1813 49.6482L12.0426 49.7999L11.9093 49.9572L11.3783 50.5844L10.8713 51.2339C10.7844 51.3412 10.7067 51.454 10.6271 51.5669L10.3866 51.9036C9.75746 52.8084 9.19128 53.765 8.71391 54.7716C7.75731 56.781 7.16893 58.9957 7.05051 61.2512C7.04126 61.5325 7.02091 61.8156 7.02646 62.0968V62.5205L7.04126 62.9424C7.04681 63.2255 7.07641 63.5049 7.09492 63.7861C7.10602 63.9267 7.12452 64.0674 7.13932 64.2061C7.15598 64.3467 7.16708 64.4874 7.19113 64.6261L7.25219 65.0443L7.26699 65.1498L7.28549 65.2534L7.3225 65.4606C7.36876 65.7381 7.43167 66.0138 7.49088 66.2895C7.52048 66.4283 7.55749 66.5634 7.59079 66.7003C7.62409 66.8372 7.6574 66.9741 7.69811 67.1092L7.81282 67.5163L7.93864 67.9196C8.27909 68.9928 8.70651 70.0363 9.20793 71.0447C9.45957 71.548 9.72971 72.0439 10.0221 72.5287C10.1682 72.771 10.3199 73.0116 10.4791 73.2503C10.5586 73.3705 10.64 73.4889 10.7252 73.6092C10.7677 73.6684 10.8103 73.7295 10.8547 73.7887L10.9231 73.8812L10.9601 73.9293L11.0045 73.9848L12.9159 72.3954L12.9233 72.3936Z" fill="url(#paint16_linear_1866_250)"/>
<path d="M34.2368 34.672V34.4944C28.9598 35.7378 24.0103 37.823 19.5068 40.6984C13.6062 44.4655 7.50404 48.3622 5.24116 56.0445C4.12544 59.8358 4.05883 64.3393 5.05798 68.4025C5.8536 71.635 7.26166 74.3493 9.02312 76.1108C9.28771 76.3754 9.56155 76.6196 9.84279 76.8398C10.1666 77.813 10.4904 78.7844 10.816 79.7577C9.29881 78.8751 9.2544 78.8455 9.23405 78.8307C7.79639 77.8648 6.5271 76.4679 5.45949 74.6768C4.45664 72.9931 3.67768 71.0392 3.1448 68.8725C2.61747 66.7206 2.36028 64.4818 2.38064 62.2171C2.40469 59.8598 2.73034 57.5951 3.35203 55.4876C5.82215 47.0966 12.5294 42.8151 18.4466 39.0368C23.4886 35.8173 29.069 33.5508 35.0287 32.3L36.224 32.0483L36.2092 34.2113L34.2368 34.672Z" fill="url(#paint17_linear_1866_250)"/>
<path d="M8.97119 75.1708C8.97119 75.1708 8.97304 75.1412 8.98044 75.0875C9.05445 74.3936 9.64839 69.5145 12.1222 66.3838L14.7885 67.729L15.8561 64.2245L30.4603 64.1487C24.865 66.5614 19.268 68.9742 13.6727 71.387C12.1074 72.6488 10.5402 73.9089 8.97489 75.1708H8.97119Z" fill="url(#paint18_linear_1866_250)"/>
<path d="M27.8237 63.8824L15.4287 63.6733L14.572 67.1334L11.8188 65.6106L11.5912 66.0195C8.23114 72.0532 8.6086 74.6788 8.62525 74.7879L9.55039 74.6381V74.6436C9.54854 74.6196 9.26175 72.2734 12.1852 66.8854L15.1863 68.5451L16.1577 64.6225L27.8052 64.8187L27.8218 63.8806L27.8237 63.8824Z" fill="#8E8432"/>
<path d="M31.7352 42.9947C31.6501 43.0021 31.5761 43.0113 31.5002 43.0206L31.2763 43.0502C31.1283 43.0705 30.9803 43.0946 30.8341 43.1186C30.5418 43.1686 30.2513 43.2223 29.9608 43.2852C29.3835 43.4091 28.8118 43.5535 28.2474 43.72C27.1188 44.053 26.0141 44.473 24.9539 44.9837C24.4229 45.2372 23.9048 45.5184 23.3997 45.82C22.8946 46.1235 22.4061 46.451 21.9343 46.8025C21.4625 47.1541 21.011 47.5334 20.5799 47.9349C20.1488 48.3364 19.7436 48.762 19.3643 49.2116C18.6075 50.109 17.9599 51.0989 17.4474 52.148C16.933 53.1971 16.55 54.3072 16.3039 55.4415C16.1799 56.0095 16.0874 56.5831 16.0319 57.1585C15.9746 57.734 15.9468 58.3131 15.9524 58.8904C15.9616 60.0449 16.093 61.1958 16.3372 62.3189C16.1448 61.1866 16.0671 60.0357 16.1115 58.8922C16.1318 58.3205 16.1855 57.7506 16.2688 57.1863C16.3502 56.6219 16.4667 56.0632 16.6129 55.5136C16.9052 54.4146 17.3271 53.3544 17.8711 52.3626C18.4132 51.3709 19.0775 50.4513 19.8416 49.6279C20.2228 49.2153 20.6298 48.8267 21.0573 48.4641C21.4847 48.1014 21.9306 47.761 22.395 47.4464C22.8594 47.1319 23.3405 46.8414 23.8327 46.5749C24.3267 46.3104 24.8318 46.0643 25.348 45.8459C26.3805 45.4056 27.45 45.054 28.5379 44.7857C29.0819 44.6507 29.6314 44.5396 30.1828 44.4471C30.4585 44.4009 30.7342 44.362 31.0099 44.3287C31.1468 44.3121 31.2856 44.2973 31.4225 44.2843L31.626 44.2677C31.6926 44.2621 31.7629 44.2584 31.8203 44.2547L31.737 42.991L31.7352 42.9947Z" fill="#E4F1DD"/>
<path d="M65.1143 59.6284C67.2606 56.3404 70.3098 50.8433 71.9381 43.4662C73.4331 36.6868 75.0854 29.2006 71.0758 21.8439C66.9423 14.2615 57.8427 8.73844 51.4648 9.99108C51.4648 9.99108 51.3427 10.0151 44.1377 11.9302V38.365L65.1143 59.6284Z" fill="#529342"/>
<path d="M59.2949 30.1407L55.0559 54.7438L66.1187 58.3352L65.7357 27.7576L59.2949 30.1407Z" fill="#437339"/>
<path d="M64.1797 45.5127C64.1797 45.5127 63.0658 28.4162 54.8765 26.8712L53.2964 19.9031L54.6619 9.77466C56.2735 9.97264 58.6714 10.45 61.2822 11.7378C67.5898 14.8481 70.33 20.3027 71.0757 21.8421C73.1091 26.0423 73.1276 29.5004 73.1591 35.1068C73.1591 35.1068 73.2442 50.9137 65.9042 58.0816C65.6562 58.3221 65.2917 58.6385 64.9291 58.5553C63.4285 58.213 63.6838 51.478 64.1797 45.5109V45.5127Z" fill="url(#paint19_linear_1866_250)"/>
<path d="M43.4197 23.3519C43.4437 27.9258 43.4678 32.4997 43.4918 37.0717C45.4069 35.0604 47.3238 33.0492 49.2388 31.0379L52.4712 22.8486C49.4534 23.017 46.4375 23.1835 43.4197 23.3519Z" fill="white"/>
<path d="M53.2187 16.1844C53.2187 16.1844 53.2224 16.1844 53.2279 16.1844H53.2464L53.2853 16.1899L53.3704 16.1973C53.4278 16.2029 53.487 16.2103 53.548 16.2177C53.6665 16.2325 53.7886 16.2491 53.9107 16.2676C54.1549 16.3046 54.3992 16.3472 54.6452 16.3953C55.1356 16.4915 55.6259 16.6099 56.1107 16.745C57.0802 17.017 58.0331 17.363 58.949 17.783L59.2913 17.9421L59.6299 18.1105C59.7428 18.166 59.8538 18.2252 59.9648 18.2863C60.0758 18.3474 60.1887 18.4029 60.296 18.4676C60.5143 18.5934 60.7326 18.7174 60.9454 18.8525L61.1064 18.9524L61.186 19.0023L61.2637 19.0542L61.5764 19.2632C61.6818 19.3317 61.7818 19.4076 61.8835 19.4816C61.9853 19.5556 62.0889 19.6259 62.1888 19.7036C62.3849 19.859 62.5885 20.0089 62.779 20.1736L63.0677 20.416L63.3471 20.6694C63.5358 20.8341 63.7097 21.0173 63.8911 21.1912C65.3084 22.6196 66.4278 24.3441 67.2049 26.2295C67.5935 27.1732 67.8988 28.1557 68.13 29.1604L68.2133 29.5378C68.2411 29.6636 68.2707 29.7894 68.291 29.9171L68.4242 30.6813L68.526 31.4528L68.5519 31.6453L68.5686 31.8396L68.6037 32.2281L68.6389 32.6167C68.6463 32.7462 68.6518 32.8776 68.6592 33.0071L68.6796 33.3975C68.6851 33.527 68.6962 33.6584 68.6944 33.7897L68.7036 34.5743C68.7036 34.639 68.7055 34.7056 68.7036 34.7704L68.6981 34.9665L68.6888 35.3588C68.6833 35.8824 68.6407 36.4079 68.6111 36.9315C68.6056 37.0629 68.5889 37.1942 68.5778 37.3238L68.5408 37.716C68.5149 37.9788 68.4964 38.2415 68.4575 38.5024C68.2059 40.595 67.7896 42.6766 67.2586 44.7304C66.7275 46.7861 66.0799 48.814 65.3546 50.816C64.6275 52.818 63.8226 54.7922 62.9622 56.7461C63.9151 54.8366 64.8181 52.9012 65.6433 50.9288C66.4685 48.9564 67.2179 46.9489 67.8562 44.9006C68.4927 42.8524 69.0182 40.7634 69.379 38.6338C69.4308 38.3692 69.4622 38.1009 69.5029 37.8326L69.5603 37.4311C69.5788 37.2979 69.601 37.1646 69.614 37.0296C69.6713 36.4911 69.7416 35.9546 69.7731 35.4124L69.8027 35.0072L69.8175 34.8037C69.8212 34.7352 69.823 34.6686 69.8249 34.6002L69.8545 33.7842C69.8619 33.6491 69.8582 33.5122 69.8582 33.3753V32.9664C69.8582 32.8294 69.8582 32.6944 69.8563 32.5575L69.8397 32.1485L69.823 31.7396L69.8138 31.5343L69.7971 31.3289L69.7287 30.5092L69.6269 29.6914C69.6121 29.5545 69.5862 29.4194 69.564 29.2843L69.4955 28.8773C69.3013 27.793 69.0237 26.7161 68.65 25.667C67.9043 23.5707 66.7553 21.5872 65.2455 19.909C65.053 19.7036 64.868 19.4908 64.6645 19.2947L64.3647 18.9949L64.0539 18.7063C63.8504 18.5102 63.632 18.3325 63.4174 18.1475C63.3101 18.055 63.1991 17.9699 63.088 17.8811C62.977 17.7941 62.8697 17.7035 62.755 17.6202L62.4145 17.3686L62.3294 17.3056L62.2425 17.2446L62.0685 17.1243C61.8391 16.9615 61.6004 16.8098 61.3636 16.6581C61.2452 16.5803 61.1231 16.5119 61.0028 16.4379C60.8825 16.3657 60.7622 16.2917 60.6383 16.2232L60.2701 16.016L59.8963 15.8199C58.8972 15.3018 57.8573 14.8651 56.7897 14.508C56.255 14.3304 55.7147 14.1713 55.1633 14.0344C54.8876 13.9659 54.6101 13.903 54.3288 13.8475C54.1882 13.8197 54.0458 13.792 53.9014 13.7679C53.8293 13.755 53.7571 13.7439 53.6831 13.7328L53.5702 13.7161L53.511 13.7087L53.4407 13.6995L53.2131 16.1751L53.2187 16.1844Z" fill="url(#paint20_linear_1866_250)"/>
<path d="M64.8217 57.9301L64.9476 58.0559C67.8007 53.445 69.8267 48.4696 70.9776 43.2519C72.4856 36.4151 74.0454 29.3452 70.2116 22.3123C68.3206 18.8431 65.1825 15.6106 61.6023 13.4439C58.7547 11.7213 55.8387 10.7981 53.3482 10.7981C52.9726 10.7981 52.6062 10.8203 52.2528 10.861C51.3351 10.4021 50.4192 9.94323 49.5015 9.48621C51.1982 9.03845 51.2518 9.02734 51.274 9.02179C52.9726 8.68874 54.8599 8.77756 56.8804 9.29008C58.7806 9.77115 60.7123 10.6019 62.6218 11.7583C64.5183 12.9055 66.2816 14.308 67.8673 15.9233C69.5177 17.6071 70.8869 19.4388 71.9397 21.3687C76.1251 29.0492 74.4117 36.8185 72.8982 43.6737C71.6085 49.5169 69.2661 55.064 65.9375 60.1634L65.2695 61.1866L63.7504 59.6471L64.8199 57.9264L64.8217 57.9301Z" fill="url(#paint21_linear_1866_250)"/>
<path d="M54.0513 11.427C54.0513 11.427 54.0698 11.4492 54.105 11.4918C54.5435 12.0357 57.5724 15.9047 58.0387 19.868L55.2004 20.8023L56.9248 24.0348L46.6521 34.4148C48.902 28.7511 51.1538 23.0893 53.4038 17.4256C53.6184 15.4254 53.8349 13.4271 54.0495 11.427H54.0513Z" fill="url(#paint22_linear_1866_250)"/>
<path d="M48.7023 32.7406L57.6151 24.1239L55.7741 21.071L58.7974 20.2013L58.6697 19.7517C56.7788 13.1111 54.6547 11.518 54.5658 11.4551L54.0182 12.2155L54.0145 12.2118C54.033 12.2266 55.8943 13.6828 57.6373 19.5593L54.3401 20.5085L56.4272 23.9685L48.051 32.0653L48.7023 32.7388V32.7406Z" fill="#3B6F36"/>
<path d="M60.705 50.2754C60.7605 50.2088 60.8049 50.1515 60.853 50.0904L60.9899 49.9109C61.0806 49.7907 61.1675 49.6704 61.2545 49.5501C61.4266 49.3078 61.5931 49.0635 61.7541 48.8156C62.076 48.3197 62.3776 47.8127 62.6588 47.2965C63.2213 46.2622 63.7061 45.1853 64.0928 44.0733C64.2889 43.5182 64.4555 42.9539 64.5998 42.3822C64.7423 41.8104 64.857 41.2332 64.9421 40.6503C65.0272 40.0675 65.079 39.4809 65.0994 38.8926C65.1197 38.3042 65.1068 37.7158 65.0568 37.1311C64.9569 35.9599 64.7164 34.8035 64.337 33.6988C63.9596 32.5924 63.4452 31.5377 62.818 30.5608C62.5034 30.0723 62.1648 29.6005 61.7966 29.1527C61.4303 28.705 61.0399 28.2757 60.6272 27.8723C59.8039 27.0619 58.8972 26.3422 57.9314 25.7205C58.8676 26.3866 59.7354 27.1452 60.5144 27.9833C60.9048 28.4015 61.2693 28.8419 61.6097 29.2989C61.9502 29.7559 62.2629 30.2333 62.5478 30.7255C63.1177 31.7098 63.5692 32.7571 63.8856 33.8432C64.2038 34.9274 64.3833 36.0487 64.4259 37.17C64.4481 37.7306 64.4351 38.2931 64.3907 38.8537C64.3444 39.4125 64.2704 39.9694 64.165 40.5208C64.0577 41.0722 63.9244 41.6162 63.7635 42.1546C63.6006 42.6912 63.4175 43.2222 63.2065 43.7421C62.7884 44.7838 62.2814 45.7885 61.7004 46.747C61.4099 47.2262 61.1009 47.6943 60.7771 48.1495C60.6143 48.3771 60.4478 48.5991 60.2757 48.8174C60.1906 48.9266 60.1036 49.0339 60.0148 49.1394L59.8834 49.2967C59.8409 49.3466 59.7928 49.4003 59.7539 49.4428L60.7068 50.2773L60.705 50.2754Z" fill="#E4F1DD"/>
<path d="M62.0702 59.9025C61.2635 63.7455 59.5335 69.7885 55.4666 76.1572C51.7309 82.0096 47.6048 88.4708 39.5672 90.8373C31.2835 93.2759 20.9442 90.7466 17.3195 85.3512C17.3195 85.3512 17.2492 85.2476 13.5098 78.7994C15.6431 78.0852 18.0596 77.0398 20.5445 75.48C28.4951 70.4953 32.3141 63.2941 33.9534 59.5325C43.3251 59.6564 52.6967 59.7786 62.0684 59.9025H62.0702Z" fill="url(#paint23_radial_1866_250)"/>
<path d="M37.1045 76.6401L51.5052 56.2463L61.8686 61.5289L39.9743 82.8792L37.1045 76.6401Z" fill="#8E8333"/>
<path d="M51.4294 69.2241C51.4294 69.2241 38.5534 80.5256 31.6704 75.8278L25.6255 79.6375L19.429 87.7639C20.7075 88.763 22.7409 90.1211 25.4997 91.0574C32.1588 93.3184 37.9539 91.3978 39.5692 90.8372C43.9765 89.3052 46.4356 86.8739 50.4229 82.931C50.4229 82.931 61.6596 71.8145 61.5393 61.5548C61.5356 61.2088 61.5005 60.7295 61.1841 60.5297C59.8797 59.71 55.2984 64.654 51.4313 69.2241H51.4294Z" fill="url(#paint24_linear_1866_250)"/>
<path d="M22.1523 71.2872C25.3996 68.0678 28.6487 64.8483 31.8959 61.627C31.6017 64.1766 31.3057 66.7263 31.0115 69.276L27.124 76.9694C25.4662 75.0747 23.8102 73.1819 22.1523 71.2872Z" fill="white"/>
<path d="M22.9406 82.2114C22.9406 82.2114 22.9425 82.2132 22.948 82.2188L22.9628 82.2317L22.9924 82.2576L23.059 82.3113C23.1053 82.3483 23.1497 82.3853 23.1978 82.4223C23.2922 82.4963 23.3902 82.5703 23.4883 82.6443C23.6863 82.7905 23.8898 82.9348 24.0989 83.0736C24.5133 83.3511 24.9426 83.6157 25.383 83.8618C26.2618 84.354 27.1796 84.7833 28.1232 85.1348L28.4785 85.2643L28.8374 85.3827C28.9558 85.4235 29.078 85.4586 29.1982 85.4956C29.3185 85.5308 29.4388 85.5696 29.5609 85.6029C29.8033 85.6677 30.0475 85.7361 30.2917 85.7898L30.4749 85.8324L30.5674 85.8546L30.6599 85.8731L31.03 85.9471C31.154 85.973 31.2779 85.9896 31.4019 86.01C31.5259 86.0285 31.6498 86.0525 31.7738 86.0673C32.0236 86.0969 32.2715 86.1358 32.5232 86.1525L32.8988 86.1858L33.2744 86.2043C33.526 86.2209 33.7758 86.2154 34.0274 86.2191C36.0387 86.2117 38.0499 85.7843 39.9335 84.9997C40.8753 84.6075 41.7856 84.1283 42.6608 83.5806L42.9865 83.3715C43.0956 83.3012 43.2048 83.2346 43.3103 83.1569L43.9449 82.7091L44.5629 82.2354L44.7165 82.117L44.8664 81.9912L45.1661 81.7414L45.4658 81.4916C45.5639 81.4047 45.6601 81.3177 45.7563 81.2289L46.0468 80.9661C46.143 80.8773 46.243 80.7941 46.3336 80.6997L46.8943 80.152C46.9405 80.1058 46.9886 80.0614 47.0349 80.0151L47.1699 79.8726L47.4401 79.5877C47.8083 79.2139 48.1469 78.8124 48.4984 78.4202C48.5873 78.3239 48.6687 78.2185 48.7519 78.1186L49.0036 77.8151C49.1701 77.6116 49.3422 77.4118 49.5013 77.2008C50.8039 75.5411 51.9807 73.7778 53.0575 71.9498C54.1344 70.1217 55.1113 68.2289 56.0143 66.3009C56.9153 64.371 57.7424 62.4042 58.5158 60.417C57.8405 62.4412 57.1078 64.4487 56.2992 66.4267C55.4888 68.4046 54.5988 70.3548 53.6015 72.2532C52.6042 74.1516 51.4959 76 50.247 77.7615C50.0952 77.9853 49.9287 78.1981 49.7677 78.4146L49.5253 78.7403C49.4439 78.8476 49.3662 78.9586 49.2793 79.0622C48.9388 79.4822 48.6095 79.9133 48.2468 80.3185L47.9804 80.6275L47.8471 80.7811C47.8027 80.8311 47.7546 80.881 47.7084 80.931L47.1533 81.5286C47.0626 81.6304 46.9627 81.7229 46.8683 81.821L46.5797 82.1096C46.4835 82.2058 46.3873 82.302 46.2892 82.3983L45.9876 82.6758L45.686 82.9533L45.5343 83.0921L45.377 83.2253L44.7498 83.7564L44.1003 84.2633C43.993 84.3503 43.8802 84.428 43.7673 84.5076L43.4305 84.7481C42.5258 85.3772 41.5692 85.9434 40.5626 86.4207C38.5532 87.3773 36.3384 87.9657 34.083 88.0841C33.8017 88.0934 33.5186 88.1137 33.2374 88.1082H32.8137L32.3918 88.0934C32.1087 88.0878 31.8293 88.0582 31.5481 88.0397C31.4075 88.0286 31.2668 88.0101 31.1281 87.9953C30.9874 87.9787 30.8468 87.9676 30.7081 87.9435L30.2899 87.8825L30.1844 87.8677L30.0808 87.8492L29.8736 87.8122C29.596 87.7659 29.3203 87.703 29.0447 87.6438C28.9059 87.6142 28.7708 87.5772 28.6339 87.5439C28.497 87.5106 28.3601 87.4773 28.225 87.4365L27.8179 87.3218L27.4146 87.196C26.3414 86.8556 25.2979 86.4282 24.2895 85.9267C23.7862 85.6751 23.2903 85.4049 22.8055 85.1126C22.5631 84.9664 22.3226 84.8147 22.0839 84.6556C21.9637 84.576 21.8452 84.4946 21.725 84.4095C21.6658 84.3669 21.6047 84.3244 21.5455 84.28L21.453 84.2115L21.4049 84.1745L21.3494 84.1301L22.9388 82.2188L22.9406 82.2114Z" fill="url(#paint25_linear_1866_250)"/>
<path d="M60.662 60.8978H60.8397C59.5963 66.1748 57.511 71.1243 54.6357 75.6279C50.8685 81.5284 46.9719 87.6306 39.2895 89.8935C35.4983 91.0092 30.9948 91.0758 26.9315 90.0767C23.6991 89.281 20.9848 87.873 19.2233 86.1115C18.9587 85.8469 18.7145 85.5731 18.4943 85.2918C17.5211 84.9681 16.5497 84.6443 15.5764 84.3186C16.459 85.8358 16.4886 85.8802 16.5034 85.9006C17.4692 87.3383 18.8662 88.6075 20.6573 89.6751C22.341 90.678 24.2949 91.457 26.4616 91.9898C28.6134 92.519 30.8523 92.7762 33.117 92.754C35.4743 92.73 37.739 92.4043 39.8465 91.7826C48.2375 89.3125 52.519 82.6053 56.2972 76.6881C59.5167 71.6461 61.7833 66.0657 63.0341 60.1059L63.2857 58.9106L61.1228 58.9254L60.662 60.8978Z" fill="url(#paint26_linear_1866_250)"/>
<path d="M20.165 86.1634C20.165 86.1634 20.1946 86.1615 20.2483 86.1541C20.9422 86.0801 25.8213 85.4862 28.952 83.0124L27.6068 80.3461L31.1113 79.2785L31.1871 64.6743C28.7744 70.2695 26.3616 75.8666 23.9488 81.4619C22.687 83.0272 21.4269 84.5944 20.165 86.1597V86.1634Z" fill="url(#paint27_linear_1866_250)"/>
<path d="M31.4539 67.3113L31.6629 79.7063L28.2029 80.5629L29.7257 83.3161L29.3168 83.5437C23.283 86.9038 20.6575 86.5264 20.5483 86.5097L20.6982 85.5846H20.6927C20.7167 85.5864 23.0629 85.8732 28.4509 82.9498L26.7912 79.9486L30.7137 78.9773L30.5176 67.3298L31.4557 67.3131L31.4539 67.3113Z" fill="#8E8432"/>
<path d="M52.3396 63.3998C52.3322 63.4849 52.323 63.5589 52.3137 63.6348L52.2841 63.8587C52.2638 64.0067 52.2397 64.1547 52.2157 64.3009C52.1657 64.5932 52.1121 64.8837 52.0492 65.1742C51.9252 65.7515 51.7809 66.3232 51.6143 66.8876C51.2813 68.0162 50.8613 69.1209 50.3506 70.1811C50.0971 70.7121 49.8159 71.2302 49.5143 71.7353C49.2108 72.2404 48.8833 72.7289 48.5318 73.2007C48.1802 73.6725 47.8009 74.124 47.3994 74.5551C46.9979 74.9862 46.5723 75.3914 46.1227 75.7707C45.2253 76.5275 44.2354 77.1751 43.1863 77.6876C42.1372 78.202 41.0271 78.585 39.8928 78.8311C39.3248 78.9551 38.7512 79.0476 38.1758 79.1031C37.6004 79.1604 37.0212 79.1882 36.4439 79.1826C35.2894 79.1734 34.1385 79.042 33.0154 78.7978C34.1477 78.9902 35.2986 79.0679 36.4421 79.0235C37.0138 79.0032 37.5837 78.9495 38.148 78.8663C38.7124 78.7848 39.2712 78.6683 39.8207 78.5221C40.9198 78.2298 41.98 77.8079 42.9717 77.2639C43.9635 76.7218 44.883 76.0575 45.7064 75.2934C46.119 74.9122 46.5076 74.5052 46.8702 74.0777C47.2329 73.6503 47.5733 73.2044 47.8879 72.74C48.2024 72.2756 48.4929 71.7945 48.7594 71.3023C49.024 70.8083 49.27 70.3032 49.4884 69.787C49.9287 68.7545 50.2803 67.685 50.5486 66.5971C50.6836 66.0531 50.7947 65.5036 50.8872 64.9522C50.9334 64.6765 50.9723 64.4008 51.0056 64.1251C51.0222 63.9882 51.0371 63.8494 51.05 63.7125L51.0667 63.509C51.0722 63.4424 51.0759 63.3721 51.0796 63.3147L52.3433 63.398L52.3396 63.3998Z" fill="#E4F1DD"/>
<path d="M31.7296 66.8282C33.5374 70.3141 36.8271 75.6706 42.452 80.7145C47.6216 85.3494 53.3297 90.4673 61.7059 90.5912C70.3412 90.7189 79.6221 85.5085 81.6667 79.3379C81.6667 79.3379 81.7055 79.2194 83.578 72.0034L60.5551 59.0107L31.7278 66.8282H31.7296Z" fill="url(#paint28_linear_1866_250)"/>
<path d="M60.2718 76.2535L40.9272 60.4707L32.3623 68.3399L59.1802 83.0348L60.2718 76.2535Z" fill="#005D96"/>
<path d="M44.4817 72.9523C44.4817 72.9523 59.9185 80.3849 65.288 74.0125L72.1322 76.0608L80.2826 82.2277C79.3186 83.534 77.7237 85.3862 75.3183 87.0292C69.5103 90.9944 63.4118 90.7002 61.7059 90.5928C57.0487 90.3005 54.0291 88.6167 49.1296 85.8876C49.1296 85.8876 35.321 78.1942 32.6862 68.2767C32.5974 67.9436 32.503 67.47 32.7528 67.1943C33.7889 66.0545 39.5285 69.5885 44.4817 72.9523Z" fill="url(#paint29_linear_1866_250)"/>
<path d="M73.9862 65.7641C69.9914 63.5364 65.9967 61.3105 62.002 59.0828C62.8124 61.7398 63.6228 64.3968 64.4332 67.0537L69.9766 73.8942C71.3125 71.1836 72.6503 68.4748 73.988 65.7641H73.9862Z" fill="white"/>
<path d="M75.4111 77.8208C75.4111 77.8208 75.4111 77.8227 75.4055 77.8282L75.3944 77.843L75.3722 77.8763L75.3241 77.9466C75.2908 77.9947 75.2556 78.0428 75.2205 78.091C75.1502 78.1872 75.0762 78.2852 74.9985 78.3814C74.8467 78.5757 74.6895 78.7682 74.5266 78.9587C74.201 79.338 73.8587 79.7081 73.5016 80.0633C72.7874 80.7738 72.0195 81.4325 71.2017 82.0246L70.8945 82.2448L70.5818 82.4557C70.4782 82.5279 70.3709 82.5945 70.2655 82.6611C70.1581 82.7277 70.0545 82.798 69.9454 82.861C69.7289 82.9886 69.5124 83.1181 69.2904 83.2366L69.1257 83.3272L69.0424 83.3735L68.9592 83.416L68.6224 83.5863C68.5114 83.6455 68.3948 83.6936 68.282 83.7472C68.1672 83.799 68.0544 83.8546 67.9378 83.9027C67.7047 83.997 67.4752 84.1006 67.2384 84.1858L66.885 84.3171L66.5279 84.4355C66.2911 84.5188 66.0468 84.5817 65.8063 84.652C63.8654 85.1831 61.8152 85.3126 59.7892 85.0609C58.7771 84.937 57.7705 84.7186 56.7825 84.4263L56.4124 84.3116C56.2885 84.2727 56.1645 84.2376 56.0442 84.1913L55.3134 83.9304L54.5918 83.6399L54.4105 83.5678L54.2328 83.4882L53.8776 83.3272L53.5223 83.1663C53.4058 83.1089 53.2892 83.0497 53.1726 82.9923L52.8229 82.8165C52.7063 82.7573 52.5879 82.7018 52.4751 82.6371L51.7868 82.2596C51.7294 82.2282 51.672 82.1967 51.6147 82.1653L51.4463 82.0635L51.1096 81.8618C50.6544 81.5991 50.2196 81.3049 49.7774 81.0218C49.6663 80.9515 49.5609 80.8738 49.4517 80.7998L49.1279 80.574C48.9133 80.4223 48.6931 80.2761 48.484 80.1152C46.7855 78.8662 45.1757 77.4822 43.6493 76.0094C42.1209 74.5366 40.6722 72.9768 39.2863 71.3597C37.9005 69.7425 36.5757 68.0699 35.2971 66.3621C36.4905 68.1309 37.7339 69.8683 39.0458 71.5558C40.3576 73.2432 41.7379 74.8826 43.2089 76.4461C44.6799 78.0077 46.2415 79.4916 47.9178 80.8534C48.1232 81.0292 48.3416 81.1883 48.5543 81.3548L48.8744 81.6028C48.9817 81.6842 49.0872 81.7693 49.1982 81.847C49.6386 82.1616 50.0716 82.4854 50.5286 82.7795L50.8672 83.0053L51.0374 83.1181C51.0948 83.1551 51.1521 83.1903 51.2113 83.2255L51.907 83.6529C52.0217 83.7269 52.142 83.7898 52.2604 83.8564L52.6175 84.0562C52.736 84.1228 52.8544 84.1913 52.9746 84.2561L53.3391 84.4429L53.7036 84.6298L53.8868 84.7223L54.0737 84.8093L54.8212 85.1534L55.5835 85.4661C55.7093 85.5217 55.8407 85.5642 55.9702 85.6123L56.3588 85.7529C57.3986 86.1174 58.4718 86.4042 59.569 86.5948C61.7616 86.976 64.0541 86.9501 66.2578 86.4597C66.5316 86.3931 66.8091 86.3358 67.0793 86.2562L67.4863 86.1433L67.8897 86.0157C68.1598 85.9343 68.4226 85.8306 68.689 85.7363C68.8222 85.6882 68.9518 85.6327 69.0831 85.5809C69.2126 85.5272 69.3459 85.4772 69.4735 85.418L69.8602 85.246L69.9565 85.2034L70.0508 85.1571L70.2414 85.0646C70.4967 84.9444 70.7447 84.8111 70.9945 84.6798C71.1203 84.615 71.2405 84.5429 71.3627 84.4744C71.4848 84.4059 71.6087 84.3356 71.7272 84.2616L72.088 84.0433L72.4432 83.8138C73.385 83.1977 74.2768 82.5076 75.1132 81.7526C75.5313 81.3752 75.9347 80.9811 76.3251 80.5685C76.5194 80.3631 76.7118 80.1522 76.8987 79.9338C76.993 79.8247 77.0856 79.7155 77.1781 79.6008C77.2243 79.5453 77.2706 79.4861 77.3168 79.4268L77.3872 79.3362L77.4242 79.2881L77.4667 79.2307L75.4222 77.8171L75.4111 77.8208Z" fill="url(#paint30_linear_1866_250)"/>
<path d="M33.3542 67.4088L33.1821 67.4551C35.7966 72.2047 39.1326 76.416 43.1107 79.9814C48.3229 84.6552 53.7128 89.4882 61.7226 89.6066C65.6729 89.6639 70.0303 88.5205 73.6772 86.4685C76.5784 84.8347 78.8136 82.7513 80.0385 80.5809C80.2235 80.2534 80.3845 79.9241 80.5214 79.5947C81.3707 79.0212 82.2218 78.4476 83.0711 77.8758C82.627 79.5744 82.6103 79.6262 82.6029 79.6484C82.059 81.2933 81.0524 82.8901 79.6129 84.3981C78.2603 85.8154 76.5877 87.0902 74.6412 88.1856C72.7095 89.2735 70.6224 90.1209 68.4354 90.7075C66.1596 91.3181 63.8893 91.6104 61.6911 91.5771C52.9449 91.4476 47.0203 86.1355 41.7933 81.4506C37.3378 77.4558 33.6576 72.6895 30.8545 67.283L30.292 66.1988L32.3791 65.6326L33.3523 67.4088H33.3542Z" fill="url(#paint31_linear_1866_250)"/>
<path d="M79.1448 80.8847C79.1448 80.8847 79.117 80.8903 79.0615 80.8995C78.3732 81.0142 73.5144 81.7506 69.8342 80.2094L70.4152 77.2785L66.7535 77.1916L62.7625 63.1443C66.5888 67.8884 70.4133 72.6306 74.2397 77.3747C75.8753 78.546 77.511 79.7153 79.1466 80.8866L79.1448 80.8847Z" fill="url(#paint32_linear_1866_250)"/>
<path d="M63.2139 65.7511L66.3371 77.7483L69.9008 77.6465L69.1736 80.7069L69.6288 80.816C76.3416 82.4332 78.771 81.3656 78.8727 81.3193L78.4805 80.4682H78.4842C78.462 80.4756 76.2787 81.3804 70.3041 80.0112L71.0979 76.6733L67.0587 76.7898L64.1224 65.5161L63.2139 65.7529V65.7511Z" fill="#005E98"/>
<path d="M42.0413 67.5867C42.0709 67.6681 42.0986 67.7347 42.1282 67.8069L42.217 68.0141C42.2762 68.1511 42.3392 68.288 42.4021 68.4212C42.5279 68.6895 42.6592 68.9559 42.7962 69.2168C43.07 69.7404 43.3624 70.253 43.675 70.7507C44.2986 71.7498 44.9998 72.699 45.777 73.5835C46.1637 74.0257 46.5744 74.4494 47 74.8564C47.4274 75.2617 47.8752 75.6447 48.3396 76.0055C48.8059 76.3663 49.2906 76.6993 49.7921 77.0065C50.2935 77.3136 50.8134 77.5912 51.3481 77.8354C52.4157 78.3239 53.5426 78.6828 54.6916 78.8956C55.8406 79.1102 57.0118 79.1805 58.1719 79.1139C58.7511 79.0806 59.3284 79.0159 59.9001 78.916C60.47 78.8179 61.0343 78.6884 61.5894 78.5274C62.6996 78.2091 63.7727 77.7725 64.7885 77.2378C63.7487 77.7262 62.6607 78.1092 61.5487 78.3757C60.9918 78.5089 60.4293 78.6107 59.8649 78.6828C59.2988 78.755 58.7307 78.792 58.1627 78.7994C57.0266 78.8123 55.8906 78.6902 54.7896 78.433C53.6887 78.1758 52.6248 77.7836 51.6257 77.2692C51.1261 77.0139 50.6432 76.7252 50.1769 76.4107C49.7125 76.0961 49.2647 75.7575 48.8373 75.3949C48.4099 75.0304 48.001 74.6474 47.6124 74.2422C47.2239 73.8369 46.8538 73.4169 46.5041 72.9784C45.8029 72.1032 45.1775 71.167 44.6279 70.1901C44.3523 69.7016 44.0969 69.2039 43.8619 68.6969C43.7435 68.4434 43.6325 68.1881 43.5252 67.9309C43.4734 67.8032 43.4216 67.6737 43.3716 67.546L43.2994 67.3536C43.2772 67.2907 43.2532 67.2241 43.2365 67.1704L42.0413 67.5904V67.5867Z" fill="#E4F1DD"/>
<path d="M22.8319 86.1358C27.7273 81.2404 28.5691 74.145 24.712 70.2879C20.8548 66.4308 13.7595 67.2725 8.86401 72.168C3.96855 77.0634 3.12681 84.1588 6.98393 88.0159C10.841 91.873 17.9364 91.0313 22.8319 86.1358Z" fill="url(#paint33_radial_1866_250)"/>
<path d="M25.3757 69.6256C26.4285 70.6784 27.1889 71.9607 27.633 73.4335C28.0549 74.836 28.1751 76.3495 27.9864 77.9334C27.6071 81.1343 26.0122 84.2835 23.4958 86.7999C20.9794 89.3162 17.8321 90.9112 14.6293 91.2905C13.0454 91.4792 11.5301 91.3589 10.1294 90.9371C8.65659 90.493 7.37435 89.7344 6.32155 88.6797C5.26874 87.6269 4.50828 86.3447 4.06421 84.8719C3.64235 83.4694 3.52208 81.9559 3.71081 80.372C4.09012 77.171 5.68505 74.0219 8.20143 71.5055C10.7178 68.9891 13.8651 67.3942 17.0679 67.0149C18.6518 66.8262 20.1671 66.9464 21.5678 67.3683C23.0406 67.8124 24.3229 68.571 25.3757 69.6256ZM7.64819 87.3531C11.1341 90.839 17.6489 89.9953 22.1691 85.4732C26.6894 80.9512 27.5349 74.4363 24.049 70.9523C20.5631 67.4664 14.0483 68.3101 9.52807 72.8321C5.006 77.3542 4.16228 83.869 7.64819 87.3531Z" fill="url(#paint34_linear_1866_250)"/>
<path d="M11.6614 85.29C11.6614 85.29 12.1647 74.8748 21.7898 72.5028C21.7898 72.5028 17.6951 66.9002 11.9482 72.216C6.20122 77.5318 10.727 86.2947 10.727 86.2947L11.6614 85.2882V85.29Z" fill="url(#paint35_linear_1866_250)"/>
<path d="M92.0553 79.3547C94.7364 74.6043 92.0222 67.9948 85.9929 64.5919C79.9637 61.1891 72.9026 62.2815 70.2215 67.0319C67.5404 71.7823 70.2546 78.3919 76.2838 81.7947C82.3131 85.1975 89.3742 84.1051 92.0553 79.3547Z" fill="url(#paint36_radial_1866_250)"/>
<path d="M69.4031 66.5674C70.1358 65.2703 71.1664 64.1953 72.4653 63.3719C73.7031 62.5893 75.1297 62.0675 76.7061 61.8232C79.8923 61.3292 83.3523 62.0212 86.4515 63.7697C89.5507 65.5182 91.9302 68.1234 93.155 71.1061C93.7619 72.5826 94.0524 74.0721 94.021 75.5375C93.9877 77.0751 93.601 78.5127 92.8682 79.8116C92.1355 81.1087 91.1049 82.1837 89.806 83.007C88.5682 83.7897 87.1416 84.3115 85.5652 84.5557C82.379 85.0497 78.919 84.3577 75.8198 82.6092C72.7206 80.8607 70.3412 78.2555 69.1163 75.2729C68.5094 73.7964 68.2189 72.3069 68.2504 70.8415C68.2837 69.3039 68.6704 67.8662 69.4031 66.5674ZM91.2363 78.8902C93.6583 74.5975 91.0994 68.5471 85.5301 65.4054C79.9607 62.2618 73.4589 63.198 71.0369 67.4906C68.6149 71.7833 71.1738 77.8337 76.7431 80.9754C82.3124 84.1191 88.8143 83.1828 91.2363 78.8902Z" fill="url(#paint37_linear_1866_250)"/>
<path d="M88.2741 70.834C87.6857 70.475 83.2543 67.8754 78.2752 69.7404C75.2 70.8932 73.5274 73.145 72.9186 74.0664C72.7096 73.6131 71.4514 70.7803 72.8002 68.2824C74.6449 64.865 79.6259 65.2961 80.4955 65.3942C85.3543 65.94 87.9281 70.2363 88.2741 70.834Z" fill="url(#paint38_linear_1866_250)"/>
<path d="M46.3709 26.0112C51.8257 26.0112 56.2477 20.3988 56.2477 13.4755C56.2477 6.55232 51.8257 0.939941 46.3709 0.939941C40.9161 0.939941 36.4941 6.55232 36.4941 13.4755C36.4941 20.3988 40.9161 26.0112 46.3709 26.0112Z" fill="url(#paint39_radial_1866_250)"/>
<path d="M46.3708 26.9474C44.8813 26.9474 43.4381 26.5792 42.0818 25.8502C40.7922 25.1582 39.6358 24.1701 38.6496 22.9175C36.655 20.3845 35.5559 17.0318 35.5559 13.4737C35.5559 9.91562 36.655 6.56107 38.6496 4.0299C39.6376 2.77726 40.7922 1.79107 42.0818 1.09721C43.4381 0.370055 44.8794 0 46.3708 0C47.8621 0 49.3034 0.368205 50.6597 1.09721C51.9493 1.78922 53.1058 2.77726 54.092 4.0299C56.0865 6.56292 57.1856 9.91562 57.1856 13.4737C57.1856 17.0318 56.0865 20.3863 54.092 22.9175C53.1039 24.1701 51.9493 25.1563 50.6597 25.8502C49.3034 26.5773 47.8621 26.9474 46.3708 26.9474ZM46.3708 1.87803C41.4416 1.87803 37.4321 7.081 37.4321 13.4755C37.4321 19.8701 41.4416 25.0731 46.3708 25.0731C51.2999 25.0731 55.3094 19.8701 55.3094 13.4755C55.3094 7.081 51.2999 1.87803 46.3708 1.87803Z" fill="url(#paint40_linear_1866_250)"/>
<path d="M41.4989 19.1853C41.4989 19.1853 42.0022 8.77011 51.6273 6.39806C51.6273 6.39806 47.5326 0.79543 41.7857 6.11127C36.0387 11.4271 40.5645 20.19 40.5645 20.19L41.4989 19.1835V19.1853Z" fill="url(#paint41_linear_1866_250)"/>
<path d="M46.1912 73.6354C58.0399 73.6354 67.6452 64.0301 67.6452 52.1815C67.6452 40.3328 58.0399 30.7275 46.1912 30.7275C34.3426 30.7275 24.7373 40.3328 24.7373 52.1815C24.7373 64.0301 34.3426 73.6354 46.1912 73.6354Z" fill="#F9F9FA"/>
<path d="M46.1913 29.8411C33.8537 29.8411 23.8511 39.8436 23.8511 52.1813C23.8511 64.5189 33.8537 74.5215 46.1913 74.5215C58.5289 74.5215 68.5315 64.5189 68.5315 52.1813C68.5315 39.8436 58.5289 29.8411 46.1913 29.8411ZM46.1913 73.6371C34.3421 73.6371 24.7374 64.0323 24.7374 52.1831C24.7374 40.334 34.3421 30.7292 46.1913 30.7292C58.0404 30.7292 67.6452 40.334 67.6452 52.1831C67.6452 64.0323 58.0404 73.6371 46.1913 73.6371Z" fill="#231F20"/>
<path d="M46.1912 30.7275V52.1815H24.7373C24.7373 64.0306 34.3421 73.6354 46.1912 73.6354C58.0404 73.6354 67.6452 64.0306 67.6452 52.1815C67.6452 40.3323 58.0404 30.7275 46.1912 30.7275Z" fill="url(#paint42_linear_1866_250)"/>
<path d="M43.39 37.568C40.82 43.1262 38.25 48.6845 35.6799 54.2408V58.119H47.2811V65.6977L52.1307 64.9798V58.156H55.0393V53.5581H52.3454V42.9616L48.0712 44.2549L47.3163 53.4489H41.2456L48.717 37.5736C46.9407 37.5717 45.1644 37.568 43.39 37.5662V37.568Z" fill="url(#paint43_radial_1866_250)"/>
<path d="M156.65 32.61V71H148.95V46.03L138.665 71H132.835L122.495 46.03V71H114.795V32.61H123.54L135.75 61.155L147.96 32.61H156.65ZM192.588 55.105C192.588 56.205 192.514 57.195 192.368 58.075H170.093C170.276 60.275 171.046 61.9983 172.403 63.245C173.759 64.4917 175.428 65.115 177.408 65.115C180.268 65.115 182.303 63.8867 183.513 61.43H191.818C190.938 64.3633 189.251 66.7833 186.758 68.69C184.264 70.56 181.203 71.495 177.573 71.495C174.639 71.495 171.999 70.8533 169.653 69.57C167.343 68.25 165.528 66.3983 164.208 64.015C162.924 61.6317 162.283 58.8817 162.283 55.765C162.283 52.6117 162.924 49.8433 164.208 47.46C165.491 45.0767 167.288 43.2433 169.598 41.96C171.908 40.6767 174.566 40.035 177.573 40.035C180.469 40.035 183.054 40.6583 185.328 41.905C187.638 43.1517 189.416 44.93 190.663 47.24C191.946 49.5133 192.588 52.135 192.588 55.105ZM184.613 52.905C184.576 50.925 183.861 49.3483 182.468 48.175C181.074 46.965 179.369 46.36 177.353 46.36C175.446 46.36 173.833 46.9467 172.513 48.12C171.229 49.2567 170.441 50.8517 170.148 52.905H184.613ZM207.173 46.855V61.595C207.173 62.6217 207.411 63.3733 207.888 63.85C208.401 64.29 209.245 64.51 210.418 64.51H213.993V71H209.153C202.663 71 199.418 67.8467 199.418 61.54V46.855H195.788V40.53H199.418V32.995H207.173V40.53H213.993V46.855H207.173ZM217.551 55.655C217.551 52.575 218.156 49.8433 219.366 47.46C220.613 45.0767 222.281 43.2433 224.371 41.96C226.498 40.6767 228.863 40.035 231.466 40.035C233.74 40.035 235.72 40.4933 237.406 41.41C239.13 42.3267 240.505 43.4817 241.531 44.875V40.53H249.286V71H241.531V66.545C240.541 67.975 239.166 69.1667 237.406 70.12C235.683 71.0367 233.685 71.495 231.411 71.495C228.845 71.495 226.498 70.835 224.371 69.515C222.281 68.195 220.613 66.3433 219.366 63.96C218.156 61.54 217.551 58.7717 217.551 55.655ZM241.531 55.765C241.531 53.895 241.165 52.3 240.431 50.98C239.698 49.6233 238.708 48.5967 237.461 47.9C236.215 47.1667 234.876 46.8 233.446 46.8C232.016 46.8 230.696 47.1483 229.486 47.845C228.276 48.5417 227.286 49.5683 226.516 50.925C225.783 52.245 225.416 53.8217 225.416 55.655C225.416 57.4883 225.783 59.1017 226.516 60.495C227.286 61.8517 228.276 62.8967 229.486 63.63C230.733 64.3633 232.053 64.73 233.446 64.73C234.876 64.73 236.215 64.3817 237.461 63.685C238.708 62.9517 239.698 61.925 240.431 60.605C241.165 59.2483 241.531 57.635 241.531 55.765ZM282.932 32.61V38.825H272.702V71H265.002V38.825H254.772V32.61H282.932ZM296.25 45.26C297.24 43.6467 298.523 42.3817 300.1 41.465C301.713 40.5483 303.547 40.09 305.6 40.09V48.175H303.565C301.145 48.175 299.312 48.7433 298.065 49.88C296.855 51.0167 296.25 52.9967 296.25 55.82V71H288.55V40.53H296.25V45.26ZM308.806 55.655C308.806 52.575 309.411 49.8433 310.621 47.46C311.868 45.0767 313.536 43.2433 315.626 41.96C317.753 40.6767 320.118 40.035 322.721 40.035C324.995 40.035 326.975 40.4933 328.661 41.41C330.385 42.3267 331.76 43.4817 332.786 44.875V40.53H340.541V71H332.786V66.545C331.796 67.975 330.421 69.1667 328.661 70.12C326.938 71.0367 324.94 71.495 322.666 71.495C320.1 71.495 317.753 70.835 315.626 69.515C313.536 68.195 311.868 66.3433 310.621 63.96C309.411 61.54 308.806 58.7717 308.806 55.655ZM332.786 55.765C332.786 53.895 332.42 52.3 331.686 50.98C330.953 49.6233 329.963 48.5967 328.716 47.9C327.47 47.1667 326.131 46.8 324.701 46.8C323.271 46.8 321.951 47.1483 320.741 47.845C319.531 48.5417 318.541 49.5683 317.771 50.925C317.038 52.245 316.671 53.8217 316.671 55.655C316.671 57.4883 317.038 59.1017 317.771 60.495C318.541 61.8517 319.531 62.8967 320.741 63.63C321.988 64.3633 323.308 64.73 324.701 64.73C326.131 64.73 327.47 64.3817 328.716 63.685C329.963 62.9517 330.953 61.925 331.686 60.605C332.42 59.2483 332.786 57.635 332.786 55.765ZM346.082 55.655C346.082 52.575 346.687 49.8433 347.897 47.46C349.143 45.0767 350.83 43.2433 352.957 41.96C355.083 40.6767 357.448 40.035 360.052 40.035C362.032 40.035 363.92 40.475 365.717 41.355C367.513 42.1983 368.943 43.335 370.007 44.765V30.3H377.817V71H370.007V66.49C369.053 67.9933 367.715 69.2033 365.992 70.12C364.268 71.0367 362.27 71.495 359.997 71.495C357.43 71.495 355.083 70.835 352.957 69.515C350.83 68.195 349.143 66.3433 347.897 63.96C346.687 61.54 346.082 58.7717 346.082 55.655ZM370.062 55.765C370.062 53.895 369.695 52.3 368.962 50.98C368.228 49.6233 367.238 48.5967 365.992 47.9C364.745 47.1667 363.407 46.8 361.977 46.8C360.547 46.8 359.227 47.1483 358.017 47.845C356.807 48.5417 355.817 49.5683 355.047 50.925C354.313 52.245 353.947 53.8217 353.947 55.655C353.947 57.4883 354.313 59.1017 355.047 60.495C355.817 61.8517 356.807 62.8967 358.017 63.63C359.263 64.3633 360.583 64.73 361.977 64.73C363.407 64.73 364.745 64.3817 365.992 63.685C367.238 62.9517 368.228 61.925 368.962 60.605C369.695 59.2483 370.062 57.635 370.062 55.765ZM413.662 55.105C413.662 56.205 413.589 57.195 413.442 58.075H391.167C391.35 60.275 392.12 61.9983 393.477 63.245C394.834 64.4917 396.502 65.115 398.482 65.115C401.342 65.115 403.377 63.8867 404.587 61.43H412.892C412.012 64.3633 410.325 66.7833 407.832 68.69C405.339 70.56 402.277 71.495 398.647 71.495C395.714 71.495 393.074 70.8533 390.727 69.57C388.417 68.25 386.602 66.3983 385.282 64.015C383.999 61.6317 383.357 58.8817 383.357 55.765C383.357 52.6117 383.999 49.8433 385.282 47.46C386.565 45.0767 388.362 43.2433 390.672 41.96C392.982 40.6767 395.64 40.035 398.647 40.035C401.544 40.035 404.129 40.6583 406.402 41.905C408.712 43.1517 410.49 44.93 411.737 47.24C413.02 49.5133 413.662 52.135 413.662 55.105ZM405.687 52.905C405.65 50.925 404.935 49.3483 403.542 48.175C402.149 46.965 400.444 46.36 398.427 46.36C396.52 46.36 394.907 46.9467 393.587 48.12C392.304 49.2567 391.515 50.8517 391.222 52.905H405.687ZM426.982 45.26C427.972 43.6467 429.256 42.3817 430.832 41.465C432.446 40.5483 434.279 40.09 436.332 40.09V48.175H434.297C431.877 48.175 430.044 48.7433 428.797 49.88C427.587 51.0167 426.982 52.9967 426.982 55.82V71H419.282V40.53H426.982V45.26ZM440.309 63.19V57.14L458.294 31.4H467.259V56.48H472.099V63.19H467.259V71H459.559V63.19H440.309ZM460.054 39.65L448.779 56.48H460.054V39.65Z" fill="white"/>
<defs>
<linearGradient id="paint0_linear_1866_250" x1="23.7196" y1="39.4679" x2="43.5194" y2="14.2264" gradientUnits="userSpaceOnUse">
<stop stop-color="#559943"/>
<stop offset="1" stop-color="#A8D38D"/>
</linearGradient>
<linearGradient id="paint1_linear_1866_250" x1="24.2099" y1="45.2577" x2="34.3827" y2="15.6756" gradientUnits="userSpaceOnUse">
<stop stop-color="#ABCE9C"/>
<stop offset="0.78" stop-color="#E5F1DE"/>
</linearGradient>
<linearGradient id="paint2_linear_1866_250" x1="30.414" y1="13.418" x2="23.2349" y2="57.0808" gradientUnits="userSpaceOnUse">
<stop stop-color="#49803D"/>
<stop offset="1" stop-color="#2F5629"/>
</linearGradient>
<linearGradient id="paint3_linear_1866_250" x1="35.2395" y1="15.9953" x2="40.7755" y2="30.1277" gradientUnits="userSpaceOnUse">
<stop stop-color="#4D8F41"/>
<stop offset="1" stop-color="#ACD488"/>
</linearGradient>
<linearGradient id="paint4_linear_1866_250" x1="46.7247" y1="61.7345" x2="62.7229" y2="76.1196" gradientUnits="userSpaceOnUse">
<stop offset="0.29" stop-color="#00699F"/>
<stop offset="1" stop-color="#154270"/>
</linearGradient>
<linearGradient id="paint5_linear_1866_250" x1="48.0275" y1="78.9743" x2="79.7397" y2="74.1368" gradientUnits="userSpaceOnUse">
<stop stop-color="#1E6AA0"/>
<stop offset="1" stop-color="#3997C6"/>
</linearGradient>
<linearGradient id="paint6_linear_1866_250" x1="43.2277" y1="75.7005" x2="73.99" y2="81.3813" gradientUnits="userSpaceOnUse">
<stop stop-color="#ABCE9C"/>
<stop offset="0.78" stop-color="#E5F1DE"/>
</linearGradient>
<linearGradient id="paint7_linear_1866_250" x1="74.0033" y1="85.9458" x2="32.4492" y2="70.7386" gradientUnits="userSpaceOnUse">
<stop stop-color="#154270"/>
<stop offset="1" stop-color="#00699F"/>
</linearGradient>
<linearGradient id="paint8_linear_1866_250" x1="74.1312" y1="80.4794" x2="64.5457" y2="68.7104" gradientUnits="userSpaceOnUse">
<stop stop-color="#07638F"/>
<stop offset="1" stop-color="#4CA6D0"/>
</linearGradient>
<linearGradient id="paint9_linear_1866_250" x1="52.7141" y1="47.7282" x2="73.3393" y2="53.8478" gradientUnits="userSpaceOnUse">
<stop offset="0.29" stop-color="#00699F"/>
<stop offset="1" stop-color="#154270"/>
</linearGradient>
<linearGradient id="paint10_linear_1866_250" x1="68.0921" y1="39.823" x2="80.549" y2="69.3863" gradientUnits="userSpaceOnUse">
<stop stop-color="#1E6AA0"/>
<stop offset="1" stop-color="#3997C6"/>
</linearGradient>
<linearGradient id="paint11_linear_1866_250" x1="62.7923" y1="37.4412" x2="83.7164" y2="60.6965" gradientUnits="userSpaceOnUse">
<stop stop-color="#ABCE9C"/>
<stop offset="0.78" stop-color="#E5F1DE"/>
</linearGradient>
<linearGradient id="paint12_linear_1866_250" x1="87.6176" y1="58.3208" x2="52.9289" y2="30.8495" gradientUnits="userSpaceOnUse">
<stop stop-color="#154270"/>
<stop offset="1" stop-color="#00699F"/>
</linearGradient>
<linearGradient id="paint13_linear_1866_250" x1="83.0217" y1="61.2887" x2="67.9778" y2="59.2702" gradientUnits="userSpaceOnUse">
<stop stop-color="#07638F"/>
<stop offset="1" stop-color="#4CA6D0"/>
</linearGradient>
<radialGradient id="paint14_radial_1866_250" cx="0" cy="0" r="1" gradientUnits="userSpaceOnUse" gradientTransform="translate(19.2975 57.5435) scale(20.5343)">
<stop stop-color="#A89D36"/>
<stop offset="1" stop-color="#E3D940"/>
</radialGradient>
<linearGradient id="paint15_linear_1866_250" x1="19.1557" y1="45.7008" x2="15.3078" y2="77.5471" gradientUnits="userSpaceOnUse">
<stop stop-color="#C4B03F"/>
<stop offset="1" stop-color="#EFE446"/>
</linearGradient>
<linearGradient id="paint16_linear_1866_250" x1="23.5961" y1="41.9535" x2="9.87159" y2="70.0645" gradientUnits="userSpaceOnUse">
<stop stop-color="#F3EDA5"/>
<stop offset="0.78" stop-color="#E5F1DE"/>
</linearGradient>
<linearGradient id="paint17_linear_1866_250" x1="5.46924" y1="68.8543" x2="31.2684" y2="32.9024" gradientUnits="userSpaceOnUse">
<stop stop-color="#8B8031"/>
<stop offset="1" stop-color="#8E8235"/>
</linearGradient>
<linearGradient id="paint18_linear_1866_250" x1="10.7038" y1="70.4439" x2="24.6115" y2="64.3653" gradientUnits="userSpaceOnUse">
<stop stop-color="#A99E35"/>
<stop offset="1" stop-color="#EDE242"/>
</linearGradient>
<linearGradient id="paint19_linear_1866_250" x1="67.6878" y1="39.4679" x2="47.888" y2="14.2264" gradientUnits="userSpaceOnUse">
<stop stop-color="#559943"/>
<stop offset="1" stop-color="#A8D38D"/>
</linearGradient>
<linearGradient id="paint20_linear_1866_250" x1="67.1957" y1="45.2577" x2="57.0228" y2="15.6756" gradientUnits="userSpaceOnUse">
<stop stop-color="#ABCE9C"/>
<stop offset="0.78" stop-color="#E5F1DE"/>
</linearGradient>
<linearGradient id="paint21_linear_1866_250" x1="60.9917" y1="13.418" x2="68.1726" y2="57.0808" gradientUnits="userSpaceOnUse">
<stop stop-color="#49803D"/>
<stop offset="1" stop-color="#2F5629"/>
</linearGradient>
<linearGradient id="paint22_linear_1866_250" x1="56.1681" y1="15.9953" x2="50.6302" y2="30.1277" gradientUnits="userSpaceOnUse">
<stop stop-color="#4D8F41"/>
<stop offset="1" stop-color="#ACD488"/>
</linearGradient>
<radialGradient id="paint23_radial_1866_250" cx="0" cy="0" r="1" gradientUnits="userSpaceOnUse" gradientTransform="translate(37.7909 75.6502) rotate(-90) scale(20.6065)">
<stop stop-color="#A89D36"/>
<stop offset="1" stop-color="#E3D940"/>
</radialGradient>
<linearGradient id="paint24_linear_1866_250" x1="49.635" y1="75.9771" x2="17.7874" y2="79.8262" gradientUnits="userSpaceOnUse">
<stop stop-color="#C4B03F"/>
<stop offset="1" stop-color="#EFE446"/>
</linearGradient>
<linearGradient id="paint25_linear_1866_250" x1="53.3819" y1="71.5367" x2="25.2696" y2="85.2625" gradientUnits="userSpaceOnUse">
<stop stop-color="#F3EDA5"/>
<stop offset="0.78" stop-color="#E5F1DE"/>
</linearGradient>
<linearGradient id="paint26_linear_1866_250" x1="26.481" y1="89.6636" x2="62.4316" y2="63.8657" gradientUnits="userSpaceOnUse">
<stop stop-color="#8B8031"/>
<stop offset="1" stop-color="#8E8235"/>
</linearGradient>
<linearGradient id="paint27_linear_1866_250" x1="24.89" y1="84.4303" x2="30.9699" y2="70.5213" gradientUnits="userSpaceOnUse">
<stop stop-color="#A99E35"/>
<stop offset="1" stop-color="#EDE242"/>
</linearGradient>
<linearGradient id="paint28_linear_1866_250" x1="46.7247" y1="61.7345" x2="62.7229" y2="76.1196" gradientUnits="userSpaceOnUse">
<stop offset="0.29" stop-color="#00699F"/>
<stop offset="1" stop-color="#154270"/>
</linearGradient>
<linearGradient id="paint29_linear_1866_250" x1="48.0275" y1="78.9743" x2="79.7397" y2="74.1368" gradientUnits="userSpaceOnUse">
<stop stop-color="#1E6AA0"/>
<stop offset="1" stop-color="#3997C6"/>
</linearGradient>
<linearGradient id="paint30_linear_1866_250" x1="43.2277" y1="75.7005" x2="73.99" y2="81.3813" gradientUnits="userSpaceOnUse">
<stop stop-color="#ABCE9C"/>
<stop offset="0.78" stop-color="#E5F1DE"/>
</linearGradient>
<linearGradient id="paint31_linear_1866_250" x1="74.0033" y1="85.9458" x2="32.4492" y2="70.7386" gradientUnits="userSpaceOnUse">
<stop stop-color="#154270"/>
<stop offset="1" stop-color="#00699F"/>
</linearGradient>
<linearGradient id="paint32_linear_1866_250" x1="74.1312" y1="80.4794" x2="64.5457" y2="68.7104" gradientUnits="userSpaceOnUse">
<stop stop-color="#07638F"/>
<stop offset="1" stop-color="#4CA6D0"/>
</linearGradient>
<radialGradient id="paint33_radial_1866_250" cx="0" cy="0" r="1" gradientUnits="userSpaceOnUse" gradientTransform="translate(17.9061 77.0937) rotate(-135) scale(10.6021 11.7683)">
<stop stop-color="#E9DE4D"/>
<stop offset="0.16" stop-color="#E4D94B"/>
<stop offset="0.35" stop-color="#D6CC47"/>
<stop offset="0.54" stop-color="#C0B641"/>
<stop offset="0.74" stop-color="#A09838"/>
<stop offset="0.9" stop-color="#837C30"/>
</radialGradient>
<linearGradient id="paint34_linear_1866_250" x1="8.84401" y1="86.0663" x2="19.1354" y2="75.911" gradientUnits="userSpaceOnUse">
<stop stop-color="#8D8232"/>
<stop offset="1" stop-color="#82782F"/>
</linearGradient>
<linearGradient id="paint35_linear_1866_250" x1="11.0452" y1="79.6893" x2="18.9182" y2="69.6534" gradientUnits="userSpaceOnUse">
<stop stop-color="#A2D187" stop-opacity="0"/>
<stop offset="1" stop-color="#FDF7C0"/>
</linearGradient>
<radialGradient id="paint36_radial_1866_250" cx="0" cy="0" r="1" gradientUnits="userSpaceOnUse" gradientTransform="translate(80.944 73.0836) rotate(119.44) scale(10.6021 11.7683)">
<stop stop-color="#65B7DC"/>
<stop offset="0.14" stop-color="#5FB1D6"/>
<stop offset="0.31" stop-color="#4EA0C7"/>
<stop offset="0.51" stop-color="#3485AE"/>
<stop offset="0.73" stop-color="#0E608B"/>
<stop offset="0.8" stop-color="#00517E"/>
</radialGradient>
<linearGradient id="paint37_linear_1866_250" x1="89.7362" y1="78.1133" x2="77.1924" y2="70.9232" gradientUnits="userSpaceOnUse">
<stop stop-color="#183F6E"/>
<stop offset="1" stop-color="#0C6BA1"/>
</linearGradient>
<linearGradient id="paint38_linear_1866_250" x1="80.0601" y1="71.1908" x2="77.5041" y2="65.0061" gradientUnits="userSpaceOnUse">
<stop stop-color="#A2D187" stop-opacity="0"/>
<stop offset="1" stop-color="#99CADD"/>
</linearGradient>
<radialGradient id="paint39_radial_1866_250" cx="0" cy="0" r="1" gradientUnits="userSpaceOnUse" gradientTransform="translate(46.3709 13.507) scale(10.6021 11.7683)">
<stop stop-color="#A2D187"/>
<stop offset="0.76" stop-color="#2A7239"/>
</radialGradient>
<linearGradient id="paint40_linear_1866_250" x1="46.4355" y1="3.63209" x2="46.3412" y2="18.092" gradientUnits="userSpaceOnUse">
<stop stop-color="#4B833E"/>
<stop offset="1" stop-color="#254D25"/>
</linearGradient>
<linearGradient id="paint41_linear_1866_250" x1="40.8828" y1="13.5845" x2="48.7557" y2="3.54679" gradientUnits="userSpaceOnUse">
<stop stop-color="#A2D187" stop-opacity="0"/>
<stop offset="1" stop-color="#CBDEC5"/>
</linearGradient>
<linearGradient id="paint42_linear_1866_250" x1="24.7373" y1="52.1815" x2="67.6452" y2="52.1815" gradientUnits="userSpaceOnUse">
<stop stop-color="#DADBDF"/>
<stop offset="0.1" stop-color="#DADBDF" stop-opacity="0.99"/>
<stop offset="0.18" stop-color="#DBDCE0" stop-opacity="0.94"/>
<stop offset="0.25" stop-color="#DDDEE2" stop-opacity="0.87"/>
<stop offset="0.31" stop-color="#E1E1E5" stop-opacity="0.77"/>
<stop offset="0.37" stop-color="#E5E5E8" stop-opacity="0.64"/>
<stop offset="0.43" stop-color="#EAEAED" stop-opacity="0.48"/>
<stop offset="0.49" stop-color="#F0F0F2" stop-opacity="0.28"/>
<stop offset="0.54" stop-color="#F6F6F8" stop-opacity="0.07"/>
<stop offset="0.55" stop-color="#F9F9FA" stop-opacity="0"/>
</linearGradient>
<radialGradient id="paint43_radial_1866_250" cx="0" cy="0" r="1" gradientUnits="userSpaceOnUse" gradientTransform="translate(45.3587 51.6338) scale(12.073)">
<stop stop-color="#F27B2B"/>
<stop offset="0.33" stop-color="#F17D2D"/>
<stop offset="0.57" stop-color="#F18537"/>
<stop offset="0.79" stop-color="#F19447"/>
<stop offset="0.83" stop-color="#F1984C"/>
</radialGradient>
</defs>
</svg>
