<svg width="496" height="83" viewBox="0 0 496 83" fill="none" xmlns="http://www.w3.org/2000/svg">
<rect y="10.8237" width="50.6471" height="25.9412" fill="white"/>
<rect x="50.647" y="23.5884" width="50.2353" height="25.5294" transform="rotate(90 50.647 23.5884)" fill="white"/>
<path d="M126 10.8237L98.4119 73.8237L67.9413 73.8237L95.5294 10.8237L126 10.8237Z" fill="white"/>
<circle cx="69.5883" cy="22.7647" r="12.7647" fill="white"/>
<path d="M172.92 22.61V28.825H162.69V61H154.99V28.825H144.76V22.61H172.92ZM186.238 35.26C187.228 33.6467 188.511 32.3817 190.088 31.465C191.701 30.5483 193.535 30.09 195.588 30.09V38.175H193.553C191.133 38.175 189.3 38.7433 188.053 39.88C186.843 41.0167 186.238 42.9967 186.238 45.82V61H178.538V30.53H186.238V35.26ZM198.794 45.655C198.794 42.575 199.399 39.8433 200.609 37.46C201.856 35.0767 203.524 33.2433 205.614 31.96C207.741 30.6767 210.106 30.035 212.709 30.035C214.983 30.035 216.963 30.4933 218.649 31.41C220.373 32.3267 221.748 33.4817 222.774 34.875V30.53H230.529V61H222.774V56.545C221.784 57.975 220.409 59.1667 218.649 60.12C216.926 61.0367 214.928 61.495 212.654 61.495C210.088 61.495 207.741 60.835 205.614 59.515C203.524 58.195 201.856 56.3433 200.609 53.96C199.399 51.54 198.794 48.7717 198.794 45.655ZM222.774 45.765C222.774 43.895 222.408 42.3 221.674 40.98C220.941 39.6233 219.951 38.5967 218.704 37.9C217.458 37.1667 216.119 36.8 214.689 36.8C213.259 36.8 211.939 37.1483 210.729 37.845C209.519 38.5417 208.529 39.5683 207.759 40.925C207.026 42.245 206.659 43.8217 206.659 45.655C206.659 47.4883 207.026 49.1017 207.759 50.495C208.529 51.8517 209.519 52.8967 210.729 53.63C211.976 54.3633 213.296 54.73 214.689 54.73C216.119 54.73 217.458 54.3817 218.704 53.685C219.951 52.9517 220.941 51.925 221.674 50.605C222.408 49.2483 222.774 47.635 222.774 45.765ZM236.07 45.655C236.07 42.575 236.675 39.8433 237.885 37.46C239.132 35.0767 240.818 33.2433 242.945 31.96C245.072 30.6767 247.437 30.035 250.04 30.035C252.02 30.035 253.908 30.475 255.705 31.355C257.502 32.1983 258.932 33.335 259.995 34.765V20.3H267.805V61H259.995V56.49C259.042 57.9933 257.703 59.2033 255.98 60.12C254.257 61.0367 252.258 61.495 249.985 61.495C247.418 61.495 245.072 60.835 242.945 59.515C240.818 58.195 239.132 56.3433 237.885 53.96C236.675 51.54 236.07 48.7717 236.07 45.655ZM260.05 45.765C260.05 43.895 259.683 42.3 258.95 40.98C258.217 39.6233 257.227 38.5967 255.98 37.9C254.733 37.1667 253.395 36.8 251.965 36.8C250.535 36.8 249.215 37.1483 248.005 37.845C246.795 38.5417 245.805 39.5683 245.035 40.925C244.302 42.245 243.935 43.8217 243.935 45.655C243.935 47.4883 244.302 49.1017 245.035 50.495C245.805 51.8517 246.795 52.8967 248.005 53.63C249.252 54.3633 250.572 54.73 251.965 54.73C253.395 54.73 254.733 54.3817 255.98 53.685C257.227 52.9517 258.217 51.925 258.95 50.605C259.683 49.2483 260.05 47.635 260.05 45.765ZM279.23 26.9C277.874 26.9 276.737 26.4783 275.82 25.635C274.94 24.755 274.5 23.6733 274.5 22.39C274.5 21.1067 274.94 20.0433 275.82 19.2C276.737 18.32 277.874 17.88 279.23 17.88C280.587 17.88 281.705 18.32 282.585 19.2C283.502 20.0433 283.96 21.1067 283.96 22.39C283.96 23.6733 283.502 24.755 282.585 25.635C281.705 26.4783 280.587 26.9 279.23 26.9ZM283.025 30.53V61H275.325V30.53H283.025ZM307.518 30.09C311.148 30.09 314.081 31.245 316.318 33.555C318.555 35.8283 319.673 39.0183 319.673 43.125V61H311.973V44.17C311.973 41.75 311.368 39.8983 310.158 38.615C308.948 37.295 307.298 36.635 305.208 36.635C303.081 36.635 301.395 37.295 300.148 38.615C298.938 39.8983 298.333 41.75 298.333 44.17V61H290.633V30.53H298.333V34.325C299.36 33.005 300.661 31.9783 302.238 31.245C303.851 30.475 305.611 30.09 307.518 30.09ZM338.93 30.035C341.204 30.035 343.202 30.4933 344.925 31.41C346.649 32.29 348.005 33.445 348.995 34.875V30.53H356.75V61.22C356.75 64.0433 356.182 66.555 355.045 68.755C353.909 70.9917 352.204 72.7517 349.93 74.035C347.657 75.355 344.907 76.015 341.68 76.015C337.354 76.015 333.797 75.0067 331.01 72.99C328.26 70.9733 326.702 68.2233 326.335 64.74H333.98C334.384 66.1333 335.245 67.2333 336.565 68.04C337.922 68.8833 339.554 69.305 341.46 69.305C343.697 69.305 345.512 68.6267 346.905 67.27C348.299 65.95 348.995 63.9333 348.995 61.22V56.49C348.005 57.92 346.63 59.1117 344.87 60.065C343.147 61.0183 341.167 61.495 338.93 61.495C336.364 61.495 334.017 60.835 331.89 59.515C329.764 58.195 328.077 56.3433 326.83 53.96C325.62 51.54 325.015 48.7717 325.015 45.655C325.015 42.575 325.62 39.8433 326.83 37.46C328.077 35.0767 329.745 33.2433 331.835 31.96C333.962 30.6767 336.327 30.035 338.93 30.035ZM348.995 45.765C348.995 43.895 348.629 42.3 347.895 40.98C347.162 39.6233 346.172 38.5967 344.925 37.9C343.679 37.1667 342.34 36.8 340.91 36.8C339.48 36.8 338.16 37.1483 336.95 37.845C335.74 38.5417 334.75 39.5683 333.98 40.925C333.247 42.245 332.88 43.8217 332.88 45.655C332.88 47.4883 333.247 49.1017 333.98 50.495C334.75 51.8517 335.74 52.8967 336.95 53.63C338.197 54.3633 339.517 54.73 340.91 54.73C342.34 54.73 343.679 54.3817 344.925 53.685C346.172 52.9517 347.162 51.925 347.895 50.605C348.629 49.2483 348.995 47.635 348.995 45.765ZM398.756 22.61L384.676 61H375.326L361.246 22.61H369.496L380.056 53.135L390.561 22.61H398.756ZM407.277 26.9C405.92 26.9 404.784 26.4783 403.867 25.635C402.987 24.755 402.547 23.6733 402.547 22.39C402.547 21.1067 402.987 20.0433 403.867 19.2C404.784 18.32 405.92 17.88 407.277 17.88C408.634 17.88 409.752 18.32 410.632 19.2C411.549 20.0433 412.007 21.1067 412.007 22.39C412.007 23.6733 411.549 24.755 410.632 25.635C409.752 26.4783 408.634 26.9 407.277 26.9ZM411.072 30.53V61H403.372V30.53H411.072ZM447.005 45.105C447.005 46.205 446.931 47.195 446.785 48.075H424.51C424.693 50.275 425.463 51.9983 426.82 53.245C428.176 54.4917 429.845 55.115 431.825 55.115C434.685 55.115 436.72 53.8867 437.93 51.43H446.235C445.355 54.3633 443.668 56.7833 441.175 58.69C438.681 60.56 435.62 61.495 431.99 61.495C429.056 61.495 426.416 60.8533 424.07 59.57C421.76 58.25 419.945 56.3983 418.625 54.015C417.341 51.6317 416.7 48.8817 416.7 45.765C416.7 42.6117 417.341 39.8433 418.625 37.46C419.908 35.0767 421.705 33.2433 424.015 31.96C426.325 30.6767 428.983 30.035 431.99 30.035C434.886 30.035 437.471 30.6583 439.745 31.905C442.055 33.1517 443.833 34.93 445.08 37.24C446.363 39.5133 447.005 42.135 447.005 45.105ZM439.03 42.905C438.993 40.925 438.278 39.3483 436.885 38.175C435.491 36.965 433.786 36.36 431.77 36.36C429.863 36.36 428.25 36.9467 426.93 38.12C425.646 39.2567 424.858 40.8517 424.565 42.905H439.03ZM494.865 30.53L485.955 61H477.65L472.095 39.715L466.54 61H458.18L449.215 30.53H457.025L462.415 53.74L468.245 30.53H476.385L482.105 53.685L487.495 30.53H494.865Z" fill="white"/>
</svg>
