<svg width="470" height="109" viewBox="0 0 470 109" fill="none" xmlns="http://www.w3.org/2000/svg">
<path d="M2.98096 104.279C3.00863 104.224 2.98851 104.203 3.04782 104.185C5.03424 103.603 132.649 66.2266 216.341 52.6332C295.187 39.8271 417.692 34.7064 433.346 34.0926C434.313 34.0547 435.127 34.746 435.283 35.7017C435.47 36.855 434.674 37.9062 433.506 37.9326C416.089 38.327 295.809 41.4608 216.75 54.3015C134.303 67.6926 11.5857 102.233 3.20767 104.603C3.02132 104.655 2.89426 104.452 2.98096 104.279Z" fill="url(#paint0_linear_22_1081)"/>
<g filter="url(#filter0_f_22_1081)">
<ellipse cx="417.586" cy="37.2583" rx="19.75" ry="5.25" transform="rotate(-0.882222 417.586 37.2583)" fill="white"/>
</g>
<defs>
<filter id="filter0_f_22_1081" x="365.838" y="-7.62939e-06" width="103.496" height="74.5166" filterUnits="userSpaceOnUse" color-interpolation-filters="sRGB">
<feFlood flood-opacity="0" result="BackgroundImageFix"/>
<feBlend mode="normal" in="SourceGraphic" in2="BackgroundImageFix" result="shape"/>
<feGaussianBlur stdDeviation="16" result="effect1_foregroundBlur_22_1081"/>
</filter>
<linearGradient id="paint0_linear_22_1081" x1="435.923" y1="35.7462" x2="72.9933" y2="84.6416" gradientUnits="userSpaceOnUse">
<stop stop-color="white"/>
<stop offset="0.526042" stop-color="white" stop-opacity="0.15"/>
<stop offset="1" stop-color="white" stop-opacity="0"/>
</linearGradient>
</defs>
</svg>
