<svg width="368" height="212" viewBox="0 0 368 212" fill="none" xmlns="http://www.w3.org/2000/svg">
<g opacity="0.5">
<mask id="path-1-inside-1_2123_22" fill="white">
<path d="M209.768 152.12H212.17V159.836H209.768V165.88H209.352V159.836H206.953V152.12H209.352V141.601H209.768V152.12ZM73.9551 141.329H76.3564V150.552H73.9551V163.431H73.5381V150.552H71.1396V141.329H73.5381V125.543H73.9551V141.329ZM67.4883 135.304H69.8896V141.329H67.4883V162.44H67.0713V141.329H64.6729V135.304H67.0713V129.44H67.4883V135.304ZM80.4219 150.552H82.8232V158.301H80.4219V162.419H80.0049V158.301H77.6064V150.552H80.0049V134.957H80.4219V150.552ZM93.3584 137.519H95.7598V145.942H93.3584V162.138H92.9414V145.942H90.543V137.519H92.9414V127.854H93.3584V137.519ZM203.301 145.942H205.703V159.84H200.486V145.942H202.885V138.425H203.301V145.942ZM86.8916 145.942H89.29V158.301H84.0732V145.942H86.4746V123.408H86.8916V145.942ZM216.234 143.728H218.637V152.12H216.234V156.61H215.818V152.12H213.42V143.728H215.818V139.234H216.234V143.728ZM306.777 143.912H309.176V153.995H303.959V143.912H306.361V131.146H306.777V143.912ZM313.244 134.473H315.646V153.995H310.429V134.473H312.828V128.859H313.244V134.473ZM15.752 134.317H18.1504V146.491H15.752V153.742H15.335V146.491H12.9336V134.317H15.335V115.793H15.752V134.317ZM9.28223 138.399H11.6836V146.495H9.28223V151.206H8.86523V146.495H6.4668V138.399H8.86523V131.456H9.28223V138.399ZM22.2188 129.155H24.6201V134.322H22.2188V150.913H21.8018V134.322H19.4033V129.155H21.8018V115.991H22.2188V129.155ZM339.114 132.721H341.513V139.36H339.114V149.945H338.697V139.36H336.296V132.721H338.697V126.685H339.114V132.721ZM300.311 139.36H302.709V143.913H300.311V147.186H299.895V143.913H297.492V139.36H299.895V127.11H300.311V139.36ZM196.835 140.408H199.233V145.942H194.017V140.408H196.418V122.833H196.835V140.408ZM326.178 127.432H328.579V136.286H326.178V145.938H325.761V136.286H323.362V127.432H325.761V122.88H326.178V127.432ZM222.701 138.931H225.104V143.729H222.701V145.834H222.285V143.729H219.886V138.931H222.285V128.458H222.701V138.931ZM170.965 128.849H173.366V138.316H170.965V145.596H170.548V138.316H168.149V128.849H170.548V119.878H170.965V128.849ZM332.645 136.286H335.046V139.362H332.645V143.912H332.228V139.362H329.829V136.286H332.228V120.547H332.645V136.286ZM61.0215 120.73H63.4238V135.304H61.0215V143.508H60.6055V135.304H58.2061V120.73H60.6055V108.586H61.0215V120.73ZM248.571 124.296H250.973V130.322H248.571V142.897H248.154V130.322H245.756V124.296H248.154V122.107H248.571V124.296ZM190.364 130.322H192.767V140.404H190.364V142.001H189.948V140.404H187.55V130.322H189.948V123.007H190.364V130.322ZM186.3 134.134H183.898V141.185H183.481V134.134H181.083V130.322H186.3V134.134ZM270.373 134.137H267.975V141.182H267.558V134.137H265.156V120.73H270.373V134.137ZM160.43 119.748H158.031V140.521H157.615V119.748H155.213V97.4268H160.43V119.748ZM293.841 129.585H296.243V139.36H293.841V140.361H293.425V139.36H291.026V129.585H293.425V120.286H293.841V129.585ZM177.432 134.133H179.833V138.313H177.432V139.718H177.015V138.313H174.616V134.133H177.015V122.577H177.432V134.133ZM235.638 127.002H238.036V135.365H235.638V139.147H235.222V135.365H232.819V127.002H235.222V123.949H235.638V127.002ZM229.171 135.365H231.569V138.932H226.353V135.365H228.755V125.716H229.171V135.365ZM2.81543 128.292H5.2168V138.399H0V128.292H2.39844V111.779H2.81543V128.292ZM345.581 106.097H347.982V132.721H345.581V137.825H345.164V132.721H342.766V106.097H345.164V100.255H345.581V106.097ZM99.8252 121.652H102.227V137.515H99.8252V137.565H99.4082V137.515H97.0098V121.652H99.4082V117.086H99.8252V121.652ZM319.711 127.432H322.112V134.473H319.711V137.37H319.294V134.473H316.896V127.432H319.294V114.312H319.711V127.432ZM287.374 124.882H289.776V129.586H287.374V136.341H286.958V129.586H284.56V124.882H286.958V113.657H287.374V124.882ZM255.038 124.296H257.439V134.133H255.038V134.877H254.621V134.133H252.223V124.296H254.621V119.712H255.038V124.296ZM242.104 127.002H244.506V130.323H242.104V134.343H241.688V130.323H239.289V127.002H241.688V113.553H242.104V127.002ZM261.505 129.585H263.906V134.138H258.689V129.585H261.088V117.718H261.505V129.585ZM164.498 119.744H166.896V128.845H164.498V132.797H164.081V128.845H161.68V119.744H164.081V109.872H164.498V119.744ZM274.441 115.626H276.843V120.731H274.441V131.312H274.024V120.731H271.626V115.626H274.024V114.354H274.441V115.626ZM132.161 120.301H134.563V125.222H132.161V131.182H131.745V125.222H129.347V120.301H131.745V104.25H132.161V120.301ZM48.0879 100.255H50.4873V116.117H48.0879V130.759H47.6719V116.117H45.2695V100.255H47.6719V92.8096H48.0879V100.255ZM54.5547 116.117H56.9531V120.731H54.5547V130.304H54.1387V120.731H51.7363V116.117H54.1387V102.795H54.5547V116.117ZM283.31 124.882H280.907V129.932H280.491V124.882H278.093V115.626H283.31V124.882ZM106.292 121.652H108.693V124.359H106.292V129.791H105.875V124.359H103.477V121.652H105.875V115.287H106.292V121.652ZM141.03 125.218H138.628V129.787H138.212V125.218H135.812V116.24H141.03V125.218ZM28.6846 112.307H31.0869V129.155H25.8701V112.307H28.2686V105.161H28.6846V112.307ZM364.98 112.552H367.383V120.254H364.98V129.115H364.564V120.254H362.166V112.552H364.564V109.615H364.98V112.552ZM145.095 111.074H147.496V116.241H145.095V125.843H144.678V116.241H142.279V111.074H144.678V109.232H145.095V111.074ZM119.229 109.478H121.627V116.24H119.229V125.401H118.812V116.24H116.41V109.478H118.812V94.4424H119.229V109.478ZM153.963 111.078H151.562V125.218H151.145V111.078H148.746V97.4268H153.963V111.078ZM41.6182 100.255H44.0205V104.067H41.6182V124.806H41.2021V104.067H38.8037V100.255H41.2021V97.3438H41.6182V100.255ZM112.758 116.24H115.16V124.357H109.943V116.24H112.342V105.017H112.758V116.24ZM125.694 109.478H128.094V120.301H125.694V122.522H125.278V120.301H122.876V109.478H125.278V95.5518H125.694V109.478ZM360.916 112.552H358.514V122.302H358.098V112.552H355.699V98.1631H360.916V112.552ZM37.5537 112.307H35.1514V117.097H34.7354V112.307H32.3369V104.066H37.5537V112.307ZM352.048 98.1631H354.449V106.097H352.048V114.365H351.631V106.097H349.232V98.1631H351.631V91H352.048V98.1631Z"/>
</mask>
<path d="M209.768 152.12H208.768V153.12H209.768V152.12ZM212.17 152.12H213.17V151.12H212.17V152.12ZM212.17 159.836V160.836H213.17V159.836H212.17ZM209.768 159.836V158.836H208.768V159.836H209.768ZM209.768 165.88V166.88H210.768V165.88H209.768ZM209.352 165.88H208.352V166.88H209.352V165.88ZM209.352 159.836H210.352V158.836H209.352V159.836ZM206.953 159.836H205.953V160.836H206.953V159.836ZM206.953 152.12V151.12H205.953V152.12H206.953ZM209.352 152.12V153.12H210.352V152.12H209.352ZM209.352 141.601V140.601H208.352V141.601H209.352ZM209.768 141.601H210.768V140.601H209.768V141.601ZM73.9551 141.329H72.9551V142.329H73.9551V141.329ZM76.3564 141.329H77.3564V140.329H76.3564V141.329ZM76.3564 150.552V151.552H77.3564V150.552H76.3564ZM73.9551 150.552V149.552H72.9551V150.552H73.9551ZM73.9551 163.431V164.431H74.9551V163.431H73.9551ZM73.5381 163.431H72.5381V164.431H73.5381V163.431ZM73.5381 150.552H74.5381V149.552H73.5381V150.552ZM71.1396 150.552H70.1396V151.552H71.1396V150.552ZM71.1396 141.329V140.329H70.1396V141.329H71.1396ZM73.5381 141.329V142.329H74.5381V141.329H73.5381ZM73.5381 125.543V124.543H72.5381V125.543H73.5381ZM73.9551 125.543H74.9551V124.543H73.9551V125.543ZM67.4883 135.304H66.4883V136.304H67.4883V135.304ZM69.8896 135.304H70.8896V134.304H69.8896V135.304ZM69.8896 141.329V142.329H70.8896V141.329H69.8896ZM67.4883 141.329V140.329H66.4883V141.329H67.4883ZM67.4883 162.44V163.44H68.4883V162.44H67.4883ZM67.0713 162.44H66.0713V163.44H67.0713V162.44ZM67.0713 141.329H68.0713V140.329H67.0713V141.329ZM64.6729 141.329H63.6729V142.329H64.6729V141.329ZM64.6729 135.304V134.304H63.6729V135.304H64.6729ZM67.0713 135.304V136.304H68.0713V135.304H67.0713ZM67.0713 129.44V128.44H66.0713V129.44H67.0713ZM67.4883 129.44H68.4883V128.44H67.4883V129.44ZM80.4219 150.552H79.4219V151.552H80.4219V150.552ZM82.8232 150.552H83.8232V149.552H82.8232V150.552ZM82.8232 158.301V159.301H83.8232V158.301H82.8232ZM80.4219 158.301V157.301H79.4219V158.301H80.4219ZM80.4219 162.419V163.419H81.4219V162.419H80.4219ZM80.0049 162.419H79.0049V163.419H80.0049V162.419ZM80.0049 158.301H81.0049V157.301H80.0049V158.301ZM77.6064 158.301H76.6064V159.301H77.6064V158.301ZM77.6064 150.552V149.552H76.6064V150.552H77.6064ZM80.0049 150.552V151.552H81.0049V150.552H80.0049ZM80.0049 134.957V133.957H79.0049V134.957H80.0049ZM80.4219 134.957H81.4219V133.957H80.4219V134.957ZM93.3584 137.519H92.3584V138.519H93.3584V137.519ZM95.7598 137.519H96.7598V136.519H95.7598V137.519ZM95.7598 145.942V146.942H96.7598V145.942H95.7598ZM93.3584 145.942V144.942H92.3584V145.942H93.3584ZM93.3584 162.138V163.138H94.3584V162.138H93.3584ZM92.9414 162.138H91.9414V163.138H92.9414V162.138ZM92.9414 145.942H93.9414V144.942H92.9414V145.942ZM90.543 145.942H89.543V146.942H90.543V145.942ZM90.543 137.519V136.519H89.543V137.519H90.543ZM92.9414 137.519V138.519H93.9414V137.519H92.9414ZM92.9414 127.854V126.854H91.9414V127.854H92.9414ZM93.3584 127.854H94.3584V126.854H93.3584V127.854ZM203.301 145.942H202.301V146.942H203.301V145.942ZM205.703 145.942H206.703V144.942H205.703V145.942ZM205.703 159.84V160.84H206.703V159.84H205.703ZM200.486 159.84H199.486V160.84H200.486V159.84ZM200.486 145.942V144.942H199.486V145.942H200.486ZM202.885 145.942V146.942H203.885V145.942H202.885ZM202.885 138.425V137.425H201.885V138.425H202.885ZM203.301 138.425H204.301V137.425H203.301V138.425ZM86.8916 145.942H85.8916V146.942H86.8916V145.942ZM89.29 145.942H90.29V144.942H89.29V145.942ZM89.29 158.301V159.301H90.29V158.301H89.29ZM84.0732 158.301H83.0732V159.301H84.0732V158.301ZM84.0732 145.942V144.942H83.0732V145.942H84.0732ZM86.4746 145.942V146.942H87.4746V145.942H86.4746ZM86.4746 123.408V122.408H85.4746V123.408H86.4746ZM86.8916 123.408H87.8916V122.408H86.8916V123.408ZM216.234 143.728H215.234V144.728H216.234V143.728ZM218.637 143.728H219.637V142.728H218.637V143.728ZM218.637 152.12V153.12H219.637V152.12H218.637ZM216.234 152.12V151.12H215.234V152.12H216.234ZM216.234 156.61V157.61H217.234V156.61H216.234ZM215.818 156.61H214.818V157.61H215.818V156.61ZM215.818 152.12H216.818V151.12H215.818V152.12ZM213.42 152.12H212.42V153.12H213.42V152.12ZM213.42 143.728V142.728H212.42V143.728H213.42ZM215.818 143.728V144.728H216.818V143.728H215.818ZM215.818 139.234V138.234H214.818V139.234H215.818ZM216.234 139.234H217.234V138.234H216.234V139.234ZM306.777 143.912H305.777V144.912H306.777V143.912ZM309.176 143.912H310.176V142.912H309.176V143.912ZM309.176 153.995V154.995H310.176V153.995H309.176ZM303.959 153.995H302.959V154.995H303.959V153.995ZM303.959 143.912V142.912H302.959V143.912H303.959ZM306.361 143.912V144.912H307.361V143.912H306.361ZM306.361 131.146V130.146H305.361V131.146H306.361ZM306.777 131.146H307.777V130.146H306.777V131.146ZM313.244 134.473H312.244V135.473H313.244V134.473ZM315.646 134.473H316.646V133.473H315.646V134.473ZM315.646 153.995V154.995H316.646V153.995H315.646ZM310.429 153.995H309.429V154.995H310.429V153.995ZM310.429 134.473V133.473H309.429V134.473H310.429ZM312.828 134.473V135.473H313.828V134.473H312.828ZM312.828 128.859V127.859H311.828V128.859H312.828ZM313.244 128.859H314.244V127.859H313.244V128.859ZM15.752 134.317H14.752V135.317H15.752V134.317ZM18.1504 134.317H19.1504V133.317H18.1504V134.317ZM18.1504 146.491V147.491H19.1504V146.491H18.1504ZM15.752 146.491V145.491H14.752V146.491H15.752ZM15.752 153.742V154.742H16.752V153.742H15.752ZM15.335 153.742H14.335V154.742H15.335V153.742ZM15.335 146.491H16.335V145.491H15.335V146.491ZM12.9336 146.491H11.9336V147.491H12.9336V146.491ZM12.9336 134.317V133.317H11.9336V134.317H12.9336ZM15.335 134.317V135.317H16.335V134.317H15.335ZM15.335 115.793V114.793H14.335V115.793H15.335ZM15.752 115.793H16.752V114.793H15.752V115.793ZM9.28223 138.399H8.28223V139.399H9.28223V138.399ZM11.6836 138.399H12.6836V137.399H11.6836V138.399ZM11.6836 146.495V147.495H12.6836V146.495H11.6836ZM9.28223 146.495V145.495H8.28223V146.495H9.28223ZM9.28223 151.206V152.206H10.2822V151.206H9.28223ZM8.86523 151.206H7.86523V152.206H8.86523V151.206ZM8.86523 146.495H9.86523V145.495H8.86523V146.495ZM6.4668 146.495H5.4668V147.495H6.4668V146.495ZM6.4668 138.399V137.399H5.4668V138.399H6.4668ZM8.86523 138.399V139.399H9.86523V138.399H8.86523ZM8.86523 131.456V130.456H7.86523V131.456H8.86523ZM9.28223 131.456H10.2822V130.456H9.28223V131.456ZM22.2188 129.155H21.2188V130.155H22.2188V129.155ZM24.6201 129.155H25.6201V128.155H24.6201V129.155ZM24.6201 134.322V135.322H25.6201V134.322H24.6201ZM22.2188 134.322V133.322H21.2188V134.322H22.2188ZM22.2188 150.913V151.913H23.2188V150.913H22.2188ZM21.8018 150.913H20.8018V151.913H21.8018V150.913ZM21.8018 134.322H22.8018V133.322H21.8018V134.322ZM19.4033 134.322H18.4033V135.322H19.4033V134.322ZM19.4033 129.155V128.155H18.4033V129.155H19.4033ZM21.8018 129.155V130.155H22.8018V129.155H21.8018ZM21.8018 115.991V114.991H20.8018V115.991H21.8018ZM22.2188 115.991H23.2188V114.991H22.2188V115.991ZM339.114 132.721H338.114V133.721H339.114V132.721ZM341.513 132.721H342.513V131.721H341.513V132.721ZM341.513 139.36V140.36H342.513V139.36H341.513ZM339.114 139.36V138.36H338.114V139.36H339.114ZM339.114 149.945V150.945H340.114V149.945H339.114ZM338.697 149.945H337.697V150.945H338.697V149.945ZM338.697 139.36H339.697V138.36H338.697V139.36ZM336.296 139.36H335.296V140.36H336.296V139.36ZM336.296 132.721V131.721H335.296V132.721H336.296ZM338.697 132.721V133.721H339.697V132.721H338.697ZM338.697 126.685V125.685H337.697V126.685H338.697ZM339.114 126.685H340.114V125.685H339.114V126.685ZM300.311 139.36H299.311V140.36H300.311V139.36ZM302.709 139.36H303.709V138.36H302.709V139.36ZM302.709 143.913V144.913H303.709V143.913H302.709ZM300.311 143.913V142.913H299.311V143.913H300.311ZM300.311 147.186V148.186H301.311V147.186H300.311ZM299.895 147.186H298.895V148.186H299.895V147.186ZM299.895 143.913H300.895V142.913H299.895V143.913ZM297.492 143.913H296.492V144.913H297.492V143.913ZM297.492 139.36V138.36H296.492V139.36H297.492ZM299.895 139.36V140.36H300.895V139.36H299.895ZM299.895 127.11V126.11H298.895V127.11H299.895ZM300.311 127.11H301.311V126.11H300.311V127.11ZM196.835 140.408H195.835V141.408H196.835V140.408ZM199.233 140.408H200.233V139.408H199.233V140.408ZM199.233 145.942V146.942H200.233V145.942H199.233ZM194.017 145.942H193.017V146.942H194.017V145.942ZM194.017 140.408V139.408H193.017V140.408H194.017ZM196.418 140.408V141.408H197.418V140.408H196.418ZM196.418 122.833V121.833H195.418V122.833H196.418ZM196.835 122.833H197.835V121.833H196.835V122.833ZM326.178 127.432H325.178V128.432H326.178V127.432ZM328.579 127.432H329.579V126.432H328.579V127.432ZM328.579 136.286V137.286H329.579V136.286H328.579ZM326.178 136.286V135.286H325.178V136.286H326.178ZM326.178 145.938V146.938H327.178V145.938H326.178ZM325.761 145.938H324.761V146.938H325.761V145.938ZM325.761 136.286H326.761V135.286H325.761V136.286ZM323.362 136.286H322.362V137.286H323.362V136.286ZM323.362 127.432V126.432H322.362V127.432H323.362ZM325.761 127.432V128.432H326.761V127.432H325.761ZM325.761 122.88V121.88H324.761V122.88H325.761ZM326.178 122.88H327.178V121.88H326.178V122.88ZM222.701 138.931H221.701V139.931H222.701V138.931ZM225.104 138.931H226.104V137.931H225.104V138.931ZM225.104 143.729V144.729H226.104V143.729H225.104ZM222.701 143.729V142.729H221.701V143.729H222.701ZM222.701 145.834V146.834H223.701V145.834H222.701ZM222.285 145.834H221.285V146.834H222.285V145.834ZM222.285 143.729H223.285V142.729H222.285V143.729ZM219.886 143.729H218.886V144.729H219.886V143.729ZM219.886 138.931V137.931H218.886V138.931H219.886ZM222.285 138.931V139.931H223.285V138.931H222.285ZM222.285 128.458V127.458H221.285V128.458H222.285ZM222.701 128.458H223.701V127.458H222.701V128.458ZM170.965 128.849H169.965V129.849H170.965V128.849ZM173.366 128.849H174.366V127.849H173.366V128.849ZM173.366 138.316V139.316H174.366V138.316H173.366ZM170.965 138.316V137.316H169.965V138.316H170.965ZM170.965 145.596V146.596H171.965V145.596H170.965ZM170.548 145.596H169.548V146.596H170.548V145.596ZM170.548 138.316H171.548V137.316H170.548V138.316ZM168.149 138.316H167.149V139.316H168.149V138.316ZM168.149 128.849V127.849H167.149V128.849H168.149ZM170.548 128.849V129.849H171.548V128.849H170.548ZM170.548 119.878V118.878H169.548V119.878H170.548ZM170.965 119.878H171.965V118.878H170.965V119.878ZM332.645 136.286H331.645V137.286H332.645V136.286ZM335.046 136.286H336.046V135.286H335.046V136.286ZM335.046 139.362V140.362H336.046V139.362H335.046ZM332.645 139.362V138.362H331.645V139.362H332.645ZM332.645 143.912V144.912H333.645V143.912H332.645ZM332.228 143.912H331.228V144.912H332.228V143.912ZM332.228 139.362H333.228V138.362H332.228V139.362ZM329.829 139.362H328.829V140.362H329.829V139.362ZM329.829 136.286V135.286H328.829V136.286H329.829ZM332.228 136.286V137.286H333.228V136.286H332.228ZM332.228 120.547V119.547H331.228V120.547H332.228ZM332.645 120.547H333.645V119.547H332.645V120.547ZM61.0215 120.73H60.0215V121.73H61.0215V120.73ZM63.4238 120.73H64.4238V119.73H63.4238V120.73ZM63.4238 135.304V136.304H64.4238V135.304H63.4238ZM61.0215 135.304V134.304H60.0215V135.304H61.0215ZM61.0215 143.508V144.508H62.0215V143.508H61.0215ZM60.6055 143.508H59.6055V144.508H60.6055V143.508ZM60.6055 135.304H61.6055V134.304H60.6055V135.304ZM58.2061 135.304H57.2061V136.304H58.2061V135.304ZM58.2061 120.73V119.73H57.2061V120.73H58.2061ZM60.6055 120.73V121.73H61.6055V120.73H60.6055ZM60.6055 108.586V107.586H59.6055V108.586H60.6055ZM61.0215 108.586H62.0215V107.586H61.0215V108.586ZM248.571 124.296H247.571V125.296H248.571V124.296ZM250.973 124.296H251.973V123.296H250.973V124.296ZM250.973 130.322V131.322H251.973V130.322H250.973ZM248.571 130.322V129.322H247.571V130.322H248.571ZM248.571 142.897V143.897H249.571V142.897H248.571ZM248.154 142.897H247.154V143.897H248.154V142.897ZM248.154 130.322H249.154V129.322H248.154V130.322ZM245.756 130.322H244.756V131.322H245.756V130.322ZM245.756 124.296V123.296H244.756V124.296H245.756ZM248.154 124.296V125.296H249.154V124.296H248.154ZM248.154 122.107V121.107H247.154V122.107H248.154ZM248.571 122.107H249.571V121.107H248.571V122.107ZM190.364 130.322H189.364V131.322H190.364V130.322ZM192.767 130.322H193.767V129.322H192.767V130.322ZM192.767 140.404V141.404H193.767V140.404H192.767ZM190.364 140.404V139.404H189.364V140.404H190.364ZM190.364 142.001V143.001H191.364V142.001H190.364ZM189.948 142.001H188.948V143.001H189.948V142.001ZM189.948 140.404H190.948V139.404H189.948V140.404ZM187.55 140.404H186.55V141.404H187.55V140.404ZM187.55 130.322V129.322H186.55V130.322H187.55ZM189.948 130.322V131.322H190.948V130.322H189.948ZM189.948 123.007V122.007H188.948V123.007H189.948ZM190.364 123.007H191.364V122.007H190.364V123.007ZM186.3 134.134V135.134H187.3V134.134H186.3ZM183.898 134.134V133.134H182.898V134.134H183.898ZM183.898 141.185V142.185H184.898V141.185H183.898ZM183.481 141.185H182.481V142.185H183.481V141.185ZM183.481 134.134H184.481V133.134H183.481V134.134ZM181.083 134.134H180.083V135.134H181.083V134.134ZM181.083 130.322V129.322H180.083V130.322H181.083ZM186.3 130.322H187.3V129.322H186.3V130.322ZM270.373 134.137V135.137H271.373V134.137H270.373ZM267.975 134.137V133.137H266.975V134.137H267.975ZM267.975 141.182V142.182H268.975V141.182H267.975ZM267.558 141.182H266.558V142.182H267.558V141.182ZM267.558 134.137H268.558V133.137H267.558V134.137ZM265.156 134.137H264.156V135.137H265.156V134.137ZM265.156 120.73V119.73H264.156V120.73H265.156ZM270.373 120.73H271.373V119.73H270.373V120.73ZM160.43 119.748V120.748H161.43V119.748H160.43ZM158.031 119.748V118.748H157.031V119.748H158.031ZM158.031 140.521V141.521H159.031V140.521H158.031ZM157.615 140.521H156.615V141.521H157.615V140.521ZM157.615 119.748H158.615V118.748H157.615V119.748ZM155.213 119.748H154.213V120.748H155.213V119.748ZM155.213 97.4268V96.4268H154.213V97.4268H155.213ZM160.43 97.4268H161.43V96.4268H160.43V97.4268ZM293.841 129.585H292.841V130.585H293.841V129.585ZM296.243 129.585H297.243V128.585H296.243V129.585ZM296.243 139.36V140.36H297.243V139.36H296.243ZM293.841 139.36V138.36H292.841V139.36H293.841ZM293.841 140.361V141.361H294.841V140.361H293.841ZM293.425 140.361H292.425V141.361H293.425V140.361ZM293.425 139.36H294.425V138.36H293.425V139.36ZM291.026 139.36H290.026V140.36H291.026V139.36ZM291.026 129.585V128.585H290.026V129.585H291.026ZM293.425 129.585V130.585H294.425V129.585H293.425ZM293.425 120.286V119.286H292.425V120.286H293.425ZM293.841 120.286H294.841V119.286H293.841V120.286ZM177.432 134.133H176.432V135.133H177.432V134.133ZM179.833 134.133H180.833V133.133H179.833V134.133ZM179.833 138.313V139.313H180.833V138.313H179.833ZM177.432 138.313V137.313H176.432V138.313H177.432ZM177.432 139.718V140.718H178.432V139.718H177.432ZM177.015 139.718H176.015V140.718H177.015V139.718ZM177.015 138.313H178.015V137.313H177.015V138.313ZM174.616 138.313H173.616V139.313H174.616V138.313ZM174.616 134.133V133.133H173.616V134.133H174.616ZM177.015 134.133V135.133H178.015V134.133H177.015ZM177.015 122.577V121.577H176.015V122.577H177.015ZM177.432 122.577H178.432V121.577H177.432V122.577ZM235.638 127.002H234.638V128.002H235.638V127.002ZM238.036 127.002H239.036V126.002H238.036V127.002ZM238.036 135.365V136.365H239.036V135.365H238.036ZM235.638 135.365V134.365H234.638V135.365H235.638ZM235.638 139.147V140.147H236.638V139.147H235.638ZM235.222 139.147H234.222V140.147H235.222V139.147ZM235.222 135.365H236.222V134.365H235.222V135.365ZM232.819 135.365H231.819V136.365H232.819V135.365ZM232.819 127.002V126.002H231.819V127.002H232.819ZM235.222 127.002V128.002H236.222V127.002H235.222ZM235.222 123.949V122.949H234.222V123.949H235.222ZM235.638 123.949H236.638V122.949H235.638V123.949ZM229.171 135.365H228.171V136.365H229.171V135.365ZM231.569 135.365H232.569V134.365H231.569V135.365ZM231.569 138.932V139.932H232.569V138.932H231.569ZM226.353 138.932H225.353V139.932H226.353V138.932ZM226.353 135.365V134.365H225.353V135.365H226.353ZM228.755 135.365V136.365H229.755V135.365H228.755ZM228.755 125.716V124.716H227.755V125.716H228.755ZM229.171 125.716H230.171V124.716H229.171V125.716ZM2.81543 128.292H1.81543V129.292H2.81543V128.292ZM5.2168 128.292H6.2168V127.292H5.2168V128.292ZM5.2168 138.399V139.399H6.2168V138.399H5.2168ZM0 138.399H-1V139.399H0V138.399ZM0 128.292V127.292H-1V128.292H0ZM2.39844 128.292V129.292H3.39844V128.292H2.39844ZM2.39844 111.779V110.779H1.39844V111.779H2.39844ZM2.81543 111.779H3.81543V110.779H2.81543V111.779ZM345.581 106.097H344.581V107.097H345.581V106.097ZM347.982 106.097H348.982V105.097H347.982V106.097ZM347.982 132.721V133.721H348.982V132.721H347.982ZM345.581 132.721V131.721H344.581V132.721H345.581ZM345.581 137.825V138.825H346.581V137.825H345.581ZM345.164 137.825H344.164V138.825H345.164V137.825ZM345.164 132.721H346.164V131.721H345.164V132.721ZM342.766 132.721H341.766V133.721H342.766V132.721ZM342.766 106.097V105.097H341.766V106.097H342.766ZM345.164 106.097V107.097H346.164V106.097H345.164ZM345.164 100.255V99.2549H344.164V100.255H345.164ZM345.581 100.255H346.581V99.2549H345.581V100.255ZM99.8252 121.652H98.8252V122.652H99.8252V121.652ZM102.227 121.652H103.227V120.652H102.227V121.652ZM102.227 137.515V138.515H103.227V137.515H102.227ZM99.8252 137.515V136.515H98.8252V137.515H99.8252ZM99.8252 137.565V138.565H100.825V137.565H99.8252ZM99.4082 137.565H98.4082V138.565H99.4082V137.565ZM99.4082 137.515H100.408V136.515H99.4082V137.515ZM97.0098 137.515H96.0098V138.515H97.0098V137.515ZM97.0098 121.652V120.652H96.0098V121.652H97.0098ZM99.4082 121.652V122.652H100.408V121.652H99.4082ZM99.4082 117.086V116.086H98.4082V117.086H99.4082ZM99.8252 117.086H100.825V116.086H99.8252V117.086ZM319.711 127.432H318.711V128.432H319.711V127.432ZM322.112 127.432H323.112V126.432H322.112V127.432ZM322.112 134.473V135.473H323.112V134.473H322.112ZM319.711 134.473V133.473H318.711V134.473H319.711ZM319.711 137.37V138.37H320.711V137.37H319.711ZM319.294 137.37H318.294V138.37H319.294V137.37ZM319.294 134.473H320.294V133.473H319.294V134.473ZM316.896 134.473H315.896V135.473H316.896V134.473ZM316.896 127.432V126.432H315.896V127.432H316.896ZM319.294 127.432V128.432H320.294V127.432H319.294ZM319.294 114.312V113.312H318.294V114.312H319.294ZM319.711 114.312H320.711V113.312H319.711V114.312ZM287.374 124.882H286.374V125.882H287.374V124.882ZM289.776 124.882H290.776V123.882H289.776V124.882ZM289.776 129.586V130.586H290.776V129.586H289.776ZM287.374 129.586V128.586H286.374V129.586H287.374ZM287.374 136.341V137.341H288.374V136.341H287.374ZM286.958 136.341H285.958V137.341H286.958V136.341ZM286.958 129.586H287.958V128.586H286.958V129.586ZM284.56 129.586H283.56V130.586H284.56V129.586ZM284.56 124.882V123.882H283.56V124.882H284.56ZM286.958 124.882V125.882H287.958V124.882H286.958ZM286.958 113.657V112.657H285.958V113.657H286.958ZM287.374 113.657H288.374V112.657H287.374V113.657ZM255.038 124.296H254.038V125.296H255.038V124.296ZM257.439 124.296H258.439V123.296H257.439V124.296ZM257.439 134.133V135.133H258.439V134.133H257.439ZM255.038 134.133V133.133H254.038V134.133H255.038ZM255.038 134.877V135.877H256.038V134.877H255.038ZM254.621 134.877H253.621V135.877H254.621V134.877ZM254.621 134.133H255.621V133.133H254.621V134.133ZM252.223 134.133H251.223V135.133H252.223V134.133ZM252.223 124.296V123.296H251.223V124.296H252.223ZM254.621 124.296V125.296H255.621V124.296H254.621ZM254.621 119.712V118.712H253.621V119.712H254.621ZM255.038 119.712H256.038V118.712H255.038V119.712ZM242.104 127.002H241.104V128.002H242.104V127.002ZM244.506 127.002H245.506V126.002H244.506V127.002ZM244.506 130.323V131.323H245.506V130.323H244.506ZM242.104 130.323V129.323H241.104V130.323H242.104ZM242.104 134.343V135.343H243.104V134.343H242.104ZM241.688 134.343H240.688V135.343H241.688V134.343ZM241.688 130.323H242.688V129.323H241.688V130.323ZM239.289 130.323H238.289V131.323H239.289V130.323ZM239.289 127.002V126.002H238.289V127.002H239.289ZM241.688 127.002V128.002H242.688V127.002H241.688ZM241.688 113.553V112.553H240.688V113.553H241.688ZM242.104 113.553H243.104V112.553H242.104V113.553ZM261.505 129.585H260.505V130.585H261.505V129.585ZM263.906 129.585H264.906V128.585H263.906V129.585ZM263.906 134.138V135.138H264.906V134.138H263.906ZM258.689 134.138H257.689V135.138H258.689V134.138ZM258.689 129.585V128.585H257.689V129.585H258.689ZM261.088 129.585V130.585H262.088V129.585H261.088ZM261.088 117.718V116.718H260.088V117.718H261.088ZM261.505 117.718H262.505V116.718H261.505V117.718ZM164.498 119.744H163.498V120.744H164.498V119.744ZM166.896 119.744H167.896V118.744H166.896V119.744ZM166.896 128.845V129.845H167.896V128.845H166.896ZM164.498 128.845V127.845H163.498V128.845H164.498ZM164.498 132.797V133.797H165.498V132.797H164.498ZM164.081 132.797H163.081V133.797H164.081V132.797ZM164.081 128.845H165.081V127.845H164.081V128.845ZM161.68 128.845H160.68V129.845H161.68V128.845ZM161.68 119.744V118.744H160.68V119.744H161.68ZM164.081 119.744V120.744H165.081V119.744H164.081ZM164.081 109.872V108.872H163.081V109.872H164.081ZM164.498 109.872H165.498V108.872H164.498V109.872ZM274.441 115.626H273.441V116.626H274.441V115.626ZM276.843 115.626H277.843V114.626H276.843V115.626ZM276.843 120.731V121.731H277.843V120.731H276.843ZM274.441 120.731V119.731H273.441V120.731H274.441ZM274.441 131.312V132.312H275.441V131.312H274.441ZM274.024 131.312H273.024V132.312H274.024V131.312ZM274.024 120.731H275.024V119.731H274.024V120.731ZM271.626 120.731H270.626V121.731H271.626V120.731ZM271.626 115.626V114.626H270.626V115.626H271.626ZM274.024 115.626V116.626H275.024V115.626H274.024ZM274.024 114.354V113.354H273.024V114.354H274.024ZM274.441 114.354H275.441V113.354H274.441V114.354ZM132.161 120.301H131.161V121.301H132.161V120.301ZM134.563 120.301H135.563V119.301H134.563V120.301ZM134.563 125.222V126.222H135.563V125.222H134.563ZM132.161 125.222V124.222H131.161V125.222H132.161ZM132.161 131.182V132.182H133.161V131.182H132.161ZM131.745 131.182H130.745V132.182H131.745V131.182ZM131.745 125.222H132.745V124.222H131.745V125.222ZM129.347 125.222H128.347V126.222H129.347V125.222ZM129.347 120.301V119.301H128.347V120.301H129.347ZM131.745 120.301V121.301H132.745V120.301H131.745ZM131.745 104.25V103.25H130.745V104.25H131.745ZM132.161 104.25H133.161V103.25H132.161V104.25ZM48.0879 100.255H47.0879V101.255H48.0879V100.255ZM50.4873 100.255H51.4873V99.2549H50.4873V100.255ZM50.4873 116.117V117.117H51.4873V116.117H50.4873ZM48.0879 116.117V115.117H47.0879V116.117H48.0879ZM48.0879 130.759V131.759H49.0879V130.759H48.0879ZM47.6719 130.759H46.6719V131.759H47.6719V130.759ZM47.6719 116.117H48.6719V115.117H47.6719V116.117ZM45.2695 116.117H44.2695V117.117H45.2695V116.117ZM45.2695 100.255V99.2549H44.2695V100.255H45.2695ZM47.6719 100.255V101.255H48.6719V100.255H47.6719ZM47.6719 92.8096V91.8096H46.6719V92.8096H47.6719ZM48.0879 92.8096H49.0879V91.8096H48.0879V92.8096ZM54.5547 116.117H53.5547V117.117H54.5547V116.117ZM56.9531 116.117H57.9531V115.117H56.9531V116.117ZM56.9531 120.731V121.731H57.9531V120.731H56.9531ZM54.5547 120.731V119.731H53.5547V120.731H54.5547ZM54.5547 130.304V131.304H55.5547V130.304H54.5547ZM54.1387 130.304H53.1387V131.304H54.1387V130.304ZM54.1387 120.731H55.1387V119.731H54.1387V120.731ZM51.7363 120.731H50.7363V121.731H51.7363V120.731ZM51.7363 116.117V115.117H50.7363V116.117H51.7363ZM54.1387 116.117V117.117H55.1387V116.117H54.1387ZM54.1387 102.795V101.795H53.1387V102.795H54.1387ZM54.5547 102.795H55.5547V101.795H54.5547V102.795ZM283.31 124.882V125.882H284.31V124.882H283.31ZM280.907 124.882V123.882H279.907V124.882H280.907ZM280.907 129.932V130.932H281.907V129.932H280.907ZM280.491 129.932H279.491V130.932H280.491V129.932ZM280.491 124.882H281.491V123.882H280.491V124.882ZM278.093 124.882H277.093V125.882H278.093V124.882ZM278.093 115.626V114.626H277.093V115.626H278.093ZM283.31 115.626H284.31V114.626H283.31V115.626ZM106.292 121.652H105.292V122.652H106.292V121.652ZM108.693 121.652H109.693V120.652H108.693V121.652ZM108.693 124.359V125.359H109.693V124.359H108.693ZM106.292 124.359V123.359H105.292V124.359H106.292ZM106.292 129.791V130.791H107.292V129.791H106.292ZM105.875 129.791H104.875V130.791H105.875V129.791ZM105.875 124.359H106.875V123.359H105.875V124.359ZM103.477 124.359H102.477V125.359H103.477V124.359ZM103.477 121.652V120.652H102.477V121.652H103.477ZM105.875 121.652V122.652H106.875V121.652H105.875ZM105.875 115.287V114.287H104.875V115.287H105.875ZM106.292 115.287H107.292V114.287H106.292V115.287ZM141.03 125.218V126.218H142.03V125.218H141.03ZM138.628 125.218V124.218H137.628V125.218H138.628ZM138.628 129.787V130.787H139.628V129.787H138.628ZM138.212 129.787H137.212V130.787H138.212V129.787ZM138.212 125.218H139.212V124.218H138.212V125.218ZM135.812 125.218H134.812V126.218H135.812V125.218ZM135.812 116.24V115.24H134.812V116.24H135.812ZM141.03 116.24H142.03V115.24H141.03V116.24ZM28.6846 112.307H27.6846V113.307H28.6846V112.307ZM31.0869 112.307H32.0869V111.307H31.0869V112.307ZM31.0869 129.155V130.155H32.0869V129.155H31.0869ZM25.8701 129.155H24.8701V130.155H25.8701V129.155ZM25.8701 112.307V111.307H24.8701V112.307H25.8701ZM28.2686 112.307V113.307H29.2686V112.307H28.2686ZM28.2686 105.161V104.161H27.2686V105.161H28.2686ZM28.6846 105.161H29.6846V104.161H28.6846V105.161ZM364.98 112.552H363.98V113.552H364.98V112.552ZM367.383 112.552H368.383V111.552H367.383V112.552ZM367.383 120.254V121.254H368.383V120.254H367.383ZM364.98 120.254V119.254H363.98V120.254H364.98ZM364.98 129.115V130.115H365.98V129.115H364.98ZM364.564 129.115H363.564V130.115H364.564V129.115ZM364.564 120.254H365.564V119.254H364.564V120.254ZM362.166 120.254H361.166V121.254H362.166V120.254ZM362.166 112.552V111.552H361.166V112.552H362.166ZM364.564 112.552V113.552H365.564V112.552H364.564ZM364.564 109.615V108.615H363.564V109.615H364.564ZM364.98 109.615H365.98V108.615H364.98V109.615ZM145.095 111.074H144.095V112.074H145.095V111.074ZM147.496 111.074H148.496V110.074H147.496V111.074ZM147.496 116.241V117.241H148.496V116.241H147.496ZM145.095 116.241V115.241H144.095V116.241H145.095ZM145.095 125.843V126.843H146.095V125.843H145.095ZM144.678 125.843H143.678V126.843H144.678V125.843ZM144.678 116.241H145.678V115.241H144.678V116.241ZM142.279 116.241H141.279V117.241H142.279V116.241ZM142.279 111.074V110.074H141.279V111.074H142.279ZM144.678 111.074V112.074H145.678V111.074H144.678ZM144.678 109.232V108.232H143.678V109.232H144.678ZM145.095 109.232H146.095V108.232H145.095V109.232ZM119.229 109.478H118.229V110.478H119.229V109.478ZM121.627 109.478H122.627V108.478H121.627V109.478ZM121.627 116.24V117.24H122.627V116.24H121.627ZM119.229 116.24V115.24H118.229V116.24H119.229ZM119.229 125.401V126.401H120.229V125.401H119.229ZM118.812 125.401H117.812V126.401H118.812V125.401ZM118.812 116.24H119.812V115.24H118.812V116.24ZM116.41 116.24H115.41V117.24H116.41V116.24ZM116.41 109.478V108.478H115.41V109.478H116.41ZM118.812 109.478V110.478H119.812V109.478H118.812ZM118.812 94.4424V93.4424H117.812V94.4424H118.812ZM119.229 94.4424H120.229V93.4424H119.229V94.4424ZM153.963 111.078V112.078H154.963V111.078H153.963ZM151.562 111.078V110.078H150.562V111.078H151.562ZM151.562 125.218V126.218H152.562V125.218H151.562ZM151.145 125.218H150.145V126.218H151.145V125.218ZM151.145 111.078H152.145V110.078H151.145V111.078ZM148.746 111.078H147.746V112.078H148.746V111.078ZM148.746 97.4268V96.4268H147.746V97.4268H148.746ZM153.963 97.4268H154.963V96.4268H153.963V97.4268ZM41.6182 100.255H40.6182V101.255H41.6182V100.255ZM44.0205 100.255H45.0205V99.2549H44.0205V100.255ZM44.0205 104.067V105.067H45.0205V104.067H44.0205ZM41.6182 104.067V103.067H40.6182V104.067H41.6182ZM41.6182 124.806V125.806H42.6182V124.806H41.6182ZM41.2021 124.806H40.2021V125.806H41.2021V124.806ZM41.2021 104.067H42.2021V103.067H41.2021V104.067ZM38.8037 104.067H37.8037V105.067H38.8037V104.067ZM38.8037 100.255V99.2549H37.8037V100.255H38.8037ZM41.2021 100.255V101.255H42.2021V100.255H41.2021ZM41.2021 97.3438V96.3438H40.2021V97.3438H41.2021ZM41.6182 97.3438H42.6182V96.3438H41.6182V97.3438ZM112.758 116.24H111.758V117.24H112.758V116.24ZM115.16 116.24H116.16V115.24H115.16V116.24ZM115.16 124.357V125.357H116.16V124.357H115.16ZM109.943 124.357H108.943V125.357H109.943V124.357ZM109.943 116.24V115.24H108.943V116.24H109.943ZM112.342 116.24V117.24H113.342V116.24H112.342ZM112.342 105.017V104.017H111.342V105.017H112.342ZM112.758 105.017H113.758V104.017H112.758V105.017ZM125.694 109.478H124.694V110.478H125.694V109.478ZM128.094 109.478H129.094V108.478H128.094V109.478ZM128.094 120.301V121.301H129.094V120.301H128.094ZM125.694 120.301V119.301H124.694V120.301H125.694ZM125.694 122.522V123.522H126.694V122.522H125.694ZM125.278 122.522H124.278V123.522H125.278V122.522ZM125.278 120.301H126.278V119.301H125.278V120.301ZM122.876 120.301H121.876V121.301H122.876V120.301ZM122.876 109.478V108.478H121.876V109.478H122.876ZM125.278 109.478V110.478H126.278V109.478H125.278ZM125.278 95.5518V94.5518H124.278V95.5518H125.278ZM125.694 95.5518H126.694V94.5518H125.694V95.5518ZM360.916 112.552V113.552H361.916V112.552H360.916ZM358.514 112.552V111.552H357.514V112.552H358.514ZM358.514 122.302V123.302H359.514V122.302H358.514ZM358.098 122.302H357.098V123.302H358.098V122.302ZM358.098 112.552H359.098V111.552H358.098V112.552ZM355.699 112.552H354.699V113.552H355.699V112.552ZM355.699 98.1631V97.1631H354.699V98.1631H355.699ZM360.916 98.1631H361.916V97.1631H360.916V98.1631ZM37.5537 112.307V113.307H38.5537V112.307H37.5537ZM35.1514 112.307V111.307H34.1514V112.307H35.1514ZM35.1514 117.097V118.097H36.1514V117.097H35.1514ZM34.7354 117.097H33.7354V118.097H34.7354V117.097ZM34.7354 112.307H35.7354V111.307H34.7354V112.307ZM32.3369 112.307H31.3369V113.307H32.3369V112.307ZM32.3369 104.066V103.066H31.3369V104.066H32.3369ZM37.5537 104.066H38.5537V103.066H37.5537V104.066ZM352.048 98.1631H351.048V99.1631H352.048V98.1631ZM354.449 98.1631H355.449V97.1631H354.449V98.1631ZM354.449 106.097V107.097H355.449V106.097H354.449ZM352.048 106.097V105.097H351.048V106.097H352.048ZM352.048 114.365V115.365H353.048V114.365H352.048ZM351.631 114.365H350.631V115.365H351.631V114.365ZM351.631 106.097H352.631V105.097H351.631V106.097ZM349.232 106.097H348.232V107.097H349.232V106.097ZM349.232 98.1631V97.1631H348.232V98.1631H349.232ZM351.631 98.1631V99.1631H352.631V98.1631H351.631ZM351.631 91V90H350.631V91H351.631ZM352.048 91H353.048V90H352.048V91ZM209.768 152.12V153.12H212.17V152.12V151.12H209.768V152.12ZM212.17 152.12H211.17V159.836H212.17H213.17V152.12H212.17ZM212.17 159.836V158.836H209.768V159.836V160.836H212.17V159.836ZM209.768 159.836H208.768V165.88H209.768H210.768V159.836H209.768ZM209.768 165.88V164.88H209.352V165.88V166.88H209.768V165.88ZM209.352 165.88H210.352V159.836H209.352H208.352V165.88H209.352ZM209.352 159.836V158.836H206.953V159.836V160.836H209.352V159.836ZM206.953 159.836H207.953V152.12H206.953H205.953V159.836H206.953ZM206.953 152.12V153.12H209.352V152.12V151.12H206.953V152.12ZM209.352 152.12H210.352V141.601H209.352H208.352V152.12H209.352ZM209.352 141.601V142.601H209.768V141.601V140.601H209.352V141.601ZM209.768 141.601H208.768V152.12H209.768H210.768V141.601H209.768ZM73.9551 141.329V142.329H76.3564V141.329V140.329H73.9551V141.329ZM76.3564 141.329H75.3564V150.552H76.3564H77.3564V141.329H76.3564ZM76.3564 150.552V149.552H73.9551V150.552V151.552H76.3564V150.552ZM73.9551 150.552H72.9551V163.431H73.9551H74.9551V150.552H73.9551ZM73.9551 163.431V162.431H73.5381V163.431V164.431H73.9551V163.431ZM73.5381 163.431H74.5381V150.552H73.5381H72.5381V163.431H73.5381ZM73.5381 150.552V149.552H71.1396V150.552V151.552H73.5381V150.552ZM71.1396 150.552H72.1396V141.329H71.1396H70.1396V150.552H71.1396ZM71.1396 141.329V142.329H73.5381V141.329V140.329H71.1396V141.329ZM73.5381 141.329H74.5381V125.543H73.5381H72.5381V141.329H73.5381ZM73.5381 125.543V126.543H73.9551V125.543V124.543H73.5381V125.543ZM73.9551 125.543H72.9551V141.329H73.9551H74.9551V125.543H73.9551ZM67.4883 135.304V136.304H69.8896V135.304V134.304H67.4883V135.304ZM69.8896 135.304H68.8896V141.329H69.8896H70.8896V135.304H69.8896ZM69.8896 141.329V140.329H67.4883V141.329V142.329H69.8896V141.329ZM67.4883 141.329H66.4883V162.44H67.4883H68.4883V141.329H67.4883ZM67.4883 162.44V161.44H67.0713V162.44V163.44H67.4883V162.44ZM67.0713 162.44H68.0713V141.329H67.0713H66.0713V162.44H67.0713ZM67.0713 141.329V140.329H64.6729V141.329V142.329H67.0713V141.329ZM64.6729 141.329H65.6729V135.304H64.6729H63.6729V141.329H64.6729ZM64.6729 135.304V136.304H67.0713V135.304V134.304H64.6729V135.304ZM67.0713 135.304H68.0713V129.44H67.0713H66.0713V135.304H67.0713ZM67.0713 129.44V130.44H67.4883V129.44V128.44H67.0713V129.44ZM67.4883 129.44H66.4883V135.304H67.4883H68.4883V129.44H67.4883ZM80.4219 150.552V151.552H82.8232V150.552V149.552H80.4219V150.552ZM82.8232 150.552H81.8232V158.301H82.8232H83.8232V150.552H82.8232ZM82.8232 158.301V157.301H80.4219V158.301V159.301H82.8232V158.301ZM80.4219 158.301H79.4219V162.419H80.4219H81.4219V158.301H80.4219ZM80.4219 162.419V161.419H80.0049V162.419V163.419H80.4219V162.419ZM80.0049 162.419H81.0049V158.301H80.0049H79.0049V162.419H80.0049ZM80.0049 158.301V157.301H77.6064V158.301V159.301H80.0049V158.301ZM77.6064 158.301H78.6064V150.552H77.6064H76.6064V158.301H77.6064ZM77.6064 150.552V151.552H80.0049V150.552V149.552H77.6064V150.552ZM80.0049 150.552H81.0049V134.957H80.0049H79.0049V150.552H80.0049ZM80.0049 134.957V135.957H80.4219V134.957V133.957H80.0049V134.957ZM80.4219 134.957H79.4219V150.552H80.4219H81.4219V134.957H80.4219ZM93.3584 137.519V138.519H95.7598V137.519V136.519H93.3584V137.519ZM95.7598 137.519H94.7598V145.942H95.7598H96.7598V137.519H95.7598ZM95.7598 145.942V144.942H93.3584V145.942V146.942H95.7598V145.942ZM93.3584 145.942H92.3584V162.138H93.3584H94.3584V145.942H93.3584ZM93.3584 162.138V161.138H92.9414V162.138V163.138H93.3584V162.138ZM92.9414 162.138H93.9414V145.942H92.9414H91.9414V162.138H92.9414ZM92.9414 145.942V144.942H90.543V145.942V146.942H92.9414V145.942ZM90.543 145.942H91.543V137.519H90.543H89.543V145.942H90.543ZM90.543 137.519V138.519H92.9414V137.519V136.519H90.543V137.519ZM92.9414 137.519H93.9414V127.854H92.9414H91.9414V137.519H92.9414ZM92.9414 127.854V128.854H93.3584V127.854V126.854H92.9414V127.854ZM93.3584 127.854H92.3584V137.519H93.3584H94.3584V127.854H93.3584ZM203.301 145.942V146.942H205.703V145.942V144.942H203.301V145.942ZM205.703 145.942H204.703V159.84H205.703H206.703V145.942H205.703ZM205.703 159.84V158.84H200.486V159.84V160.84H205.703V159.84ZM200.486 159.84H201.486V145.942H200.486H199.486V159.84H200.486ZM200.486 145.942V146.942H202.885V145.942V144.942H200.486V145.942ZM202.885 145.942H203.885V138.425H202.885H201.885V145.942H202.885ZM202.885 138.425V139.425H203.301V138.425V137.425H202.885V138.425ZM203.301 138.425H202.301V145.942H203.301H204.301V138.425H203.301ZM86.8916 145.942V146.942H89.29V145.942V144.942H86.8916V145.942ZM89.29 145.942H88.29V158.301H89.29H90.29V145.942H89.29ZM89.29 158.301V157.301H84.0732V158.301V159.301H89.29V158.301ZM84.0732 158.301H85.0732V145.942H84.0732H83.0732V158.301H84.0732ZM84.0732 145.942V146.942H86.4746V145.942V144.942H84.0732V145.942ZM86.4746 145.942H87.4746V123.408H86.4746H85.4746V145.942H86.4746ZM86.4746 123.408V124.408H86.8916V123.408V122.408H86.4746V123.408ZM86.8916 123.408H85.8916V145.942H86.8916H87.8916V123.408H86.8916ZM216.234 143.728V144.728H218.637V143.728V142.728H216.234V143.728ZM218.637 143.728H217.637V152.12H218.637H219.637V143.728H218.637ZM218.637 152.12V151.12H216.234V152.12V153.12H218.637V152.12ZM216.234 152.12H215.234V156.61H216.234H217.234V152.12H216.234ZM216.234 156.61V155.61H215.818V156.61V157.61H216.234V156.61ZM215.818 156.61H216.818V152.12H215.818H214.818V156.61H215.818ZM215.818 152.12V151.12H213.42V152.12V153.12H215.818V152.12ZM213.42 152.12H214.42V143.728H213.42H212.42V152.12H213.42ZM213.42 143.728V144.728H215.818V143.728V142.728H213.42V143.728ZM215.818 143.728H216.818V139.234H215.818H214.818V143.728H215.818ZM215.818 139.234V140.234H216.234V139.234V138.234H215.818V139.234ZM216.234 139.234H215.234V143.728H216.234H217.234V139.234H216.234ZM306.777 143.912V144.912H309.176V143.912V142.912H306.777V143.912ZM309.176 143.912H308.176V153.995H309.176H310.176V143.912H309.176ZM309.176 153.995V152.995H303.959V153.995V154.995H309.176V153.995ZM303.959 153.995H304.959V143.912H303.959H302.959V153.995H303.959ZM303.959 143.912V144.912H306.361V143.912V142.912H303.959V143.912ZM306.361 143.912H307.361V131.146H306.361H305.361V143.912H306.361ZM306.361 131.146V132.146H306.777V131.146V130.146H306.361V131.146ZM306.777 131.146H305.777V143.912H306.777H307.777V131.146H306.777ZM313.244 134.473V135.473H315.646V134.473V133.473H313.244V134.473ZM315.646 134.473H314.646V153.995H315.646H316.646V134.473H315.646ZM315.646 153.995V152.995H310.429V153.995V154.995H315.646V153.995ZM310.429 153.995H311.429V134.473H310.429H309.429V153.995H310.429ZM310.429 134.473V135.473H312.828V134.473V133.473H310.429V134.473ZM312.828 134.473H313.828V128.859H312.828H311.828V134.473H312.828ZM312.828 128.859V129.859H313.244V128.859V127.859H312.828V128.859ZM313.244 128.859H312.244V134.473H313.244H314.244V128.859H313.244ZM15.752 134.317V135.317H18.1504V134.317V133.317H15.752V134.317ZM18.1504 134.317H17.1504V146.491H18.1504H19.1504V134.317H18.1504ZM18.1504 146.491V145.491H15.752V146.491V147.491H18.1504V146.491ZM15.752 146.491H14.752V153.742H15.752H16.752V146.491H15.752ZM15.752 153.742V152.742H15.335V153.742V154.742H15.752V153.742ZM15.335 153.742H16.335V146.491H15.335H14.335V153.742H15.335ZM15.335 146.491V145.491H12.9336V146.491V147.491H15.335V146.491ZM12.9336 146.491H13.9336V134.317H12.9336H11.9336V146.491H12.9336ZM12.9336 134.317V135.317H15.335V134.317V133.317H12.9336V134.317ZM15.335 134.317H16.335V115.793H15.335H14.335V134.317H15.335ZM15.335 115.793V116.793H15.752V115.793V114.793H15.335V115.793ZM15.752 115.793H14.752V134.317H15.752H16.752V115.793H15.752ZM9.28223 138.399V139.399H11.6836V138.399V137.399H9.28223V138.399ZM11.6836 138.399H10.6836V146.495H11.6836H12.6836V138.399H11.6836ZM11.6836 146.495V145.495H9.28223V146.495V147.495H11.6836V146.495ZM9.28223 146.495H8.28223V151.206H9.28223H10.2822V146.495H9.28223ZM9.28223 151.206V150.206H8.86523V151.206V152.206H9.28223V151.206ZM8.86523 151.206H9.86523V146.495H8.86523H7.86523V151.206H8.86523ZM8.86523 146.495V145.495H6.4668V146.495V147.495H8.86523V146.495ZM6.4668 146.495H7.4668V138.399H6.4668H5.4668V146.495H6.4668ZM6.4668 138.399V139.399H8.86523V138.399V137.399H6.4668V138.399ZM8.86523 138.399H9.86523V131.456H8.86523H7.86523V138.399H8.86523ZM8.86523 131.456V132.456H9.28223V131.456V130.456H8.86523V131.456ZM9.28223 131.456H8.28223V138.399H9.28223H10.2822V131.456H9.28223ZM22.2188 129.155V130.155H24.6201V129.155V128.155H22.2188V129.155ZM24.6201 129.155H23.6201V134.322H24.6201H25.6201V129.155H24.6201ZM24.6201 134.322V133.322H22.2188V134.322V135.322H24.6201V134.322ZM22.2188 134.322H21.2188V150.913H22.2188H23.2188V134.322H22.2188ZM22.2188 150.913V149.913H21.8018V150.913V151.913H22.2188V150.913ZM21.8018 150.913H22.8018V134.322H21.8018H20.8018V150.913H21.8018ZM21.8018 134.322V133.322H19.4033V134.322V135.322H21.8018V134.322ZM19.4033 134.322H20.4033V129.155H19.4033H18.4033V134.322H19.4033ZM19.4033 129.155V130.155H21.8018V129.155V128.155H19.4033V129.155ZM21.8018 129.155H22.8018V115.991H21.8018H20.8018V129.155H21.8018ZM21.8018 115.991V116.991H22.2188V115.991V114.991H21.8018V115.991ZM22.2188 115.991H21.2188V129.155H22.2188H23.2188V115.991H22.2188ZM339.114 132.721V133.721H341.513V132.721V131.721H339.114V132.721ZM341.513 132.721H340.513V139.36H341.513H342.513V132.721H341.513ZM341.513 139.36V138.36H339.114V139.36V140.36H341.513V139.36ZM339.114 139.36H338.114V149.945H339.114H340.114V139.36H339.114ZM339.114 149.945V148.945H338.697V149.945V150.945H339.114V149.945ZM338.697 149.945H339.697V139.36H338.697H337.697V149.945H338.697ZM338.697 139.36V138.36H336.296V139.36V140.36H338.697V139.36ZM336.296 139.36H337.296V132.721H336.296H335.296V139.36H336.296ZM336.296 132.721V133.721H338.697V132.721V131.721H336.296V132.721ZM338.697 132.721H339.697V126.685H338.697H337.697V132.721H338.697ZM338.697 126.685V127.685H339.114V126.685V125.685H338.697V126.685ZM339.114 126.685H338.114V132.721H339.114H340.114V126.685H339.114ZM300.311 139.36V140.36H302.709V139.36V138.36H300.311V139.36ZM302.709 139.36H301.709V143.913H302.709H303.709V139.36H302.709ZM302.709 143.913V142.913H300.311V143.913V144.913H302.709V143.913ZM300.311 143.913H299.311V147.186H300.311H301.311V143.913H300.311ZM300.311 147.186V146.186H299.895V147.186V148.186H300.311V147.186ZM299.895 147.186H300.895V143.913H299.895H298.895V147.186H299.895ZM299.895 143.913V142.913H297.492V143.913V144.913H299.895V143.913ZM297.492 143.913H298.492V139.36H297.492H296.492V143.913H297.492ZM297.492 139.36V140.36H299.895V139.36V138.36H297.492V139.36ZM299.895 139.36H300.895V127.11H299.895H298.895V139.36H299.895ZM299.895 127.11V128.11H300.311V127.11V126.11H299.895V127.11ZM300.311 127.11H299.311V139.36H300.311H301.311V127.11H300.311ZM196.835 140.408V141.408H199.233V140.408V139.408H196.835V140.408ZM199.233 140.408H198.233V145.942H199.233H200.233V140.408H199.233ZM199.233 145.942V144.942H194.017V145.942V146.942H199.233V145.942ZM194.017 145.942H195.017V140.408H194.017H193.017V145.942H194.017ZM194.017 140.408V141.408H196.418V140.408V139.408H194.017V140.408ZM196.418 140.408H197.418V122.833H196.418H195.418V140.408H196.418ZM196.418 122.833V123.833H196.835V122.833V121.833H196.418V122.833ZM196.835 122.833H195.835V140.408H196.835H197.835V122.833H196.835ZM326.178 127.432V128.432H328.579V127.432V126.432H326.178V127.432ZM328.579 127.432H327.579V136.286H328.579H329.579V127.432H328.579ZM328.579 136.286V135.286H326.178V136.286V137.286H328.579V136.286ZM326.178 136.286H325.178V145.938H326.178H327.178V136.286H326.178ZM326.178 145.938V144.938H325.761V145.938V146.938H326.178V145.938ZM325.761 145.938H326.761V136.286H325.761H324.761V145.938H325.761ZM325.761 136.286V135.286H323.362V136.286V137.286H325.761V136.286ZM323.362 136.286H324.362V127.432H323.362H322.362V136.286H323.362ZM323.362 127.432V128.432H325.761V127.432V126.432H323.362V127.432ZM325.761 127.432H326.761V122.88H325.761H324.761V127.432H325.761ZM325.761 122.88V123.88H326.178V122.88V121.88H325.761V122.88ZM326.178 122.88H325.178V127.432H326.178H327.178V122.88H326.178ZM222.701 138.931V139.931H225.104V138.931V137.931H222.701V138.931ZM225.104 138.931H224.104V143.729H225.104H226.104V138.931H225.104ZM225.104 143.729V142.729H222.701V143.729V144.729H225.104V143.729ZM222.701 143.729H221.701V145.834H222.701H223.701V143.729H222.701ZM222.701 145.834V144.834H222.285V145.834V146.834H222.701V145.834ZM222.285 145.834H223.285V143.729H222.285H221.285V145.834H222.285ZM222.285 143.729V142.729H219.886V143.729V144.729H222.285V143.729ZM219.886 143.729H220.886V138.931H219.886H218.886V143.729H219.886ZM219.886 138.931V139.931H222.285V138.931V137.931H219.886V138.931ZM222.285 138.931H223.285V128.458H222.285H221.285V138.931H222.285ZM222.285 128.458V129.458H222.701V128.458V127.458H222.285V128.458ZM222.701 128.458H221.701V138.931H222.701H223.701V128.458H222.701ZM170.965 128.849V129.849H173.366V128.849V127.849H170.965V128.849ZM173.366 128.849H172.366V138.316H173.366H174.366V128.849H173.366ZM173.366 138.316V137.316H170.965V138.316V139.316H173.366V138.316ZM170.965 138.316H169.965V145.596H170.965H171.965V138.316H170.965ZM170.965 145.596V144.596H170.548V145.596V146.596H170.965V145.596ZM170.548 145.596H171.548V138.316H170.548H169.548V145.596H170.548ZM170.548 138.316V137.316H168.149V138.316V139.316H170.548V138.316ZM168.149 138.316H169.149V128.849H168.149H167.149V138.316H168.149ZM168.149 128.849V129.849H170.548V128.849V127.849H168.149V128.849ZM170.548 128.849H171.548V119.878H170.548H169.548V128.849H170.548ZM170.548 119.878V120.878H170.965V119.878V118.878H170.548V119.878ZM170.965 119.878H169.965V128.849H170.965H171.965V119.878H170.965ZM332.645 136.286V137.286H335.046V136.286V135.286H332.645V136.286ZM335.046 136.286H334.046V139.362H335.046H336.046V136.286H335.046ZM335.046 139.362V138.362H332.645V139.362V140.362H335.046V139.362ZM332.645 139.362H331.645V143.912H332.645H333.645V139.362H332.645ZM332.645 143.912V142.912H332.228V143.912V144.912H332.645V143.912ZM332.228 143.912H333.228V139.362H332.228H331.228V143.912H332.228ZM332.228 139.362V138.362H329.829V139.362V140.362H332.228V139.362ZM329.829 139.362H330.829V136.286H329.829H328.829V139.362H329.829ZM329.829 136.286V137.286H332.228V136.286V135.286H329.829V136.286ZM332.228 136.286H333.228V120.547H332.228H331.228V136.286H332.228ZM332.228 120.547V121.547H332.645V120.547V119.547H332.228V120.547ZM332.645 120.547H331.645V136.286H332.645H333.645V120.547H332.645ZM61.0215 120.73V121.73H63.4238V120.73V119.73H61.0215V120.73ZM63.4238 120.73H62.4238V135.304H63.4238H64.4238V120.73H63.4238ZM63.4238 135.304V134.304H61.0215V135.304V136.304H63.4238V135.304ZM61.0215 135.304H60.0215V143.508H61.0215H62.0215V135.304H61.0215ZM61.0215 143.508V142.508H60.6055V143.508V144.508H61.0215V143.508ZM60.6055 143.508H61.6055V135.304H60.6055H59.6055V143.508H60.6055ZM60.6055 135.304V134.304H58.2061V135.304V136.304H60.6055V135.304ZM58.2061 135.304H59.2061V120.73H58.2061H57.2061V135.304H58.2061ZM58.2061 120.73V121.73H60.6055V120.73V119.73H58.2061V120.73ZM60.6055 120.73H61.6055V108.586H60.6055H59.6055V120.73H60.6055ZM60.6055 108.586V109.586H61.0215V108.586V107.586H60.6055V108.586ZM61.0215 108.586H60.0215V120.73H61.0215H62.0215V108.586H61.0215ZM248.571 124.296V125.296H250.973V124.296V123.296H248.571V124.296ZM250.973 124.296H249.973V130.322H250.973H251.973V124.296H250.973ZM250.973 130.322V129.322H248.571V130.322V131.322H250.973V130.322ZM248.571 130.322H247.571V142.897H248.571H249.571V130.322H248.571ZM248.571 142.897V141.897H248.154V142.897V143.897H248.571V142.897ZM248.154 142.897H249.154V130.322H248.154H247.154V142.897H248.154ZM248.154 130.322V129.322H245.756V130.322V131.322H248.154V130.322ZM245.756 130.322H246.756V124.296H245.756H244.756V130.322H245.756ZM245.756 124.296V125.296H248.154V124.296V123.296H245.756V124.296ZM248.154 124.296H249.154V122.107H248.154H247.154V124.296H248.154ZM248.154 122.107V123.107H248.571V122.107V121.107H248.154V122.107ZM248.571 122.107H247.571V124.296H248.571H249.571V122.107H248.571ZM190.364 130.322V131.322H192.767V130.322V129.322H190.364V130.322ZM192.767 130.322H191.767V140.404H192.767H193.767V130.322H192.767ZM192.767 140.404V139.404H190.364V140.404V141.404H192.767V140.404ZM190.364 140.404H189.364V142.001H190.364H191.364V140.404H190.364ZM190.364 142.001V141.001H189.948V142.001V143.001H190.364V142.001ZM189.948 142.001H190.948V140.404H189.948H188.948V142.001H189.948ZM189.948 140.404V139.404H187.55V140.404V141.404H189.948V140.404ZM187.55 140.404H188.55V130.322H187.55H186.55V140.404H187.55ZM187.55 130.322V131.322H189.948V130.322V129.322H187.55V130.322ZM189.948 130.322H190.948V123.007H189.948H188.948V130.322H189.948ZM189.948 123.007V124.007H190.364V123.007V122.007H189.948V123.007ZM190.364 123.007H189.364V130.322H190.364H191.364V123.007H190.364ZM186.3 134.134V133.134H183.898V134.134V135.134H186.3V134.134ZM183.898 134.134H182.898V141.185H183.898H184.898V134.134H183.898ZM183.898 141.185V140.185H183.481V141.185V142.185H183.898V141.185ZM183.481 141.185H184.481V134.134H183.481H182.481V141.185H183.481ZM183.481 134.134V133.134H181.083V134.134V135.134H183.481V134.134ZM181.083 134.134H182.083V130.322H181.083H180.083V134.134H181.083ZM181.083 130.322V131.322H186.3V130.322V129.322H181.083V130.322ZM186.3 130.322H185.3V134.134H186.3H187.3V130.322H186.3ZM270.373 134.137V133.137H267.975V134.137V135.137H270.373V134.137ZM267.975 134.137H266.975V141.182H267.975H268.975V134.137H267.975ZM267.975 141.182V140.182H267.558V141.182V142.182H267.975V141.182ZM267.558 141.182H268.558V134.137H267.558H266.558V141.182H267.558ZM267.558 134.137V133.137H265.156V134.137V135.137H267.558V134.137ZM265.156 134.137H266.156V120.73H265.156H264.156V134.137H265.156ZM265.156 120.73V121.73H270.373V120.73V119.73H265.156V120.73ZM270.373 120.73H269.373V134.137H270.373H271.373V120.73H270.373ZM160.43 119.748V118.748H158.031V119.748V120.748H160.43V119.748ZM158.031 119.748H157.031V140.521H158.031H159.031V119.748H158.031ZM158.031 140.521V139.521H157.615V140.521V141.521H158.031V140.521ZM157.615 140.521H158.615V119.748H157.615H156.615V140.521H157.615ZM157.615 119.748V118.748H155.213V119.748V120.748H157.615V119.748ZM155.213 119.748H156.213V97.4268H155.213H154.213V119.748H155.213ZM155.213 97.4268V98.4268H160.43V97.4268V96.4268H155.213V97.4268ZM160.43 97.4268H159.43V119.748H160.43H161.43V97.4268H160.43ZM293.841 129.585V130.585H296.243V129.585V128.585H293.841V129.585ZM296.243 129.585H295.243V139.36H296.243H297.243V129.585H296.243ZM296.243 139.36V138.36H293.841V139.36V140.36H296.243V139.36ZM293.841 139.36H292.841V140.361H293.841H294.841V139.36H293.841ZM293.841 140.361V139.361H293.425V140.361V141.361H293.841V140.361ZM293.425 140.361H294.425V139.36H293.425H292.425V140.361H293.425ZM293.425 139.36V138.36H291.026V139.36V140.36H293.425V139.36ZM291.026 139.36H292.026V129.585H291.026H290.026V139.36H291.026ZM291.026 129.585V130.585H293.425V129.585V128.585H291.026V129.585ZM293.425 129.585H294.425V120.286H293.425H292.425V129.585H293.425ZM293.425 120.286V121.286H293.841V120.286V119.286H293.425V120.286ZM293.841 120.286H292.841V129.585H293.841H294.841V120.286H293.841ZM177.432 134.133V135.133H179.833V134.133V133.133H177.432V134.133ZM179.833 134.133H178.833V138.313H179.833H180.833V134.133H179.833ZM179.833 138.313V137.313H177.432V138.313V139.313H179.833V138.313ZM177.432 138.313H176.432V139.718H177.432H178.432V138.313H177.432ZM177.432 139.718V138.718H177.015V139.718V140.718H177.432V139.718ZM177.015 139.718H178.015V138.313H177.015H176.015V139.718H177.015ZM177.015 138.313V137.313H174.616V138.313V139.313H177.015V138.313ZM174.616 138.313H175.616V134.133H174.616H173.616V138.313H174.616ZM174.616 134.133V135.133H177.015V134.133V133.133H174.616V134.133ZM177.015 134.133H178.015V122.577H177.015H176.015V134.133H177.015ZM177.015 122.577V123.577H177.432V122.577V121.577H177.015V122.577ZM177.432 122.577H176.432V134.133H177.432H178.432V122.577H177.432ZM235.638 127.002V128.002H238.036V127.002V126.002H235.638V127.002ZM238.036 127.002H237.036V135.365H238.036H239.036V127.002H238.036ZM238.036 135.365V134.365H235.638V135.365V136.365H238.036V135.365ZM235.638 135.365H234.638V139.147H235.638H236.638V135.365H235.638ZM235.638 139.147V138.147H235.222V139.147V140.147H235.638V139.147ZM235.222 139.147H236.222V135.365H235.222H234.222V139.147H235.222ZM235.222 135.365V134.365H232.819V135.365V136.365H235.222V135.365ZM232.819 135.365H233.819V127.002H232.819H231.819V135.365H232.819ZM232.819 127.002V128.002H235.222V127.002V126.002H232.819V127.002ZM235.222 127.002H236.222V123.949H235.222H234.222V127.002H235.222ZM235.222 123.949V124.949H235.638V123.949V122.949H235.222V123.949ZM235.638 123.949H234.638V127.002H235.638H236.638V123.949H235.638ZM229.171 135.365V136.365H231.569V135.365V134.365H229.171V135.365ZM231.569 135.365H230.569V138.932H231.569H232.569V135.365H231.569ZM231.569 138.932V137.932H226.353V138.932V139.932H231.569V138.932ZM226.353 138.932H227.353V135.365H226.353H225.353V138.932H226.353ZM226.353 135.365V136.365H228.755V135.365V134.365H226.353V135.365ZM228.755 135.365H229.755V125.716H228.755H227.755V135.365H228.755ZM228.755 125.716V126.716H229.171V125.716V124.716H228.755V125.716ZM229.171 125.716H228.171V135.365H229.171H230.171V125.716H229.171ZM2.81543 128.292V129.292H5.2168V128.292V127.292H2.81543V128.292ZM5.2168 128.292H4.2168V138.399H5.2168H6.2168V128.292H5.2168ZM5.2168 138.399V137.399H0V138.399V139.399H5.2168V138.399ZM0 138.399H1V128.292H0H-1V138.399H0ZM0 128.292V129.292H2.39844V128.292V127.292H0V128.292ZM2.39844 128.292H3.39844V111.779H2.39844H1.39844V128.292H2.39844ZM2.39844 111.779V112.779H2.81543V111.779V110.779H2.39844V111.779ZM2.81543 111.779H1.81543V128.292H2.81543H3.81543V111.779H2.81543ZM345.581 106.097V107.097H347.982V106.097V105.097H345.581V106.097ZM347.982 106.097H346.982V132.721H347.982H348.982V106.097H347.982ZM347.982 132.721V131.721H345.581V132.721V133.721H347.982V132.721ZM345.581 132.721H344.581V137.825H345.581H346.581V132.721H345.581ZM345.581 137.825V136.825H345.164V137.825V138.825H345.581V137.825ZM345.164 137.825H346.164V132.721H345.164H344.164V137.825H345.164ZM345.164 132.721V131.721H342.766V132.721V133.721H345.164V132.721ZM342.766 132.721H343.766V106.097H342.766H341.766V132.721H342.766ZM342.766 106.097V107.097H345.164V106.097V105.097H342.766V106.097ZM345.164 106.097H346.164V100.255H345.164H344.164V106.097H345.164ZM345.164 100.255V101.255H345.581V100.255V99.2549H345.164V100.255ZM345.581 100.255H344.581V106.097H345.581H346.581V100.255H345.581ZM99.8252 121.652V122.652H102.227V121.652V120.652H99.8252V121.652ZM102.227 121.652H101.227V137.515H102.227H103.227V121.652H102.227ZM102.227 137.515V136.515H99.8252V137.515V138.515H102.227V137.515ZM99.8252 137.515H98.8252V137.565H99.8252H100.825V137.515H99.8252ZM99.8252 137.565V136.565H99.4082V137.565V138.565H99.8252V137.565ZM99.4082 137.565H100.408V137.515H99.4082H98.4082V137.565H99.4082ZM99.4082 137.515V136.515H97.0098V137.515V138.515H99.4082V137.515ZM97.0098 137.515H98.0098V121.652H97.0098H96.0098V137.515H97.0098ZM97.0098 121.652V122.652H99.4082V121.652V120.652H97.0098V121.652ZM99.4082 121.652H100.408V117.086H99.4082H98.4082V121.652H99.4082ZM99.4082 117.086V118.086H99.8252V117.086V116.086H99.4082V117.086ZM99.8252 117.086H98.8252V121.652H99.8252H100.825V117.086H99.8252ZM319.711 127.432V128.432H322.112V127.432V126.432H319.711V127.432ZM322.112 127.432H321.112V134.473H322.112H323.112V127.432H322.112ZM322.112 134.473V133.473H319.711V134.473V135.473H322.112V134.473ZM319.711 134.473H318.711V137.37H319.711H320.711V134.473H319.711ZM319.711 137.37V136.37H319.294V137.37V138.37H319.711V137.37ZM319.294 137.37H320.294V134.473H319.294H318.294V137.37H319.294ZM319.294 134.473V133.473H316.896V134.473V135.473H319.294V134.473ZM316.896 134.473H317.896V127.432H316.896H315.896V134.473H316.896ZM316.896 127.432V128.432H319.294V127.432V126.432H316.896V127.432ZM319.294 127.432H320.294V114.312H319.294H318.294V127.432H319.294ZM319.294 114.312V115.312H319.711V114.312V113.312H319.294V114.312ZM319.711 114.312H318.711V127.432H319.711H320.711V114.312H319.711ZM287.374 124.882V125.882H289.776V124.882V123.882H287.374V124.882ZM289.776 124.882H288.776V129.586H289.776H290.776V124.882H289.776ZM289.776 129.586V128.586H287.374V129.586V130.586H289.776V129.586ZM287.374 129.586H286.374V136.341H287.374H288.374V129.586H287.374ZM287.374 136.341V135.341H286.958V136.341V137.341H287.374V136.341ZM286.958 136.341H287.958V129.586H286.958H285.958V136.341H286.958ZM286.958 129.586V128.586H284.56V129.586V130.586H286.958V129.586ZM284.56 129.586H285.56V124.882H284.56H283.56V129.586H284.56ZM284.56 124.882V125.882H286.958V124.882V123.882H284.56V124.882ZM286.958 124.882H287.958V113.657H286.958H285.958V124.882H286.958ZM286.958 113.657V114.657H287.374V113.657V112.657H286.958V113.657ZM287.374 113.657H286.374V124.882H287.374H288.374V113.657H287.374ZM255.038 124.296V125.296H257.439V124.296V123.296H255.038V124.296ZM257.439 124.296H256.439V134.133H257.439H258.439V124.296H257.439ZM257.439 134.133V133.133H255.038V134.133V135.133H257.439V134.133ZM255.038 134.133H254.038V134.877H255.038H256.038V134.133H255.038ZM255.038 134.877V133.877H254.621V134.877V135.877H255.038V134.877ZM254.621 134.877H255.621V134.133H254.621H253.621V134.877H254.621ZM254.621 134.133V133.133H252.223V134.133V135.133H254.621V134.133ZM252.223 134.133H253.223V124.296H252.223H251.223V134.133H252.223ZM252.223 124.296V125.296H254.621V124.296V123.296H252.223V124.296ZM254.621 124.296H255.621V119.712H254.621H253.621V124.296H254.621ZM254.621 119.712V120.712H255.038V119.712V118.712H254.621V119.712ZM255.038 119.712H254.038V124.296H255.038H256.038V119.712H255.038ZM242.104 127.002V128.002H244.506V127.002V126.002H242.104V127.002ZM244.506 127.002H243.506V130.323H244.506H245.506V127.002H244.506ZM244.506 130.323V129.323H242.104V130.323V131.323H244.506V130.323ZM242.104 130.323H241.104V134.343H242.104H243.104V130.323H242.104ZM242.104 134.343V133.343H241.688V134.343V135.343H242.104V134.343ZM241.688 134.343H242.688V130.323H241.688H240.688V134.343H241.688ZM241.688 130.323V129.323H239.289V130.323V131.323H241.688V130.323ZM239.289 130.323H240.289V127.002H239.289H238.289V130.323H239.289ZM239.289 127.002V128.002H241.688V127.002V126.002H239.289V127.002ZM241.688 127.002H242.688V113.553H241.688H240.688V127.002H241.688ZM241.688 113.553V114.553H242.104V113.553V112.553H241.688V113.553ZM242.104 113.553H241.104V127.002H242.104H243.104V113.553H242.104ZM261.505 129.585V130.585H263.906V129.585V128.585H261.505V129.585ZM263.906 129.585H262.906V134.138H263.906H264.906V129.585H263.906ZM263.906 134.138V133.138H258.689V134.138V135.138H263.906V134.138ZM258.689 134.138H259.689V129.585H258.689H257.689V134.138H258.689ZM258.689 129.585V130.585H261.088V129.585V128.585H258.689V129.585ZM261.088 129.585H262.088V117.718H261.088H260.088V129.585H261.088ZM261.088 117.718V118.718H261.505V117.718V116.718H261.088V117.718ZM261.505 117.718H260.505V129.585H261.505H262.505V117.718H261.505ZM164.498 119.744V120.744H166.896V119.744V118.744H164.498V119.744ZM166.896 119.744H165.896V128.845H166.896H167.896V119.744H166.896ZM166.896 128.845V127.845H164.498V128.845V129.845H166.896V128.845ZM164.498 128.845H163.498V132.797H164.498H165.498V128.845H164.498ZM164.498 132.797V131.797H164.081V132.797V133.797H164.498V132.797ZM164.081 132.797H165.081V128.845H164.081H163.081V132.797H164.081ZM164.081 128.845V127.845H161.68V128.845V129.845H164.081V128.845ZM161.68 128.845H162.68V119.744H161.68H160.68V128.845H161.68ZM161.68 119.744V120.744H164.081V119.744V118.744H161.68V119.744ZM164.081 119.744H165.081V109.872H164.081H163.081V119.744H164.081ZM164.081 109.872V110.872H164.498V109.872V108.872H164.081V109.872ZM164.498 109.872H163.498V119.744H164.498H165.498V109.872H164.498ZM274.441 115.626V116.626H276.843V115.626V114.626H274.441V115.626ZM276.843 115.626H275.843V120.731H276.843H277.843V115.626H276.843ZM276.843 120.731V119.731H274.441V120.731V121.731H276.843V120.731ZM274.441 120.731H273.441V131.312H274.441H275.441V120.731H274.441ZM274.441 131.312V130.312H274.024V131.312V132.312H274.441V131.312ZM274.024 131.312H275.024V120.731H274.024H273.024V131.312H274.024ZM274.024 120.731V119.731H271.626V120.731V121.731H274.024V120.731ZM271.626 120.731H272.626V115.626H271.626H270.626V120.731H271.626ZM271.626 115.626V116.626H274.024V115.626V114.626H271.626V115.626ZM274.024 115.626H275.024V114.354H274.024H273.024V115.626H274.024ZM274.024 114.354V115.354H274.441V114.354V113.354H274.024V114.354ZM274.441 114.354H273.441V115.626H274.441H275.441V114.354H274.441ZM132.161 120.301V121.301H134.563V120.301V119.301H132.161V120.301ZM134.563 120.301H133.563V125.222H134.563H135.563V120.301H134.563ZM134.563 125.222V124.222H132.161V125.222V126.222H134.563V125.222ZM132.161 125.222H131.161V131.182H132.161H133.161V125.222H132.161ZM132.161 131.182V130.182H131.745V131.182V132.182H132.161V131.182ZM131.745 131.182H132.745V125.222H131.745H130.745V131.182H131.745ZM131.745 125.222V124.222H129.347V125.222V126.222H131.745V125.222ZM129.347 125.222H130.347V120.301H129.347H128.347V125.222H129.347ZM129.347 120.301V121.301H131.745V120.301V119.301H129.347V120.301ZM131.745 120.301H132.745V104.25H131.745H130.745V120.301H131.745ZM131.745 104.25V105.25H132.161V104.25V103.25H131.745V104.25ZM132.161 104.25H131.161V120.301H132.161H133.161V104.25H132.161ZM48.0879 100.255V101.255H50.4873V100.255V99.2549H48.0879V100.255ZM50.4873 100.255H49.4873V116.117H50.4873H51.4873V100.255H50.4873ZM50.4873 116.117V115.117H48.0879V116.117V117.117H50.4873V116.117ZM48.0879 116.117H47.0879V130.759H48.0879H49.0879V116.117H48.0879ZM48.0879 130.759V129.759H47.6719V130.759V131.759H48.0879V130.759ZM47.6719 130.759H48.6719V116.117H47.6719H46.6719V130.759H47.6719ZM47.6719 116.117V115.117H45.2695V116.117V117.117H47.6719V116.117ZM45.2695 116.117H46.2695V100.255H45.2695H44.2695V116.117H45.2695ZM45.2695 100.255V101.255H47.6719V100.255V99.2549H45.2695V100.255ZM47.6719 100.255H48.6719V92.8096H47.6719H46.6719V100.255H47.6719ZM47.6719 92.8096V93.8096H48.0879V92.8096V91.8096H47.6719V92.8096ZM48.0879 92.8096H47.0879V100.255H48.0879H49.0879V92.8096H48.0879ZM54.5547 116.117V117.117H56.9531V116.117V115.117H54.5547V116.117ZM56.9531 116.117H55.9531V120.731H56.9531H57.9531V116.117H56.9531ZM56.9531 120.731V119.731H54.5547V120.731V121.731H56.9531V120.731ZM54.5547 120.731H53.5547V130.304H54.5547H55.5547V120.731H54.5547ZM54.5547 130.304V129.304H54.1387V130.304V131.304H54.5547V130.304ZM54.1387 130.304H55.1387V120.731H54.1387H53.1387V130.304H54.1387ZM54.1387 120.731V119.731H51.7363V120.731V121.731H54.1387V120.731ZM51.7363 120.731H52.7363V116.117H51.7363H50.7363V120.731H51.7363ZM51.7363 116.117V117.117H54.1387V116.117V115.117H51.7363V116.117ZM54.1387 116.117H55.1387V102.795H54.1387H53.1387V116.117H54.1387ZM54.1387 102.795V103.795H54.5547V102.795V101.795H54.1387V102.795ZM54.5547 102.795H53.5547V116.117H54.5547H55.5547V102.795H54.5547ZM283.31 124.882V123.882H280.907V124.882V125.882H283.31V124.882ZM280.907 124.882H279.907V129.932H280.907H281.907V124.882H280.907ZM280.907 129.932V128.932H280.491V129.932V130.932H280.907V129.932ZM280.491 129.932H281.491V124.882H280.491H279.491V129.932H280.491ZM280.491 124.882V123.882H278.093V124.882V125.882H280.491V124.882ZM278.093 124.882H279.093V115.626H278.093H277.093V124.882H278.093ZM278.093 115.626V116.626H283.31V115.626V114.626H278.093V115.626ZM283.31 115.626H282.31V124.882H283.31H284.31V115.626H283.31ZM106.292 121.652V122.652H108.693V121.652V120.652H106.292V121.652ZM108.693 121.652H107.693V124.359H108.693H109.693V121.652H108.693ZM108.693 124.359V123.359H106.292V124.359V125.359H108.693V124.359ZM106.292 124.359H105.292V129.791H106.292H107.292V124.359H106.292ZM106.292 129.791V128.791H105.875V129.791V130.791H106.292V129.791ZM105.875 129.791H106.875V124.359H105.875H104.875V129.791H105.875ZM105.875 124.359V123.359H103.477V124.359V125.359H105.875V124.359ZM103.477 124.359H104.477V121.652H103.477H102.477V124.359H103.477ZM103.477 121.652V122.652H105.875V121.652V120.652H103.477V121.652ZM105.875 121.652H106.875V115.287H105.875H104.875V121.652H105.875ZM105.875 115.287V116.287H106.292V115.287V114.287H105.875V115.287ZM106.292 115.287H105.292V121.652H106.292H107.292V115.287H106.292ZM141.03 125.218V124.218H138.628V125.218V126.218H141.03V125.218ZM138.628 125.218H137.628V129.787H138.628H139.628V125.218H138.628ZM138.628 129.787V128.787H138.212V129.787V130.787H138.628V129.787ZM138.212 129.787H139.212V125.218H138.212H137.212V129.787H138.212ZM138.212 125.218V124.218H135.812V125.218V126.218H138.212V125.218ZM135.812 125.218H136.812V116.24H135.812H134.812V125.218H135.812ZM135.812 116.24V117.24H141.03V116.24V115.24H135.812V116.24ZM141.03 116.24H140.03V125.218H141.03H142.03V116.24H141.03ZM28.6846 112.307V113.307H31.0869V112.307V111.307H28.6846V112.307ZM31.0869 112.307H30.0869V129.155H31.0869H32.0869V112.307H31.0869ZM31.0869 129.155V128.155H25.8701V129.155V130.155H31.0869V129.155ZM25.8701 129.155H26.8701V112.307H25.8701H24.8701V129.155H25.8701ZM25.8701 112.307V113.307H28.2686V112.307V111.307H25.8701V112.307ZM28.2686 112.307H29.2686V105.161H28.2686H27.2686V112.307H28.2686ZM28.2686 105.161V106.161H28.6846V105.161V104.161H28.2686V105.161ZM28.6846 105.161H27.6846V112.307H28.6846H29.6846V105.161H28.6846ZM364.98 112.552V113.552H367.383V112.552V111.552H364.98V112.552ZM367.383 112.552H366.383V120.254H367.383H368.383V112.552H367.383ZM367.383 120.254V119.254H364.98V120.254V121.254H367.383V120.254ZM364.98 120.254H363.98V129.115H364.98H365.98V120.254H364.98ZM364.98 129.115V128.115H364.564V129.115V130.115H364.98V129.115ZM364.564 129.115H365.564V120.254H364.564H363.564V129.115H364.564ZM364.564 120.254V119.254H362.166V120.254V121.254H364.564V120.254ZM362.166 120.254H363.166V112.552H362.166H361.166V120.254H362.166ZM362.166 112.552V113.552H364.564V112.552V111.552H362.166V112.552ZM364.564 112.552H365.564V109.615H364.564H363.564V112.552H364.564ZM364.564 109.615V110.615H364.98V109.615V108.615H364.564V109.615ZM364.98 109.615H363.98V112.552H364.98H365.98V109.615H364.98ZM145.095 111.074V112.074H147.496V111.074V110.074H145.095V111.074ZM147.496 111.074H146.496V116.241H147.496H148.496V111.074H147.496ZM147.496 116.241V115.241H145.095V116.241V117.241H147.496V116.241ZM145.095 116.241H144.095V125.843H145.095H146.095V116.241H145.095ZM145.095 125.843V124.843H144.678V125.843V126.843H145.095V125.843ZM144.678 125.843H145.678V116.241H144.678H143.678V125.843H144.678ZM144.678 116.241V115.241H142.279V116.241V117.241H144.678V116.241ZM142.279 116.241H143.279V111.074H142.279H141.279V116.241H142.279ZM142.279 111.074V112.074H144.678V111.074V110.074H142.279V111.074ZM144.678 111.074H145.678V109.232H144.678H143.678V111.074H144.678ZM144.678 109.232V110.232H145.095V109.232V108.232H144.678V109.232ZM145.095 109.232H144.095V111.074H145.095H146.095V109.232H145.095ZM119.229 109.478V110.478H121.627V109.478V108.478H119.229V109.478ZM121.627 109.478H120.627V116.24H121.627H122.627V109.478H121.627ZM121.627 116.24V115.24H119.229V116.24V117.24H121.627V116.24ZM119.229 116.24H118.229V125.401H119.229H120.229V116.24H119.229ZM119.229 125.401V124.401H118.812V125.401V126.401H119.229V125.401ZM118.812 125.401H119.812V116.24H118.812H117.812V125.401H118.812ZM118.812 116.24V115.24H116.41V116.24V117.24H118.812V116.24ZM116.41 116.24H117.41V109.478H116.41H115.41V116.24H116.41ZM116.41 109.478V110.478H118.812V109.478V108.478H116.41V109.478ZM118.812 109.478H119.812V94.4424H118.812H117.812V109.478H118.812ZM118.812 94.4424V95.4424H119.229V94.4424V93.4424H118.812V94.4424ZM119.229 94.4424H118.229V109.478H119.229H120.229V94.4424H119.229ZM153.963 111.078V110.078H151.562V111.078V112.078H153.963V111.078ZM151.562 111.078H150.562V125.218H151.562H152.562V111.078H151.562ZM151.562 125.218V124.218H151.145V125.218V126.218H151.562V125.218ZM151.145 125.218H152.145V111.078H151.145H150.145V125.218H151.145ZM151.145 111.078V110.078H148.746V111.078V112.078H151.145V111.078ZM148.746 111.078H149.746V97.4268H148.746H147.746V111.078H148.746ZM148.746 97.4268V98.4268H153.963V97.4268V96.4268H148.746V97.4268ZM153.963 97.4268H152.963V111.078H153.963H154.963V97.4268H153.963ZM41.6182 100.255V101.255H44.0205V100.255V99.2549H41.6182V100.255ZM44.0205 100.255H43.0205V104.067H44.0205H45.0205V100.255H44.0205ZM44.0205 104.067V103.067H41.6182V104.067V105.067H44.0205V104.067ZM41.6182 104.067H40.6182V124.806H41.6182H42.6182V104.067H41.6182ZM41.6182 124.806V123.806H41.2021V124.806V125.806H41.6182V124.806ZM41.2021 124.806H42.2021V104.067H41.2021H40.2021V124.806H41.2021ZM41.2021 104.067V103.067H38.8037V104.067V105.067H41.2021V104.067ZM38.8037 104.067H39.8037V100.255H38.8037H37.8037V104.067H38.8037ZM38.8037 100.255V101.255H41.2021V100.255V99.2549H38.8037V100.255ZM41.2021 100.255H42.2021V97.3438H41.2021H40.2021V100.255H41.2021ZM41.2021 97.3438V98.3438H41.6182V97.3438V96.3438H41.2021V97.3438ZM41.6182 97.3438H40.6182V100.255H41.6182H42.6182V97.3438H41.6182ZM112.758 116.24V117.24H115.16V116.24V115.24H112.758V116.24ZM115.16 116.24H114.16V124.357H115.16H116.16V116.24H115.16ZM115.16 124.357V123.357H109.943V124.357V125.357H115.16V124.357ZM109.943 124.357H110.943V116.24H109.943H108.943V124.357H109.943ZM109.943 116.24V117.24H112.342V116.24V115.24H109.943V116.24ZM112.342 116.24H113.342V105.017H112.342H111.342V116.24H112.342ZM112.342 105.017V106.017H112.758V105.017V104.017H112.342V105.017ZM112.758 105.017H111.758V116.24H112.758H113.758V105.017H112.758ZM125.694 109.478V110.478H128.094V109.478V108.478H125.694V109.478ZM128.094 109.478H127.094V120.301H128.094H129.094V109.478H128.094ZM128.094 120.301V119.301H125.694V120.301V121.301H128.094V120.301ZM125.694 120.301H124.694V122.522H125.694H126.694V120.301H125.694ZM125.694 122.522V121.522H125.278V122.522V123.522H125.694V122.522ZM125.278 122.522H126.278V120.301H125.278H124.278V122.522H125.278ZM125.278 120.301V119.301H122.876V120.301V121.301H125.278V120.301ZM122.876 120.301H123.876V109.478H122.876H121.876V120.301H122.876ZM122.876 109.478V110.478H125.278V109.478V108.478H122.876V109.478ZM125.278 109.478H126.278V95.5518H125.278H124.278V109.478H125.278ZM125.278 95.5518V96.5518H125.694V95.5518V94.5518H125.278V95.5518ZM125.694 95.5518H124.694V109.478H125.694H126.694V95.5518H125.694ZM360.916 112.552V111.552H358.514V112.552V113.552H360.916V112.552ZM358.514 112.552H357.514V122.302H358.514H359.514V112.552H358.514ZM358.514 122.302V121.302H358.098V122.302V123.302H358.514V122.302ZM358.098 122.302H359.098V112.552H358.098H357.098V122.302H358.098ZM358.098 112.552V111.552H355.699V112.552V113.552H358.098V112.552ZM355.699 112.552H356.699V98.1631H355.699H354.699V112.552H355.699ZM355.699 98.1631V99.1631H360.916V98.1631V97.1631H355.699V98.1631ZM360.916 98.1631H359.916V112.552H360.916H361.916V98.1631H360.916ZM37.5537 112.307V111.307H35.1514V112.307V113.307H37.5537V112.307ZM35.1514 112.307H34.1514V117.097H35.1514H36.1514V112.307H35.1514ZM35.1514 117.097V116.097H34.7354V117.097V118.097H35.1514V117.097ZM34.7354 117.097H35.7354V112.307H34.7354H33.7354V117.097H34.7354ZM34.7354 112.307V111.307H32.3369V112.307V113.307H34.7354V112.307ZM32.3369 112.307H33.3369V104.066H32.3369H31.3369V112.307H32.3369ZM32.3369 104.066V105.066H37.5537V104.066V103.066H32.3369V104.066ZM37.5537 104.066H36.5537V112.307H37.5537H38.5537V104.066H37.5537ZM352.048 98.1631V99.1631H354.449V98.1631V97.1631H352.048V98.1631ZM354.449 98.1631H353.449V106.097H354.449H355.449V98.1631H354.449ZM354.449 106.097V105.097H352.048V106.097V107.097H354.449V106.097ZM352.048 106.097H351.048V114.365H352.048H353.048V106.097H352.048ZM352.048 114.365V113.365H351.631V114.365V115.365H352.048V114.365ZM351.631 114.365H352.631V106.097H351.631H350.631V114.365H351.631ZM351.631 106.097V105.097H349.232V106.097V107.097H351.631V106.097ZM349.232 106.097H350.232V98.1631H349.232H348.232V106.097H349.232ZM349.232 98.1631V99.1631H351.631V98.1631V97.1631H349.232V98.1631ZM351.631 98.1631H352.631V91H351.631H350.631V98.1631H351.631ZM351.631 91V92H352.048V91V90H351.631V91ZM352.048 91H351.048V98.1631H352.048H353.048V91H352.048Z" fill="white" mask="url(#path-1-inside-1_2123_22)"/>
<rect y="19" width="367.383" height="193" rx="26" fill="#D9D9D9" fill-opacity="0.1"/>
<rect x="0.5" y="19.5" width="366.383" height="192" rx="25.5" stroke="white" stroke-opacity="0.2"/>
<line x1="26.0549" y1="96.693" x2="357.444" y2="90.4872" stroke="white"/>
<line x1="63.2822" y1="158.131" x2="357.436" y2="148.201" stroke="white"/>
<circle cx="309.048" cy="148.701" r="13.0322" fill="#D9D9D9" fill-opacity="0.4"/>
<rect x="264.367" y="97.1929" width="93.0868" height="14.8939" fill="#D9D9D9" fill-opacity="0.2"/>
<rect x="84.3987" y="138.772" width="156.386" height="7.44695" fill="#D9D9D9" fill-opacity="0.2"/>
</g>
<g filter="url(#filter0_d_2123_22)">
<circle cx="178" cy="68" r="68" fill="url(#paint0_linear_2123_22)"/>
<circle cx="178" cy="68" r="67.5" stroke="white"/>
</g>
<path d="M180.698 62.2613C180.698 64.1715 181.608 65.9675 183.147 67.0979L203.644 82.1455C204.845 83.0273 205.104 84.716 204.223 85.9173C203.341 87.1188 201.652 87.3778 200.45 86.4958L175.313 68.0414C175.307 68.0369 175.305 68.0282 175.31 68.022L175.316 68.0131C175.32 68.0076 175.317 68 175.31 68C175.305 68 175.302 67.9963 175.302 67.9918V20.5078C175.302 19.0176 176.51 17.8096 178 17.8096C179.49 17.8096 180.698 19.0176 180.698 20.5078V62.2613Z" fill="url(#paint1_linear_2123_22)"/>
<defs>
<filter id="filter0_d_2123_22" x="64.7" y="0" width="184.6" height="192.3" filterUnits="userSpaceOnUse" color-interpolation-filters="sRGB">
<feFlood flood-opacity="0" result="BackgroundImageFix"/>
<feColorMatrix in="SourceAlpha" type="matrix" values="0 0 0 0 0 0 0 0 0 0 0 0 0 0 0 0 0 0 127 0" result="hardAlpha"/>
<feOffset dx="-21" dy="32"/>
<feGaussianBlur stdDeviation="12.15"/>
<feComposite in2="hardAlpha" operator="out"/>
<feColorMatrix type="matrix" values="0 0 0 0 0 0 0 0 0 0 0 0 0 0 0 0 0 0 0.3 0"/>
<feBlend mode="normal" in2="BackgroundImageFix" result="effect1_dropShadow_2123_22"/>
<feBlend mode="normal" in="SourceGraphic" in2="effect1_dropShadow_2123_22" result="shape"/>
</filter>
<linearGradient id="paint0_linear_2123_22" x1="178" y1="0" x2="178" y2="136" gradientUnits="userSpaceOnUse">
<stop stop-color="#65A953"/>
<stop offset="1" stop-color="#528958"/>
</linearGradient>
<linearGradient id="paint1_linear_2123_22" x1="190.024" y1="17.8096" x2="190.024" y2="87.0192" gradientUnits="userSpaceOnUse">
<stop stop-color="#37FF00"/>
<stop offset="1" stop-color="#05FF79"/>
</linearGradient>
</defs>
</svg>
