<svg width="50" height="50" viewBox="0 0 50 50" fill="none" xmlns="http://www.w3.org/2000/svg">
<path d="M24.75 45.613C20.7643 45.613 17.039 44.4953 13.8721 42.5557L11.8457 45.8735C15.6035 48.1742 20.0214 49.5001 24.75 49.5001C29.4786 49.5001 33.8974 48.1742 37.6543 45.8735L35.6279 42.5557C32.46 44.4953 28.7357 45.613 24.75 45.613Z" fill="#00DD5E"/>
<path d="M24.75 3.88707C28.7357 3.88707 32.461 5.00485 35.6279 6.94444L37.6543 3.62662C33.8974 1.32595 29.4786 0 24.75 0C20.0214 0 15.6025 1.32595 11.8457 3.62662L13.8721 6.94444C17.04 5.00485 20.7643 3.88707 24.75 3.88707Z" fill="#00DD5E"/>
<path d="M20.2966 24.75C22.7561 24.75 24.75 22.7561 24.75 20.2966C24.75 22.7561 26.7438 24.75 29.2034 24.75C26.7438 24.75 24.75 26.7438 24.75 29.2034C24.75 26.7438 22.7561 24.75 20.2966 24.75Z" fill="#FF0000"/>
<path d="M44.9855 19.6544C44.9411 20.1279 44.7349 21.6798 43.4544 23.0353C42.1945 24.3692 40.689 24.673 40.2155 24.75C40.689 24.826 42.1945 25.1308 43.4544 26.4646C44.7339 27.8202 44.9411 29.3721 44.9855 29.8456C44.4666 31.9125 43.6398 33.858 42.5556 35.6279L45.8734 37.6543C48.1741 33.8965 49.5 29.4786 49.5 24.75C49.5 20.0214 48.1741 15.6025 45.8734 11.8457L42.5556 13.8721C43.6398 15.643 44.4666 17.5875 44.9855 19.6554V19.6544Z" fill="#FF0000"/>
<path d="M6.94444 35.6279C5.86021 33.857 5.03346 31.9125 4.51453 29.8446C4.55892 29.3711 4.76512 27.8192 6.04568 26.4637C7.30553 25.1298 8.81103 24.826 9.28458 24.749C8.81103 24.6731 7.30553 24.3682 6.04568 23.0344C4.7661 21.6788 4.55892 20.127 4.51453 19.6534C5.03346 17.5866 5.86021 15.641 6.94444 13.8702L3.62662 11.8438C1.32595 15.6026 0 20.0214 0 24.75C0 29.4786 1.32595 33.8975 3.62662 37.6543L6.94444 35.6279Z" fill="#FF0000"/>
</svg>
