<svg width="211" height="50" viewBox="0 0 211 50" fill="none" xmlns="http://www.w3.org/2000/svg">
<path d="M24.75 45.613C20.7643 45.613 17.039 44.4953 13.8721 42.5557L11.8457 45.8735C15.6035 48.1742 20.0214 49.5001 24.75 49.5001C29.4786 49.5001 33.8974 48.1742 37.6543 45.8735L35.6279 42.5557C32.46 44.4953 28.7357 45.613 24.75 45.613Z" fill="#00DD5E"/>
<path d="M24.75 3.88707C28.7357 3.88707 32.461 5.00485 35.6279 6.94444L37.6543 3.62662C33.8974 1.32595 29.4786 0 24.75 0C20.0214 0 15.6025 1.32595 11.8457 3.62662L13.8721 6.94444C17.04 5.00485 20.7643 3.88707 24.75 3.88707Z" fill="#00DD5E"/>
<path d="M20.2966 24.75C22.7561 24.75 24.75 22.7561 24.75 20.2966C24.75 22.7561 26.7438 24.75 29.2034 24.75C26.7438 24.75 24.75 26.7438 24.75 29.2034C24.75 26.7438 22.7561 24.75 20.2966 24.75Z" fill="#FF0000"/>
<path d="M44.9855 19.6544C44.9411 20.1279 44.7349 21.6798 43.4544 23.0353C42.1945 24.3692 40.689 24.673 40.2155 24.75C40.689 24.826 42.1945 25.1308 43.4544 26.4646C44.7339 27.8202 44.9411 29.3721 44.9855 29.8456C44.4666 31.9125 43.6398 33.858 42.5556 35.6279L45.8734 37.6543C48.1741 33.8965 49.5 29.4786 49.5 24.75C49.5 20.0214 48.1741 15.6025 45.8734 11.8457L42.5556 13.8721C43.6398 15.643 44.4666 17.5875 44.9855 19.6554V19.6544Z" fill="#FF0000"/>
<path d="M6.94444 35.6279C5.86021 33.857 5.03346 31.9125 4.51453 29.8446C4.55892 29.3711 4.76512 27.8192 6.04568 26.4637C7.30553 25.1298 8.81103 24.826 9.28458 24.749C8.81103 24.6731 7.30553 24.3682 6.04568 23.0344C4.7661 21.6788 4.55892 20.127 4.51453 19.6534C5.03346 17.5866 5.86021 15.641 6.94444 13.8702L3.62662 11.8438C1.32595 15.6026 0 20.0214 0 24.75C0 29.4786 1.32595 33.8975 3.62662 37.6543L6.94444 35.6279Z" fill="#FF0000"/>
<path d="M68.255 37.25H63.25V12.75H68.255V22.41H73.75V12.75H78.755V37.25H73.75V27.38H68.255V37.25ZM87.1547 12.75V25C87.1547 31.405 88.1347 32.35 90.1997 32.35H90.7597C92.5797 32.35 93.7697 31.405 93.7697 25V12.75H98.6697V25C98.6697 35.57 95.1697 37.25 90.8997 37.25H89.8497C85.6147 37.25 82.2197 35.57 82.2197 25V12.75H87.1547ZM107.081 37.25H102.181V12.75H107.781L113.346 27.065V12.75H118.246V37.25H112.366L107.046 23.39L107.081 37.25ZM131.461 37.25H126.561V17.65H121.731V12.75H136.291V17.65H131.461V37.25ZM145.79 12.75C150.305 12.75 152.86 14.815 152.86 19.54H148.135C148.135 18.21 147.225 17.405 145.51 17.405H144.74C142.955 17.405 142.115 18.665 142.115 19.995C142.115 21.43 142.85 22.585 145.23 22.585H146.245C150.445 22.585 152.825 25.77 152.825 29.9C152.825 34.205 150.095 37.25 145.37 37.25H144.495C139.91 37.25 137.25 35.5 137.285 30.495H141.8C141.765 31.895 142.92 32.595 144.565 32.595H145.3C146.98 32.595 147.925 31.545 147.925 30.075C147.925 28.465 147.155 27.45 145.125 27.45H144.25C140.12 27.45 137.215 24.44 137.215 20.1C137.215 15.83 139.91 12.75 144.565 12.75H145.79Z" fill="#FF0000"/>
<path d="M173.89 28.395H170.075V37.25H165.14V12.75H173.89C178.51 12.75 180.68 16.285 180.68 20.52C180.68 24.825 178.475 28.395 173.89 28.395ZM172.455 17.65H170.075V23.495H172.455C174.975 23.495 175.71 22.165 175.71 20.555C175.71 18.98 174.975 17.65 172.455 17.65ZM189.078 37.25H184.178V12.75H189.078V37.25ZM201.336 28.395H197.521V37.25H192.586V12.75H201.336C205.956 12.75 208.126 16.285 208.126 20.52C208.126 24.825 205.921 28.395 201.336 28.395ZM199.901 17.65H197.521V23.495H199.901C202.421 23.495 203.156 22.165 203.156 20.555C203.156 18.98 202.421 17.65 199.901 17.65Z" fill="#00DD5E"/>
</svg>
