<svg width="19" height="18" viewBox="0 0 19 18" fill="none" xmlns="http://www.w3.org/2000/svg">
<path fill-rule="evenodd" clip-rule="evenodd" d="M8.23178 0.0678828C6.20509 0.302221 4.34234 1.14637 2.86555 2.49965C1.42887 3.81621 0.519546 5.39452 0.120383 7.2643C0.0159916 7.75339 0 7.97712 0 8.94802C0 10.2105 0.0784379 10.7247 0.423753 11.7265C2.20108 16.8824 8.39505 19.3671 13.5274 16.983C14.566 16.5006 15.3562 15.9465 16.2102 15.102C17.4408 13.8852 18.2581 12.3902 18.6497 10.64C18.7508 10.1881 18.7669 9.96266 18.7686 8.9729C18.7703 7.97125 18.7555 7.75791 18.6502 7.2643C18.4735 6.43698 18.2142 5.72769 17.8008 4.94202C17.3414 4.06876 16.8856 3.45995 16.1493 2.73573C14.072 0.692819 11.199 -0.27524 8.23178 0.0678828ZM6.65883 5.12107C6.8317 5.16561 7.0873 5.38168 8.11381 6.35104L9.35907 7.52701L10.6043 6.35104C11.8713 5.15461 11.9905 5.06777 12.3678 5.06673C12.8896 5.06523 13.45 5.59711 13.4484 6.09236C13.4473 6.45046 13.3558 6.56358 12.0953 7.76612L10.8563 8.94802L12.0953 10.1299C13.3558 11.3325 13.4473 11.4456 13.4484 11.8037C13.45 12.2989 12.8896 12.8308 12.3678 12.8293C11.9905 12.8283 11.8713 12.7414 10.6043 11.545L9.35907 10.369L8.11381 11.5453C7.0226 12.5761 6.83967 12.7288 6.63482 12.7803C5.83854 12.9803 5.11084 12.2886 5.32177 11.5322C5.37546 11.3397 5.53983 11.1625 6.62255 10.1299L7.86188 8.94802L6.62286 7.76612C5.3623 6.56358 5.2708 6.45046 5.2697 6.09236C5.26897 5.87181 5.41164 5.57631 5.60967 5.38805C5.91551 5.09733 6.24331 5.01393 6.65883 5.12107Z" fill="#D4D4D4"/>
</svg>
