<svg width="223" height="202" viewBox="0 0 223 202" fill="none" xmlns="http://www.w3.org/2000/svg">
<g style="mix-blend-mode:overlay" filter="url(#filter0_i_1989_111)">
<path d="M159.713 106.39C156.66 131.138 132.101 148.475 104.861 145.112L101.544 172.009C145.139 177.39 184.436 149.649 189.321 110.043L159.715 106.389L159.713 106.39Z" fill="#727272"/>
<path d="M62.3699 95.5303C65.4223 70.7828 89.9812 53.4458 117.222 56.8084L120.539 29.9119C76.944 24.5304 37.6467 52.2719 32.7617 91.8772L62.3676 95.5318L62.3699 95.5303Z" fill="#727272"/>
<path d="M124.734 116.881C117.17 108.086 103.354 106.386 93.8761 113.08C103.356 106.384 104.907 93.8285 97.3445 85.0356C104.909 93.8306 118.724 95.5305 128.203 88.8366C118.722 95.5321 117.171 108.088 124.734 116.881ZM157.403 68.6031C158.787 68.0253 166.859 64.7954 175.597 68.2866C180.436 70.2197 183.3 73.3412 184.607 74.9948C182.499 70.2739 179.016 63.8742 173.277 57.2024C167.539 50.5305 161.541 45.9064 157.004 42.9011C158.477 44.5011 161.063 47.7754 161.982 52.4572C163.661 61.0273 158.404 67.4337 157.405 68.6051L157.403 68.6031ZM46.6918 133.878C41.9037 131.929 39.0337 128.855 37.6812 127.17C39.791 131.893 43.2729 138.29 49.0131 144.964C54.7533 151.638 60.7493 156.26 65.2865 159.265C63.8384 157.711 61.1975 154.432 60.3083 149.709C58.7061 141.178 64.1338 134.874 65.09 133.8C63.5925 134.391 55.4507 137.448 46.6918 133.878Z" fill="#727272"/>
</g>
<defs>
<filter id="filter0_i_1989_111" x="32.7617" y="22.2442" width="168.559" height="150.432" filterUnits="userSpaceOnUse" color-interpolation-filters="sRGB">
<feFlood flood-opacity="0" result="BackgroundImageFix"/>
<feBlend mode="normal" in="SourceGraphic" in2="BackgroundImageFix" result="shape"/>
<feColorMatrix in="SourceAlpha" type="matrix" values="0 0 0 0 0 0 0 0 0 0 0 0 0 0 0 0 0 0 127 0" result="hardAlpha"/>
<feOffset dx="12" dy="-7"/>
<feGaussianBlur stdDeviation="13.1"/>
<feComposite in2="hardAlpha" operator="arithmetic" k2="-1" k3="1"/>
<feColorMatrix type="matrix" values="0 0 0 0 0 0 0 0 0 0 0 0 0 0 0 0 0 0 0.3 0"/>
<feBlend mode="normal" in2="shape" result="effect1_innerShadow_1989_111"/>
</filter>
</defs>
</svg>
