<svg width="100" height="100" viewBox="0 0 100 100" fill="none" xmlns="http://www.w3.org/2000/svg">
<g filter="url(#filter0_d_1990_3841)">
<rect x="15.6" y="13.6001" width="58" height="58" rx="29" fill="url(#paint0_radial_1990_3841)"/>
<path d="M52.5578 50.5576C48.1631 54.9523 41.0375 54.9523 36.6429 50.5576L31.8666 55.3339C38.8997 62.367 50.3016 62.367 57.3347 55.3339L52.5584 50.5576H52.5578Z" fill="white" fill-opacity="0.5"/>
<path d="M36.6429 34.6427C41.0375 30.248 48.1631 30.248 52.5578 34.6427L57.3341 29.8664C50.3009 22.8333 38.8991 22.8333 31.8659 29.8664L36.6422 34.6427H36.6429Z" fill="white" fill-opacity="0.5"/>
<path d="M44.6003 47.5724C44.6003 44.8259 42.3739 42.6001 39.628 42.6001C42.3745 42.6001 44.6003 40.3737 44.6003 37.6278C44.6003 40.3743 46.8267 42.6001 49.5726 42.6001C46.8261 42.6001 44.6003 44.8266 44.6003 47.5724ZM57.9718 42.6758C58.3108 42.7534 60.2662 43.2334 61.2998 45.1105C61.8723 46.15 61.9046 47.1494 61.8839 47.65C62.2358 46.4437 62.6 44.7224 62.6 42.6389C62.6 40.5555 62.2358 38.8342 61.8839 37.6278C61.9014 38.1408 61.86 39.1318 61.2998 40.1673C60.2739 42.0626 58.3334 42.5859 57.9718 42.6764V42.6758ZM27.9001 40.1667C27.3393 39.1311 27.2986 38.1401 27.316 37.6272C26.9641 38.8342 26.6 40.5548 26.6 42.6389C26.6 44.7231 26.9641 46.4437 27.316 47.65C27.296 47.1494 27.3283 46.15 27.9001 45.1105C28.9338 43.2334 30.8892 42.7534 31.2281 42.6758C30.8665 42.5852 28.9254 42.0619 27.9001 40.1667Z" fill="white" fill-opacity="0.5"/>
</g>
<defs>
<filter id="filter0_d_1990_3841" x="5.72205e-06" y="9.72748e-05" width="99.2" height="99.2" filterUnits="userSpaceOnUse" color-interpolation-filters="sRGB">
<feFlood flood-opacity="0" result="BackgroundImageFix"/>
<feColorMatrix in="SourceAlpha" type="matrix" values="0 0 0 0 0 0 0 0 0 0 0 0 0 0 0 0 0 0 127 0" result="hardAlpha"/>
<feOffset dx="5" dy="7"/>
<feGaussianBlur stdDeviation="10.3"/>
<feComposite in2="hardAlpha" operator="out"/>
<feColorMatrix type="matrix" values="0 0 0 0 0 0 0 0 0 0 0 0 0 0 0 0 0 0 0.4 0"/>
<feBlend mode="normal" in2="BackgroundImageFix" result="effect1_dropShadow_1990_3841"/>
<feBlend mode="normal" in="SourceGraphic" in2="effect1_dropShadow_1990_3841" result="shape"/>
</filter>
<radialGradient id="paint0_radial_1990_3841" cx="0" cy="0" r="1" gradientUnits="userSpaceOnUse" gradientTransform="translate(38.22 36.2201) rotate(56.6115) scale(30.5644 20.1943)">
<stop stop-color="#C11414"/>
<stop offset="1" stop-color="#800303"/>
</radialGradient>
</defs>
</svg>
