<svg width="20" height="18" viewBox="0 0 20 18" fill="none" xmlns="http://www.w3.org/2000/svg">
<path fill-rule="evenodd" clip-rule="evenodd" d="M7.89571 0.136977C4.09468 0.912241 1.2701 3.32848 0.256175 6.67197C-0.0843637 7.79509 -0.0856223 10.109 0.253798 11.2391C1.18661 14.3452 3.9098 16.8153 7.3363 17.6634C8.57637 17.9704 11.1296 17.9707 12.371 17.6638C15.8038 16.8155 18.5158 14.3552 19.4531 11.2391C19.7921 10.1121 19.7918 7.79712 19.4525 6.67197C18.5193 3.57676 15.8064 1.09987 12.4409 0.26993C11.2415 -0.0259153 9.01341 -0.0911231 7.89571 0.136977ZM14.8324 5.58095C15.4499 6.14117 15.4713 6.68796 14.9028 7.38241C14.4293 7.96078 9.66609 12.2486 9.15815 12.5537C8.70979 12.8231 8.04787 12.8184 7.61223 12.5426C7.18778 12.274 5.4732 10.7298 4.85394 10.0586C4.22684 9.37873 4.23328 8.82713 4.87492 8.24508C5.26468 7.89151 5.45628 7.81374 5.93737 7.81374C6.46978 7.81374 6.61159 7.89011 7.46119 8.63417L8.39792 9.4546L10.4894 7.54264C11.6397 6.49106 12.7695 5.52259 13.0003 5.39065C13.6621 5.01196 14.2753 5.07565 14.8324 5.58095Z" fill="#D4D4D4"/>
</svg>
