<svg width="1440" height="265" viewBox="0 0 1440 265" fill="none" xmlns="http://www.w3.org/2000/svg">
<g clip-path="url(#clip0_1929_31)">
<path d="M11.0419 73.5374H9.40796V143.431H11.0419V73.5374Z" fill="#EA1111" fill-opacity="0.5"/>
<path d="M36.4063 143.175H34.7724V213.069H36.4063V143.175Z" fill="#EA1111" fill-opacity="0.5"/>
<path d="M61.7836 87.741H60.1497V222.044H61.7836V87.741Z" fill="#2DE813" fill-opacity="0.5"/>
<path d="M87.148 88.4441H85.5141V212.033H87.148V88.4441Z" fill="#2DE813" fill-opacity="0.5"/>
<path d="M112.512 50.1157H110.879V94.9642H112.512V50.1157Z" fill="#2DE813" fill-opacity="0.5"/>
<path d="M137.877 47.5078H136.243V92.3563H137.877V47.5078Z" fill="#2DE813" fill-opacity="0.5"/>
<path d="M163.241 22.4497H161.607V119.639H163.241V22.4497Z" fill="#2DE813" fill-opacity="0.5"/>
<path d="M188.619 6.40503H186.985V140.708H188.619V6.40503Z" fill="#EA1111" fill-opacity="0.5"/>
<path d="M213.983 41.7419H212.349V139.097H213.983V41.7419Z" fill="#EA1111" fill-opacity="0.5"/>
<path d="M239.348 62.2356H237.714V185.825H239.348V62.2356Z" fill="#EA1111" fill-opacity="0.5"/>
<path d="M264.712 136.041H263.078V252.829H264.712V136.041Z" fill="#EA1111" fill-opacity="0.5"/>
<path d="M290.077 122.247H288.443V256.332H290.077V122.247Z" fill="#EA1111" fill-opacity="0.5"/>
<path d="M315.441 155.563H313.807V252.752H315.441V155.563Z" fill="#EA1111" fill-opacity="0.5"/>
<path d="M340.818 114.691H339.184V224.549H340.818V114.691Z" fill="#2DE813" fill-opacity="0.5"/>
<path d="M366.183 130.429H364.549V251.755H366.183V130.429Z" fill="#2DE813" fill-opacity="0.5"/>
<path d="M391.547 92.3179H389.913V164.794H391.547V92.3179Z" fill="#2DE813" fill-opacity="0.5"/>
<path d="M416.912 85.9512H415.278V137.281H416.912V85.9512Z" fill="#EA1111" fill-opacity="0.5"/>
<path d="M442.276 49.6045H440.642V110.779H442.276V49.6045Z" fill="#2DE813" fill-opacity="0.5"/>
<path d="M467.653 12.1838H466.019V121.748H467.653V12.1838Z" fill="#2DE813" fill-opacity="0.5"/>
<path d="M493.018 16.1086H491.384V111.559H493.018V16.1086Z" fill="#EA1111" fill-opacity="0.5"/>
<path d="M518.382 46.894H516.748V142.204H518.382V46.894Z" fill="#EA1111" fill-opacity="0.5"/>
<path d="M543.747 97.6235H542.113V137.269H543.747V97.6235Z" fill="#2DE813" fill-opacity="0.5"/>
<path d="M569.111 64.5242H567.477V123.308H569.111V64.5242Z" fill="#2DE813" fill-opacity="0.5"/>
<path d="M594.476 28.6121H592.842V121.096H594.476V28.6121Z" fill="#2DE813" fill-opacity="0.5"/>
<path d="M619.853 65.3936H618.219V175.252H619.853V65.3936Z" fill="#EA1111" fill-opacity="0.5"/>
<path d="M645.217 66.7869H643.583V147.918H645.217V66.7869Z" fill="#EA1111" fill-opacity="0.5"/>
<path d="M670.582 102.2H668.948V193.214H670.582V102.2Z" fill="#EA1111" fill-opacity="0.5"/>
<path d="M695.946 111.75H694.312V172.414H695.946V111.75Z" fill="#2DE813" fill-opacity="0.5"/>
<path d="M721.311 140.797H719.677V177.604H721.311V140.797Z" fill="#2DE813" fill-opacity="0.5"/>
<path d="M746.675 113.272H745.041V180.494H746.675V113.272Z" fill="#EA1111" fill-opacity="0.5"/>
<path d="M772.052 112.658H770.418V187.116H772.052V112.658Z" fill="#EA1111" fill-opacity="0.5"/>
<path d="M797.417 167.837H795.783V235.058H797.417V167.837Z" fill="#EA1111" fill-opacity="0.5"/>
<path d="M822.781 179.074H821.147V265H822.781V179.074Z" fill="#2DE813" fill-opacity="0.5"/>
<path d="M848.146 170.7H846.512V232.195H848.146V170.7Z" fill="#2DE813" fill-opacity="0.5"/>
<path d="M873.51 132.564H871.876V194.058H873.51V132.564Z" fill="#2DE813" fill-opacity="0.5"/>
<path d="M898.887 122.86H897.253V164.538H898.887V122.86Z" fill="#2DE813" fill-opacity="0.5"/>
<path d="M924.252 116.609H922.618V170.394H924.252V116.609Z" fill="#2DE813" fill-opacity="0.5"/>
<path d="M949.616 79.8145H947.982V153.39H949.616V79.8145Z" fill="#EA1111" fill-opacity="0.5"/>
<path d="M974.981 110.089H973.347V183.664H974.981V110.089Z" fill="#2DE813" fill-opacity="0.5"/>
<path d="M1000.35 101.612H998.711V155.282H1000.35V101.612Z" fill="#EA1111" fill-opacity="0.5"/>
<path d="M1025.71 94.5552H1024.08V148.225H1025.71V94.5552Z" fill="#2DE813" fill-opacity="0.5"/>
<path d="M1051.09 117.58H1049.45V177.591H1051.09V117.58Z" fill="#2DE813" fill-opacity="0.5"/>
<path d="M1076.45 82.6526H1074.82V142.664H1076.45V82.6526Z" fill="#2DE813" fill-opacity="0.5"/>
<path d="M1101.82 100.385H1100.18V137.78H1101.82V100.385Z" fill="#EA1111" fill-opacity="0.5"/>
<path d="M1127.18 80.1853H1125.55V160.46H1127.18V80.1853Z" fill="#EA1111" fill-opacity="0.5"/>
<path d="M1152.54 103.645H1150.91V174.689H1152.54V103.645Z" fill="#EA1111" fill-opacity="0.5"/>
<path d="M1177.92 127.795H1176.29V198.839H1177.92V127.795Z" fill="#EA1111" fill-opacity="0.5"/>
<path d="M1203.29 142.076H1201.65V213.12H1203.29V142.076Z" fill="#EA1111" fill-opacity="0.5"/>
<path d="M1228.65 133.983H1227.02V216.303H1228.65V133.983Z" fill="#2DE813" fill-opacity="0.5"/>
<path d="M1254.02 82.4993H1252.38V164.104H1254.02V82.4993Z" fill="#2DE813" fill-opacity="0.5"/>
<path d="M1279.38 112.824H1277.75V194.429H1279.38V112.824Z" fill="#EA1111" fill-opacity="0.5"/>
<path d="M1304.74 104.566H1303.11V187.257H1304.74V104.566Z" fill="#EA1111" fill-opacity="0.5"/>
<path d="M1330.12 126.287H1328.49V208.607H1330.12V126.287Z" fill="#2DE813" fill-opacity="0.5"/>
<path d="M1355.49 32.7542H1353.85V165.714H1355.49V32.7542Z" fill="#2DE813" fill-opacity="0.5"/>
<path d="M1380.85 0H1379.22V82.691H1380.85V0Z" fill="#2DE813" fill-opacity="0.5"/>
<path d="M1406.21 41.7673H1404.58V110.779H1406.21V41.7673Z" fill="#EA1111" fill-opacity="0.5"/>
<path d="M1431.58 65.8792H1429.95V134.891H1431.58V65.8792Z" fill="#EA1111" fill-opacity="0.5"/>
<path d="M20.4626 131.976H0V167.747H20.4626V131.976Z" fill="#EA1111" fill-opacity="0.5"/>
<path d="M45.8271 167.747H25.3644V196.398H45.8271V167.747Z" fill="#EA1111" fill-opacity="0.5"/>
<path d="M71.1916 153.301H50.7289V196.385H71.1916V153.301Z" fill="#2DE813" fill-opacity="0.5"/>
<path d="M96.5688 135.031H76.1061V153.313H96.5688V135.031Z" fill="#2DE813" fill-opacity="0.5"/>
<path d="M121.933 75.4038H101.471V135.031H121.933V75.4038Z" fill="#2DE813" fill-opacity="0.5"/>
<path d="M147.298 46.2419H126.835V75.4037H147.298V46.2419Z" fill="#2DE813" fill-opacity="0.5"/>
<path d="M172.662 32.7542H152.2V46.2419H172.662V32.7542Z" fill="#2DE813" fill-opacity="0.5"/>
<path d="M198.027 32.7542H177.564V88.8915H198.027V32.7542Z" fill="#EA1111" fill-opacity="0.5"/>
<path d="M223.391 88.8916H202.928V105.218H223.391V88.8916Z" fill="#EA1111" fill-opacity="0.5"/>
<path d="M248.768 105.218H228.306V156.791H248.768V105.218Z" fill="#EA1111" fill-opacity="0.5"/>
<path d="M274.133 156.791H253.67V178.116H274.133V156.791Z" fill="#EA1111" fill-opacity="0.5"/>
<path d="M299.497 178.116H279.035V210.755H299.497V178.116Z" fill="#EA1111" fill-opacity="0.5"/>
<path d="M324.862 210.755H304.399V238.178H324.862V210.755Z" fill="#EA1111" fill-opacity="0.5"/>
<path d="M350.226 194.442H329.763V238.178H350.226V194.442Z" fill="#2DE813" fill-opacity="0.5"/>
<path d="M375.603 164.628H355.141V194.442H375.603V164.628Z" fill="#2DE813" fill-opacity="0.5"/>
<path d="M400.968 108.478H380.505V164.615H400.968V108.478Z" fill="#2DE813" fill-opacity="0.5"/>
<path d="M426.332 108.478H405.87V118.053H426.332V108.478Z" fill="#EA1111" fill-opacity="0.5"/>
<path d="M451.697 89.3262H431.234V118.053H451.697V89.3262Z" fill="#2DE813" fill-opacity="0.5"/>
<path d="M477.061 65.3936H456.599V89.3264H477.061V65.3936Z" fill="#2DE813" fill-opacity="0.5"/>
<path d="M502.426 65.3936H481.963V103.696H502.426V65.3936Z" fill="#EA1111" fill-opacity="0.5"/>
<path d="M527.803 103.696H507.34V121.109H527.803V103.696Z" fill="#EA1111" fill-opacity="0.5"/>
<path d="M553.167 89.3262H532.705V121.096H553.167V89.3262Z" fill="#2DE813" fill-opacity="0.5"/>
<path d="M578.532 71.0442H558.069V89.3262H578.532V71.0442Z" fill="#2DE813" fill-opacity="0.5"/>
<path d="M603.896 22.7439H583.434V71.057H603.896V22.7439Z" fill="#2DE813" fill-opacity="0.5"/>
<path d="M629.261 22.7439H608.798V101.74H629.261V22.7439Z" fill="#EA1111" fill-opacity="0.5"/>
<path d="M654.625 101.727H634.163V133.932H654.625V101.727Z" fill="#EA1111" fill-opacity="0.5"/>
<path d="M680.002 133.945H659.54V167.453H680.002V133.945Z" fill="#EA1111" fill-opacity="0.5"/>
<path d="M705.367 152.649H684.904V167.44H705.367V152.649Z" fill="#2DE813" fill-opacity="0.5"/>
<path d="M730.731 139.161H710.269V152.649H730.731V139.161Z" fill="#2DE813" fill-opacity="0.5"/>
<path d="M756.096 139.161H735.633V174.843H756.096V139.161Z" fill="#EA1111" fill-opacity="0.5"/>
<path d="M781.46 174.855H760.998V194.442H781.46V174.855Z" fill="#EA1111" fill-opacity="0.5"/>
<path d="M806.837 194.442H786.375V243.624H806.837V194.442Z" fill="#EA1111" fill-opacity="0.5"/>
<path d="M832.202 216.303H811.739V243.611H832.202V216.303Z" fill="#2DE813" fill-opacity="0.5"/>
<path d="M857.566 186.605H837.104V216.303H857.566V186.605Z" fill="#2DE813" fill-opacity="0.5"/>
<path d="M882.931 169.627H862.468V186.605H882.931V169.627Z" fill="#2DE813" fill-opacity="0.5"/>
<path d="M908.295 157.008H887.833V169.627H908.295V157.008Z" fill="#2DE813" fill-opacity="0.5"/>
<path d="M933.66 127.412H913.197V157.008H933.66V127.412Z" fill="#2DE813" fill-opacity="0.5"/>
<path d="M959.037 127.412H938.574V139.161H959.037V127.412Z" fill="#EA1111" fill-opacity="0.5"/>
<path d="M984.401 117.836H963.939V139.161H984.401V117.836Z" fill="#2DE813" fill-opacity="0.5"/>
<path d="M1009.77 117.836H989.303V152.649H1009.77V117.836Z" fill="#EA1111" fill-opacity="0.5"/>
<path d="M1035.13 136.553H1014.67V152.661H1035.13V136.553Z" fill="#2DE813" fill-opacity="0.5"/>
<path d="M1060.49 105.218H1040.03V152.661H1060.49V105.218Z" fill="#2DE813" fill-opacity="0.5"/>
<path d="M1085.87 87.1528H1065.41V105.218H1085.87V87.1528Z" fill="#2DE813" fill-opacity="0.5"/>
<path d="M1111.24 87.1528H1090.77V119.907H1111.24V87.1528Z" fill="#EA1111" fill-opacity="0.5"/>
<path d="M1136.6 119.907H1116.14V136.553H1136.6V119.907Z" fill="#EA1111" fill-opacity="0.5"/>
<path d="M1161.97 136.553H1141.5V171.148H1161.97V136.553Z" fill="#EA1111" fill-opacity="0.5"/>
<path d="M1187.33 171.148H1166.87V187.257H1187.33V171.148Z" fill="#EA1111" fill-opacity="0.5"/>
<path d="M1212.69 187.257H1192.23V222.939H1212.69V187.257Z" fill="#EA1111" fill-opacity="0.5"/>
<path d="M1238.07 153.85H1217.61V222.939H1238.07V153.85Z" fill="#2DE813" fill-opacity="0.5"/>
<path d="M1263.44 128.933H1242.97V153.85H1263.44V128.933Z" fill="#2DE813" fill-opacity="0.5"/>
<path d="M1288.8 128.933H1268.34V160.268H1288.8V128.933Z" fill="#EA1111" fill-opacity="0.5"/>
<path d="M1314.16 160.268H1293.7V171.148H1314.16V160.268Z" fill="#EA1111" fill-opacity="0.5"/>
<path d="M1339.53 147.65H1319.07V171.148H1339.53V147.65Z" fill="#2DE813" fill-opacity="0.5"/>
<path d="M1364.91 53.427H1344.44V147.65H1364.91V53.427Z" fill="#2DE813" fill-opacity="0.5"/>
<path d="M1390.27 25.3521H1369.81V53.4271H1390.27V25.3521Z" fill="#2DE813" fill-opacity="0.5"/>
<path d="M1415.64 25.3521H1395.17V76.2733H1415.64V25.3521Z" fill="#EA1111" fill-opacity="0.5"/>
<path d="M1441 76.2732H1420.54V103.53H1441V76.2732Z" fill="#EA1111" fill-opacity="0.5"/>
</g>
<defs>
<clipPath id="clip0_1929_31">
<rect width="1441" height="265" fill="white"/>
</clipPath>
</defs>
</svg>
