<svg width="331" height="244" viewBox="0 0 331 244" fill="none" xmlns="http://www.w3.org/2000/svg">
<g clip-path="url(#clip0_22_4961)">
<path d="M300 79L165.5 213L31 79" stroke="url(#paint0_linear_22_4961)" stroke-width="4"/>
<path d="M315 120L165.5 269L16 120" stroke="url(#paint1_linear_22_4961)" stroke-width="4"/>
<path d="M315 176L165.5 325L16 176" stroke="url(#paint2_linear_22_4961)" stroke-width="4"/>
<g filter="url(#filter0_d_22_4961)">
<rect x="117" y="40" width="98" height="98" rx="49" fill="url(#paint3_linear_22_4961)" shape-rendering="crispEdges"/>
<path d="M166.326 105.785H166.327C167.961 105.805 168.444 105.849 169.175 105.997C173.35 106.841 176.955 109.143 179.402 112.473L174.115 112.489C169.716 112.503 162.485 112.503 158.05 112.489L152.709 112.473C154.729 109.731 157.466 107.717 160.722 106.591C161.426 106.347 162.855 106.003 163.779 105.847L164.141 105.792C164.099 105.797 164.123 105.794 164.286 105.789C164.418 105.785 164.595 105.782 164.807 105.78C165.229 105.777 165.77 105.779 166.326 105.785ZM166.051 72.5732C166.174 72.6331 166.264 72.6599 166.274 72.6631C166.343 72.6837 166.399 72.6943 166.425 72.6992C166.479 72.7096 166.523 72.7149 166.539 72.7168C166.6 72.7237 166.658 72.7267 166.675 72.7275C166.732 72.7305 166.811 72.7336 166.9 72.7363C167.084 72.742 167.355 72.7485 167.69 72.7559C168.364 72.7706 169.313 72.7888 170.376 72.8057C174.197 72.8661 174.119 72.8803 174.855 73.0742C175.374 73.2106 175.984 73.4006 176.193 73.4814C179.067 74.5952 181.453 77.0025 182.529 79.8682L182.703 80.333L183.068 81.3057H184.616C185.025 81.3058 185.941 81.5312 186.61 81.8682C189.304 83.2248 190.319 86.6673 188.774 89.3037C188.626 89.5569 188.328 89.9316 187.944 90.3154C187.656 90.6035 187.373 90.8439 187.143 91.0088L186.932 91.1475C186.374 91.475 185.39 91.7976 184.666 91.876L183.996 91.9482L183.078 92.0479L182.753 92.9121L182.533 93.5C181.16 97.1562 177.891 99.8384 174.068 100.458C174.065 100.459 174.044 100.461 174.001 100.465C173.954 100.469 173.892 100.475 173.813 100.48C173.657 100.491 173.454 100.502 173.207 100.512C172.714 100.532 172.071 100.549 171.324 100.562C169.833 100.59 167.95 100.604 166.064 100.604C164.179 100.605 162.297 100.592 160.806 100.565C160.06 100.552 159.417 100.535 158.925 100.516C158.678 100.506 158.475 100.496 158.319 100.485C158.242 100.48 158.18 100.475 158.134 100.471C158.089 100.466 158.069 100.463 158.066 100.463C154.243 99.8426 150.935 97.1366 149.58 93.5264L149.35 92.9131L149.021 92.0391L148.094 91.9473L147.374 91.876C146.719 91.811 145.892 91.5621 145.308 91.2734L145.073 91.1475C144.819 90.9984 144.444 90.6992 144.061 90.3154C143.677 89.9316 143.379 89.5568 143.23 89.3037C142.048 87.2854 142.311 84.7412 143.95 82.9248L143.951 82.9258C144.318 82.519 144.909 82.0988 145.6 81.7812C146.295 81.4617 146.961 81.3057 147.438 81.3057H149.034L149.399 80.333L149.574 79.8682C149.836 79.1705 150.459 77.9994 150.916 77.3516C152.117 75.6496 154.239 74.0532 156.118 73.4141C156.998 73.1147 157.347 73.0068 157.95 72.9385C158.635 72.8608 159.616 72.8394 161.727 72.8057C162.79 72.7886 163.74 72.7707 164.413 72.7559C164.749 72.7484 165.02 72.7421 165.203 72.7363C165.292 72.7336 165.37 72.7305 165.428 72.7275C165.444 72.7267 165.503 72.7238 165.563 72.7168C165.579 72.715 165.624 72.7097 165.679 72.6992C165.704 72.6943 165.76 72.6827 165.829 72.6621C165.84 72.6588 165.929 72.6323 166.051 72.5732ZM159.989 79.8574C158.932 79.5747 157.545 79.6292 156.506 79.9834C152.185 81.4564 150.88 86.8585 154.12 90.0957C156.585 92.5581 160.485 92.5307 162.867 89.9834C164.336 88.4133 164.911 86.3335 164.373 84.2686C163.817 82.1324 162.122 80.428 159.989 79.8574ZM173.604 79.6895C173.115 79.6801 172.55 79.7096 172.079 79.8203C170.637 80.1597 169.163 81.2555 168.354 82.5156C167.103 84.4668 167.141 87.0638 168.356 89.04L168.478 89.2295C169.392 90.5984 170.737 91.4522 172.378 91.7949C174.451 92.2277 176.748 91.4444 178.141 89.8457C179.278 88.5396 179.804 86.6842 179.595 84.9443C179.312 82.5995 177.418 80.4699 175.131 79.874C174.66 79.7514 174.097 79.6989 173.604 79.6895ZM165.11 72.6953C165.147 72.7019 165.182 72.7096 165.218 72.7139C165.213 72.7134 165.172 72.7074 165.11 72.6953ZM165.692 65.5127C165.826 65.501 165.987 65.4965 166.143 65.5029C166.955 65.5369 167.636 65.9793 168.01 66.7656V66.7666C168.134 67.0279 168.141 67.0725 168.145 67.0918C168.154 67.1396 168.167 67.2399 168.167 67.6396C168.167 68.0569 168.155 68.1426 168.147 68.1777C168.146 68.1858 168.141 68.2236 168.001 68.5088C167.747 69.0253 167.243 69.4654 166.89 69.5977C166.765 69.6443 166.636 69.688 166.535 69.7197C166.484 69.7357 166.449 69.7457 166.429 69.751C166.425 69.7519 166.423 69.7527 166.422 69.7529C166.375 69.762 166.317 69.7737 166.256 69.793C166.214 69.8061 166.14 69.8323 166.052 69.875C165.963 69.8322 165.889 69.8071 165.847 69.7939C165.784 69.7742 165.725 69.761 165.678 69.752C165.677 69.7517 165.675 69.7513 165.674 69.751C165.654 69.7457 165.618 69.7356 165.567 69.7197L165.213 69.5977L165.074 69.5332C164.738 69.3534 164.324 68.9607 164.102 68.5088C163.961 68.2226 163.957 68.1857 163.956 68.1787C163.949 68.1446 163.937 68.0601 163.938 67.6416C163.938 67.2648 163.951 67.1461 163.962 67.085C163.967 67.0568 163.975 67.0109 164.071 66.8027C164.34 66.2245 164.838 65.7682 165.525 65.5342C165.53 65.5333 165.536 65.5325 165.543 65.5312C165.576 65.5255 165.627 65.5184 165.692 65.5127Z" stroke="white" stroke-width="3"/>
</g>
</g>
<defs>
<filter id="filter0_d_22_4961" x="-3" y="-44" width="338" height="338" filterUnits="userSpaceOnUse" color-interpolation-filters="sRGB">
<feFlood flood-opacity="0" result="BackgroundImageFix"/>
<feColorMatrix in="SourceAlpha" type="matrix" values="0 0 0 0 0 0 0 0 0 0 0 0 0 0 0 0 0 0 127 0" result="hardAlpha"/>
<feOffset dy="36"/>
<feGaussianBlur stdDeviation="60"/>
<feComposite in2="hardAlpha" operator="out"/>
<feColorMatrix type="matrix" values="0 0 0 0 0 0 0 0 0 0 0 0 0 0 0 0 0 0 0.7 0"/>
<feBlend mode="normal" in2="BackgroundImageFix" result="effect1_dropShadow_22_4961"/>
<feBlend mode="normal" in="SourceGraphic" in2="effect1_dropShadow_22_4961" result="shape"/>
</filter>
<linearGradient id="paint0_linear_22_4961" x1="165.5" y1="79" x2="165.5" y2="213" gradientUnits="userSpaceOnUse">
<stop offset="0.245192" stop-color="#FF4E4E"/>
<stop offset="0.908654" stop-color="#992F2F" stop-opacity="0"/>
</linearGradient>
<linearGradient id="paint1_linear_22_4961" x1="165.5" y1="120" x2="165.5" y2="269" gradientUnits="userSpaceOnUse">
<stop offset="0.245192" stop-color="#FF4E4E"/>
<stop offset="0.908654" stop-color="#992F2F" stop-opacity="0"/>
</linearGradient>
<linearGradient id="paint2_linear_22_4961" x1="165.5" y1="176" x2="165.5" y2="325" gradientUnits="userSpaceOnUse">
<stop offset="0.245192" stop-color="#FF4E4E"/>
<stop offset="0.908654" stop-color="#992F2F" stop-opacity="0"/>
</linearGradient>
<linearGradient id="paint3_linear_22_4961" x1="166" y1="40" x2="166" y2="138" gradientUnits="userSpaceOnUse">
<stop stop-color="#DE2A2A"/>
<stop offset="1" stop-color="#992F2F"/>
</linearGradient>
<clipPath id="clip0_22_4961">
<rect width="331" height="244" fill="white"/>
</clipPath>
</defs>
</svg>
