<svg width="331" height="244" viewBox="0 0 331 244" fill="none" xmlns="http://www.w3.org/2000/svg">
<g clip-path="url(#clip0_22_4976)">
<circle cx="166" cy="311" r="99" stroke="url(#paint0_linear_22_4976)" stroke-width="4"/>
<circle cx="166" cy="302" r="146" stroke="url(#paint1_linear_22_4976)" stroke-width="4"/>
<circle cx="166" cy="287" r="187" stroke="url(#paint2_linear_22_4976)" stroke-width="4"/>
<g filter="url(#filter0_d_22_4976)">
<rect x="111.821" y="40" width="108.359" height="106.302" rx="53.1508" fill="url(#paint3_linear_22_4976)" shape-rendering="crispEdges"/>
<mask id="path-5-inside-1_22_4976" fill="white">
<path d="M190.538 77.9758C192.331 83.0086 191.054 88.8456 186.848 92.656C182.83 96.2956 177.235 97.0931 172.531 95.1707L153.486 112.423C150.964 114.707 147.068 114.514 144.783 111.992C142.499 109.47 142.691 105.574 145.213 103.29L164.469 85.8462C163.3 81.1315 164.695 75.9425 168.547 72.453C172.646 68.7397 178.387 67.9844 183.149 70.0582L176.117 76.4283L176.95 82.9801L183.387 84.454L190.538 77.9758ZM150.336 106.962C150.046 106.643 149.551 106.618 149.231 106.908C148.911 107.198 148.886 107.693 149.176 108.013C149.466 108.334 149.962 108.358 150.282 108.068C150.602 107.778 150.626 107.283 150.336 106.962Z"/>
</mask>
<path d="M190.538 77.9758L193.364 76.9693L191.856 72.7341L188.524 75.7524L190.538 77.9758ZM186.848 92.656L188.862 94.8794L188.862 94.8794L186.848 92.656ZM172.531 95.1707L173.666 92.3936L171.917 91.679L170.517 92.9473L172.531 95.1707ZM153.486 112.423L155.5 114.646L155.5 114.646L153.486 112.423ZM144.783 111.992L142.56 114.006L142.56 114.007L144.783 111.992ZM145.213 103.29L143.199 101.066L143.199 101.067L145.213 103.29ZM164.469 85.8462L166.483 88.0695L167.813 86.8653L167.381 85.1243L164.469 85.8462ZM168.547 72.453L166.533 70.2296L166.533 70.2297L168.547 72.453ZM183.149 70.0582L185.163 72.2816L188.606 69.1627L184.347 67.3077L183.149 70.0582ZM176.117 76.4283L174.103 74.2049L172.943 75.255L173.141 76.8067L176.117 76.4283ZM176.95 82.9801L173.974 83.3585L174.238 85.4368L176.28 85.9044L176.95 82.9801ZM183.387 84.454L182.717 87.3783L184.242 87.7274L185.401 86.6774L183.387 84.454ZM150.336 106.962L152.559 104.949L152.558 104.947L150.336 106.962ZM149.231 106.908L147.218 104.683L147.217 104.684L149.231 106.908ZM149.176 108.013L146.951 110.026L146.952 110.028L149.176 108.013ZM150.282 108.068L152.296 110.291L152.297 110.29L150.282 108.068ZM190.538 77.9758L187.712 78.9822C189.112 82.9135 188.111 87.4642 184.834 90.4326L186.848 92.656L188.862 94.8794C193.998 90.227 195.549 83.1038 193.364 76.9693L190.538 77.9758ZM186.848 92.656L184.834 90.4326C181.704 93.2681 177.342 93.8959 173.666 92.3936L172.531 95.1707L171.396 97.9477C177.129 100.29 183.957 99.3231 188.862 94.8794L186.848 92.656ZM172.531 95.1707L170.517 92.9473L151.472 110.2L153.486 112.423L155.5 114.646L174.545 97.3941L172.531 95.1707ZM153.486 112.423L151.472 110.199C150.179 111.371 148.179 111.273 147.006 109.978L144.783 111.992L142.56 114.007C145.956 117.756 151.75 118.043 155.5 114.646L153.486 112.423ZM144.783 111.992L147.007 109.978C145.834 108.684 145.933 106.685 147.227 105.513L145.213 103.29L143.199 101.067C139.449 104.463 139.163 110.257 142.56 114.006L144.783 111.992ZM145.213 103.29L147.227 105.513L166.483 88.0695L164.469 85.8462L162.455 83.6228L143.199 101.066L145.213 103.29ZM164.469 85.8462L167.381 85.1243C166.467 81.4386 167.56 77.3948 170.561 74.6764L168.547 72.453L166.533 70.2297C161.83 74.4902 160.133 80.8245 161.557 86.568L164.469 85.8462ZM168.547 72.453L170.561 74.6764C173.754 71.7834 178.231 71.1885 181.951 72.8087L183.149 70.0582L184.347 67.3077C178.543 64.7803 171.537 65.6959 166.533 70.2296L168.547 72.453ZM183.149 70.0582L181.135 67.8348L174.103 74.2049L176.117 76.4283L178.131 78.6517L185.163 72.2816L183.149 70.0582ZM176.117 76.4283L173.141 76.8067L173.974 83.3585L176.95 82.9801L179.926 82.6017L179.093 76.0499L176.117 76.4283ZM176.95 82.9801L176.28 85.9044L182.717 87.3783L183.387 84.454L184.056 81.5297L177.619 80.0558L176.95 82.9801ZM183.387 84.454L185.401 86.6774L192.552 80.1991L190.538 77.9758L188.524 75.7524L181.373 82.2306L183.387 84.454ZM150.336 106.962L152.558 104.947C151.156 103.401 148.766 103.283 147.218 104.683L149.231 106.908L151.244 109.132C150.336 109.953 148.936 109.885 148.113 108.978L150.336 106.962ZM149.231 106.908L147.217 104.684C145.671 106.084 145.548 108.476 146.951 110.026L149.176 108.013L151.4 106C152.223 106.91 152.15 108.311 151.245 109.131L149.231 106.908ZM149.176 108.013L146.952 110.028C148.355 111.575 150.747 111.694 152.296 110.291L150.282 108.068L148.268 105.845C149.176 105.022 150.577 105.092 151.399 105.999L149.176 108.013ZM150.282 108.068L152.297 110.29C153.846 108.886 153.959 106.494 152.559 104.949L150.336 106.962L148.112 108.976C147.292 108.071 147.357 106.67 148.266 105.846L150.282 108.068Z" fill="white" mask="url(#path-5-inside-1_22_4976)"/>
</g>
</g>
<defs>
<filter id="filter0_d_22_4976" x="-8.17938" y="-44" width="348.359" height="346.302" filterUnits="userSpaceOnUse" color-interpolation-filters="sRGB">
<feFlood flood-opacity="0" result="BackgroundImageFix"/>
<feColorMatrix in="SourceAlpha" type="matrix" values="0 0 0 0 0 0 0 0 0 0 0 0 0 0 0 0 0 0 127 0" result="hardAlpha"/>
<feOffset dy="36"/>
<feGaussianBlur stdDeviation="60"/>
<feComposite in2="hardAlpha" operator="out"/>
<feColorMatrix type="matrix" values="0 0 0 0 0 0 0 0 0 0 0 0 0 0 0 0 0 0 0.7 0"/>
<feBlend mode="normal" in2="BackgroundImageFix" result="effect1_dropShadow_22_4976"/>
<feBlend mode="normal" in="SourceGraphic" in2="effect1_dropShadow_22_4976" result="shape"/>
</filter>
<linearGradient id="paint0_linear_22_4976" x1="166" y1="210" x2="166" y2="412" gradientUnits="userSpaceOnUse">
<stop stop-color="#FF4E4E"/>
<stop offset="0.182692" stop-color="#992F2F" stop-opacity="0"/>
</linearGradient>
<linearGradient id="paint1_linear_22_4976" x1="166" y1="154" x2="166" y2="450" gradientUnits="userSpaceOnUse">
<stop stop-color="#FF4E4E"/>
<stop offset="0.182692" stop-color="#992F2F" stop-opacity="0"/>
</linearGradient>
<linearGradient id="paint2_linear_22_4976" x1="166" y1="98" x2="166" y2="476" gradientUnits="userSpaceOnUse">
<stop stop-color="#FF4E4E"/>
<stop offset="0.182692" stop-color="#992F2F" stop-opacity="0"/>
</linearGradient>
<linearGradient id="paint3_linear_22_4976" x1="166" y1="40" x2="166" y2="146.302" gradientUnits="userSpaceOnUse">
<stop stop-color="#DE2A2A"/>
<stop offset="1" stop-color="#992F2F"/>
</linearGradient>
<clipPath id="clip0_22_4976">
<rect width="331" height="244" fill="white"/>
</clipPath>
</defs>
</svg>
